<svg xmlns="http://www.w3.org/2000/svg">
<defs>
<font id="HelveticaNeueLTW1G-UltLtCn" horiz-adv-x="407" >
  <font-face 
    font-family="HelveticaNeueLT W1G 27 UltLtCn"
    font-weight="275"
    font-stretch="condensed"
    units-per-em="1000"
    panose-1="2 11 3 6 2 2 2 2 2 4"
    ascent="714"
    descent="-286"
    x-height="516"
    cap-height="714"
    bbox="-166 -248 1000 1396"
    underline-thickness="50"
    underline-position="-50"
    unicode-range="U+000D-U+FB04"
  />
<missing-glyph horiz-adv-x="512" 
d="M0 0v718h512v-718h-512zM50 50h412v617h-412v-617zM225 234l-2 17q0 56 13 81q15 28 46 59q31 29 40.5 46t9.5 37q0 36 -22.5 60.5t-53.5 24.5q-71 0 -82 -95l-50 8q7 69 43 103t92 34q54 0 89 -36t35 -95q0 -34 -13 -60t-50 -60q-37 -33 -43 -52q-6 -20 -6 -72h-46z
M222 117v67h56v-67h-56z" />
    <glyph glyph-name="IJ" unicode="IJ" horiz-adv-x="529" 
d="M64 0v714h20v-714h-20zM180 166q0 -77 35.5 -118.5t102.5 -41.5q133 0 133 152v556h20v-559q0 -85 -40.5 -126t-111.5 -41q-83 0 -121 51t-38 132v40h20v-45z" />
    <glyph glyph-name="ij" unicode="ij" horiz-adv-x="258" 
d="M55 616v98h20v-98h-20zM55 0v516h20v-516h-20zM183 616v98h20v-98h-20zM183 -75v591h20v-589q0 -57 -22 -80t-68 -23h-13q-10 0 -13 1v18q5 -1 15 -1h12q39 0 54 18t15 65z" />
    <glyph glyph-name="napostrophe" unicode="&#x22;n" horiz-adv-x="414" 
d="M76 0v516h20v-93h2q7 38 44 71.5t88 33.5q133 0 133 -157v-371h-20v369q0 79 -30.5 110t-82.5 31q-20 0 -40.5 -8t-43 -26.5t-36.5 -56.5t-14 -90v-329h-20zM10 613v101h20v-103q0 -79 -42 -116v31q0 1 4.5 8t8 14.5t6.5 25t3 39.5z" />
    <glyph glyph-name="f_f" unicode="ff" horiz-adv-x="347" 
d="M240 516v96q0 102 86 102q21 0 30 -1v-18q-9 1 -25 1q-39 0 -55 -19t-16 -67v-94h88v-18h-88v-498h-20v498h-142v-498h-20v498h-67v18h67v96q0 102 86 102q21 0 30 -1v-18q-9 1 -25 1q-39 0 -55 -19t-16 -67v-94h142z" />
    <glyph glyph-name="fi" unicode="fi" horiz-adv-x="315" 
d="M240 615v99h20v-99h-20zM78 0v498h-67v18h67v92q0 60 22 82q13 13 27.5 18.5t46.5 5.5h10q8 0 11 -1v-18q-5 1 -13 1h-13q-39 0 -55 -19t-16 -67v-94h88v-18h-88v-498h-20zM240 0v516h20v-516h-20z" />
    <glyph glyph-name="fl" unicode="fl" horiz-adv-x="315" 
d="M240 0v714h20v-714h-20zM78 0v498h-67v18h67v92q0 60 22 82q13 13 27.5 18.5t46.5 5.5h10q8 0 11 -1v-18q-5 1 -13 1h-13q-39 0 -55 -19t-16 -67v-94h88v-18h-88v-498h-20z" />
    <glyph glyph-name="f_f_i" unicode="ffi" horiz-adv-x="477" 
d="M240 516v96q0 102 86 102q21 0 30 -1v-18q-9 1 -25 1q-39 0 -55 -19t-16 -67v-94h88v-18h-88v-498h-20v498h-142v-498h-20v498h-67v18h67v96q0 102 86 102q21 0 30 -1v-18q-9 1 -25 1q-39 0 -55 -19t-16 -67v-94h142zM402 616v98h20v-98h-20zM402 0v516h20v-516h-20z" />
    <glyph glyph-name="f_f_l" unicode="ffl" horiz-adv-x="477" 
d="M240 516v96q0 102 86 102q21 0 30 -1v-18q-9 1 -25 1q-39 0 -55 -19t-16 -67v-94h88v-18h-88v-498h-20v498h-142v-498h-20v498h-67v18h67v96q0 102 86 102q21 0 30 -1v-18q-9 1 -25 1q-39 0 -55 -19t-16 -67v-94h142zM402 0v714h20v-714h-20z" />
    <glyph glyph-name=".notdef" horiz-adv-x="512" 
d="M0 0v718h512v-718h-512zM50 50h412v617h-412v-617zM225 234l-2 17q0 56 13 81q15 28 46 59q31 29 40.5 46t9.5 37q0 36 -22.5 60.5t-53.5 24.5q-71 0 -82 -95l-50 8q7 69 43 103t92 34q54 0 89 -36t35 -95q0 -34 -13 -60t-50 -60q-37 -33 -43 -52q-6 -20 -6 -72h-46z
M222 117v67h56v-67h-56z" />
    <glyph glyph-name=".null" horiz-adv-x="500" 
 />
    <glyph glyph-name="nonmarkingreturn" horiz-adv-x="333" 
 />
    <glyph glyph-name="CR" unicode="&#xd;" horiz-adv-x="0" 
 />
    <glyph glyph-name="space" unicode=" " horiz-adv-x="240" 
 />
    <glyph glyph-name="exclam" unicode="!" horiz-adv-x="204" 
d="M92 182v532h20v-532h-20zM92 0v98h20v-98h-20z" />
    <glyph glyph-name="quotedbl" unicode="&#x22;" horiz-adv-x="259" 
d="M164 495v219h20v-219h-20zM75 495v219h20v-219h-20z" />
    <glyph glyph-name="numbersign" unicode="#" horiz-adv-x="480" 
d="M83 0l33 234h-94v18h97l26 192h-94v18h97l33 234h20l-33 -234h176l33 234h20l-33 -234h94v-18h-97l-26 -192h94v-18h-97l-33 -234h-20l33 234h-176l-33 -234h-20zM139 252h176l26 192h-176z" />
    <glyph glyph-name="dollar" unicode="$" horiz-adv-x="480" 
d="M40 182v30h20v-30q0 -80 44.5 -127t124.5 -49v350q-88 28 -130 64.5t-42 113.5q0 27 9 55t27.5 55t53.5 44.5t82 19.5v59h20v-59q92 -2 135 -53t43 -122v-14h-20v16q0 71 -42.5 112t-115.5 43v-321l40.5 -14t36.5 -15t38 -19t29 -22.5t26 -30.5t14 -37.5t7 -48.5
q0 -48 -18 -89t-63 -72t-110 -33v-82h-20v82q-93 2 -141 57.5t-48 136.5zM229 376v314q-73 -4 -112.5 -50t-39.5 -110q0 -34 11.5 -60t35.5 -43.5t46.5 -28t58.5 -22.5zM249 6q74 4 122.5 50t48.5 131q0 37 -13.5 64.5t-42.5 46t-52 28.5t-63 23v-343z" />
    <glyph glyph-name="percent" unicode="%" horiz-adv-x="648" 
d="M164 -18l298 732h20l-298 -732h-20zM177 365q-120 0 -120 171q0 84 32 128t88 44q124 0 120 -172q-1 -50 -13 -86t-31.5 -53.5t-38 -24.5t-37.5 -7zM177 383q51 0 75.5 42.5t24.5 110.5q0 73 -20.5 113.5t-79.5 40.5q-100 0 -100 -154q0 -153 100 -153zM351 159
q0 84 32 128t88 44q124 0 120 -172q-1 -50 -13 -86t-31.5 -53.5t-38 -24.5t-37.5 -7q-120 0 -120 171zM371 159q0 -153 100 -153q51 0 75.5 42.5t24.5 110.5q0 73 -20.5 113.5t-79.5 40.5q-100 0 -100 -154z" />
    <glyph glyph-name="ampersand" unicode="&#x26;" horiz-adv-x="519" 
d="M25 163q0 56 26 99.5t86 88.5l68 53q-2 3 -15.5 21.5l-17 23.5l-15 21.5t-15.5 24.5l-11.5 22.5t-10.5 24.5t-5.5 23t-2.5 25q0 46 35 82t93 36q54 0 88 -34t34 -85q0 -98 -130 -190l177 -248q16 44 24 130h20q-10 -102 -30 -149l94 -132h-23l-82 112q-70 -124 -203 -124
q-84 0 -134 51.5t-50 123.5zM221 415q64 46 92.5 87.5t28.5 89.5q0 43 -28 70.5t-77 27.5q-42 0 -73.5 -28.5t-31.5 -75.5q0 -51 89 -171zM45 162q0 -73 50.5 -114.5t114.5 -41.5q66 0 111 31.5t79 93.5l-183 257l-67 -52q-57 -43 -81 -81.5t-24 -92.5z" />
    <glyph glyph-name="quotesingle" unicode="'" horiz-adv-x="168" 
d="M74 495v219h20v-219h-20z" />
    <glyph glyph-name="parenleft" unicode="(" horiz-adv-x="204" 
d="M180 -184q-116 217 -116 439q0 138 30.5 246t85.5 213h20q-116 -216 -116 -459q0 -115 27 -217t89 -222h-20z" />
    <glyph glyph-name="parenright" unicode=")" horiz-adv-x="204" 
d="M4 -184q116 216 116 459q0 115 -27 217t-89 222h20q116 -217 116 -439q0 -138 -30.5 -246t-85.5 -213h-20z" />
    <glyph glyph-name="asterisk" unicode="*" horiz-adv-x="278" 
d="M79 508l-15 12l60 80l-85 34l10 18l80 -35v97h20v-97l80 35l10 -18l-85 -34l60 -80l-15 -12l-60 80z" />
    <glyph glyph-name="plus" unicode="+" horiz-adv-x="600" 
d="M47 244v18h243v244h20v-244h243v-18h-243v-244h-20v244h-243z" />
    <glyph glyph-name="comma" unicode="," horiz-adv-x="240" 
d="M110 -3v101h20v-103q0 -79 -42 -116v31q0 1 4.5 8t8 14.5t6.5 25t3 39.5z" />
    <glyph glyph-name="hyphen" unicode="-" horiz-adv-x="296" 
d="M65 263v18h166v-18h-166z" />
    <glyph glyph-name="period" unicode="." horiz-adv-x="240" 
d="M110 0v98h20v-98h-20z" />
    <glyph glyph-name="slash" unicode="/" horiz-adv-x="278" 
d="M-4 -12l266 738h20l-266 -738h-20z" />
    <glyph glyph-name="zero" unicode="0" horiz-adv-x="480" 
d="M240 -12q-107 0 -151 88.5t-44 271.5q0 83 8.5 144.5t29.5 112.5t60.5 77t96.5 26q58 0 97.5 -25.5t60 -76.5t29 -112t8.5 -146q0 -183 -44 -271.5t-151 -88.5zM240 6q52 0 87.5 24.5t54 73t26 106.5t7.5 138q0 175 -38.5 258.5t-136.5 83.5q-96 0 -135.5 -85.5
t-39.5 -256.5q0 -80 7.5 -138t26 -106.5t54 -73t87.5 -24.5z" />
    <glyph glyph-name="one" unicode="1" horiz-adv-x="480" 
d="M250 0v690h-2q-22 -42 -77 -80.5t-98 -42.5v18q101 27 169 123h28v-708h-20z" />
    <glyph glyph-name="two" unicode="2" horiz-adv-x="480" 
d="M48 0q0 62 18 105.5t56 86.5q20 24 114.5 96t103.5 83q34 39 49.5 73.5t15.5 80.5q0 73 -42 119t-118 46q-82 0 -125.5 -56.5t-43.5 -137.5h-20q0 96 51.5 154t135.5 58t133 -49.5t49 -137.5q0 -56 -26.5 -103t-66 -78.5l-86 -67l-86 -67.5t-66 -80.5t-26.5 -106.5h364
v-18h-384z" />
    <glyph glyph-name="three" unicode="3" horiz-adv-x="480" 
d="M46 180h20q0 -79 46.5 -126.5t117.5 -47.5q90 0 137 51.5t47 138.5q0 86 -55.5 125.5t-132.5 39.5h-23v18h24q76 0 120 38.5t44 116.5q0 74 -41.5 115t-111.5 41q-66 0 -113.5 -41.5t-47.5 -124.5h-20q0 84 50 134t132 50q81 0 126.5 -47t45.5 -127q0 -70 -34.5 -110.5
t-85.5 -51.5v-2q69 -14 106 -59.5t37 -115.5q0 -97 -55 -152t-149 -55q-80 0 -132 54t-52 138z" />
    <glyph glyph-name="four" unicode="4" horiz-adv-x="480" 
d="M34 201v18l303 489h22v-489h87v-18h-87v-201h-20v201h-305zM54 219h285v456h-2z" />
    <glyph glyph-name="five" unicode="5" horiz-adv-x="480" 
d="M46 177h20q1 -79 46 -125t119 -46q77 0 130 55.5t53 174.5q0 100 -48.5 154.5t-126.5 54.5q-43 0 -87.5 -24t-69.5 -84h-26l40 359h299v-18h-281l-36 -309h2q51 94 159 94q85 0 140 -58.5t55 -169.5t-53 -179t-150 -68q-80 0 -131.5 49.5t-53.5 139.5z" />
    <glyph glyph-name="six" unicode="6" horiz-adv-x="480" 
d="M241 -12q-40 0 -73 14.5t-62 47t-45.5 93.5t-16.5 146q0 155 20.5 242.5t67.5 131.5q48 45 120 45q75 0 117.5 -44t46.5 -113h-20q-4 64 -41.5 101.5t-101.5 37.5q-72 0 -115 -46q-39 -43 -56.5 -124t-17.5 -230h2q9 67 54.5 114.5t121.5 47.5q96 0 145 -62t49 -165
q0 -116 -56.5 -176.5t-138.5 -60.5zM73 220q0 -89 42.5 -151.5t125.5 -62.5q86 0 130.5 64t44.5 152q0 93 -41 152.5t-130 59.5q-58 0 -98.5 -32.5t-57 -79.5t-16.5 -102z" />
    <glyph glyph-name="seven" unicode="7" horiz-adv-x="480" 
d="M131 0q6 165 91 363.5t190 314.5h-364v18h384v-25q-114 -132 -191.5 -316t-89.5 -355h-20z" />
    <glyph glyph-name="eight" unicode="8" horiz-adv-x="480" 
d="M45 195q0 71 43 124t99 59v2q-51 6 -85 50t-34 106q0 74 47 123t126 49q81 0 127 -46.5t46 -121.5q0 -127 -119 -160l-2 -2q56 -6 99 -59t43 -124q0 -93 -51 -150t-144 -57t-144 57t-51 150zM241 389q69 0 111 41.5t42 107.5q0 69 -39 110.5t-114 41.5q-69 0 -111 -43.5
t-42 -108.5q0 -70 40 -109.5t113 -39.5zM65 187q0 -72 44 -126.5t131 -54.5t131 54.5t44 126.5q0 88 -50.5 136t-124.5 48t-124.5 -48t-50.5 -136z" />
    <glyph glyph-name="nine" unicode="9" horiz-adv-x="480" 
d="M64 145h20q4 -64 41.5 -101.5t101.5 -37.5q72 0 115 46q39 43 56.5 124t17.5 230h-2q-9 -67 -54.5 -114.5t-121.5 -47.5q-96 0 -145 62t-49 165q0 116 56.5 176.5t138.5 60.5q40 0 73 -14.5t62 -47t45.5 -93.5t16.5 -146q0 -155 -20.5 -242.5t-67.5 -131.5
q-48 -45 -120 -45q-74 0 -118 44.5t-46 112.5zM235 262q58 0 98.5 32.5t57 79.5t16.5 102q0 89 -42.5 151.5t-125.5 62.5q-86 0 -130.5 -64t-44.5 -152q0 -93 41 -152.5t130 -59.5z" />
    <glyph glyph-name="colon" unicode=":" horiz-adv-x="240" 
d="M110 394v98h20v-98h-20zM110 0v98h20v-98h-20z" />
    <glyph glyph-name="semicolon" unicode=";" horiz-adv-x="240" 
d="M110 394v98h20v-98h-20zM110 -3v101h20v-103q0 -79 -42 -116v31q0 1 4.5 8t8 14.5t6.5 25t3 39.5z" />
    <glyph glyph-name="less" unicode="&#x3c;" horiz-adv-x="600" 
d="M47 244v18l506 252v-18l-486 -243l486 -243v-18z" />
    <glyph glyph-name="equal" unicode="=" horiz-adv-x="600" 
d="M47 341v18h506v-18h-506zM47 147v18h506v-18h-506z" />
    <glyph glyph-name="greater" unicode="&#x3e;" horiz-adv-x="600" 
d="M47 -8v18l486 243l-486 243v18l506 -252v-18z" />
    <glyph glyph-name="question" unicode="?" 
d="M182 182v67q0 39 18 72.5t43.5 58.5l51 50.5t43.5 62t18 79.5q0 65 -43 100.5t-105 35.5t-109.5 -44.5t-47.5 -134.5v-23h-20v22q0 94 51.5 146t125.5 52q78 0 123 -43.5t45 -111.5q0 -52 -20.5 -90t-77.5 -95q-45 -43 -60.5 -72.5t-15.5 -75.5v-56h-20zM182 0v98h20v-98
h-20z" />
    <glyph glyph-name="at" unicode="@" horiz-adv-x="800" 
d="M187 275q0 73 28 141t85.5 115t129.5 47q46 0 79.5 -23t41.5 -63h2l21 66h20l-95 -320q-8 -32 -8 -51q0 -15 12 -25t30 -8q82 0 149 83.5t67 178.5q0 70 -29 127t-76.5 92t-105 54t-118.5 19q-153 0 -261 -102.5t-108 -248.5t108 -248.5t261 -102.5q100 0 185.5 48.5
t123.5 115.5h24q-48 -84 -139.5 -133t-193.5 -49q-161 0 -275 108t-114 261t114 261t275 108q146 0 247.5 -87t101.5 -220q0 -109 -74 -197t-163 -88q-26 0 -43.5 15.5t-17.5 40.5q0 18 9 47h-2q-57 -103 -154 -103q-61 0 -99 41.5t-38 99.5zM207 275q0 -54 34.5 -88.5
t91.5 -34.5q45 0 85.5 37t65 88.5t39 99.5t14.5 75q0 55 -31.5 81.5t-75.5 26.5q-96 0 -159.5 -87t-63.5 -198z" />
    <glyph glyph-name="A" unicode="A" horiz-adv-x="481" 
d="M2 0l227 714h24l226 -714h-20l-73 232h-291l-73 -232h-20zM101 250h280l-139 446h-2z" />
    <glyph glyph-name="B" unicode="B" horiz-adv-x="481" 
d="M58 0v714h182q89 0 136.5 -44.5t47.5 -121.5q0 -161 -134 -173v-2q74 -2 115 -51t41 -126q0 -95 -52.5 -145.5t-146.5 -50.5h-189zM78 382h152q83 0 128.5 35t45.5 125q0 154 -165 154h-161v-314zM78 18h152q99 0 147.5 43.5t48.5 133.5q0 169 -185 169h-163v-346z" />
    <glyph glyph-name="C" unicode="C" horiz-adv-x="500" 
d="M266 -12q-54 0 -95 22t-66 57t-40.5 84.5t-21 99t-5.5 106.5t5.5 106.5t21 99t40.5 84.5t66 57t95 22t94 -21t61 -55t31.5 -68.5t12.5 -71.5h-20q-4 87 -49 142.5t-129 55.5q-209 0 -209 -351t209 -351q42 0 75.5 17.5t53 42t33 58.5t19 59.5t8.5 53.5h20q-5 -49 -18 -90
t-36.5 -78.5t-63.5 -59t-92 -21.5z" />
    <glyph glyph-name="D" unicode="D" horiz-adv-x="500" 
d="M58 0v714h172q68 0 115 -26.5t72 -76t35 -107.5t10 -135q0 -107 -19.5 -181t-56.5 -114t-82 -57t-104 -17h-142zM78 18h133q231 0 231 351q0 168 -49.5 247.5t-170.5 79.5h-144v-678z" />
    <glyph glyph-name="E" unicode="E" 
d="M58 0v714h325v-18h-305v-314h283v-18h-283v-346h313v-18h-333z" />
    <glyph glyph-name="F" unicode="F" horiz-adv-x="389" 
d="M58 0v714h325v-18h-305v-314h283v-18h-283v-364h-20z" />
    <glyph glyph-name="G" unicode="G" horiz-adv-x="519" 
d="M266 -12q-54 0 -95 22t-66 57t-40.5 84.5t-21 99t-5.5 106.5t5.5 106.5t21 99t40.5 84.5t66 57t95 22t94 -21t61 -55t31.5 -68.5t12.5 -71.5h-20q-4 89 -49 143.5t-129 54.5q-209 0 -209 -351t209 -351q32 0 61.5 12.5t59 42t48 87.5t20.5 138v42h-222v18h242v-346h-20
v155h-2q-17 -72 -65 -119.5t-123 -47.5z" />
    <glyph glyph-name="H" unicode="H" horiz-adv-x="500" 
d="M58 0v714h20v-324h344v324h20v-714h-20v372h-344v-372h-20z" />
    <glyph glyph-name="I" unicode="I" horiz-adv-x="148" 
d="M64 0v714h20v-714h-20z" />
    <glyph glyph-name="J" unicode="J" horiz-adv-x="389" 
d="M40 166q0 -77 35.5 -118.5t102.5 -41.5q133 0 133 152v556h20v-559q0 -85 -40.5 -126t-111.5 -41q-83 0 -121 51t-38 132v40h20v-45z" />
    <glyph glyph-name="K" unicode="K" horiz-adv-x="444" 
d="M58 0v714h20v-421h2l318 421h23l-229 -301l249 -413h-21l-240 398l-102 -135v-263h-20z" />
    <glyph glyph-name="L" unicode="L" 
d="M58 0v714h20v-696h305v-18h-325z" />
    <glyph glyph-name="M" unicode="M" horiz-adv-x="630" 
d="M55 0v714h33l227 -682h2l226 682h32v-714h-20v688l-2 2v-2l-226 -688h-24l-226 688h-2v-688h-20z" />
    <glyph glyph-name="N" unicode="N" horiz-adv-x="500" 
d="M53 0v714h33l339 -682h2v682h20v-714h-29l-343 696h-2v-696h-20z" />
    <glyph glyph-name="O" unicode="O" horiz-adv-x="537" 
d="M38 357q0 75 11 137t35.5 116.5t71.5 85t113 30.5q230 0 230 -369q0 -75 -11 -137t-35.5 -116.5t-71.5 -85t-113 -30.5q-230 0 -230 369zM58 357q0 -351 210 -351q60 0 102.5 28.5t65.5 80t33 110.5t10 132q0 351 -210 351q-60 0 -102.5 -28.5t-65.5 -80t-33 -110.5
t-10 -132z" />
    <glyph glyph-name="P" unicode="P" horiz-adv-x="463" 
d="M58 0v714h196q75 0 123 -51t48 -139q0 -99 -58 -147.5t-137 -48.5h-152v-328h-20zM78 696v-350h154q31 0 59.5 9t55 28t42.5 55.5t16 86.5q0 76 -40.5 123.5t-116.5 47.5h-170z" />
    <glyph glyph-name="Q" unicode="Q" horiz-adv-x="537" 
d="M485 -37l-75 82q-54 -57 -144 -57q-54 0 -95 22t-66 57t-40.5 84.5t-21 99t-5.5 106.5q0 56 6 106t22 99.5t41 84.5t65.5 57t93.5 22q47 0 84 -16t61 -40t41.5 -60.5t26 -68t13.5 -71.5t6 -63t1 -50q0 -204 -77 -298l77 -82zM319 170l91 -98q69 87 69 285q0 351 -212 351
q-209 0 -209 -351t209 -351q82 0 131 52l-94 101z" />
    <glyph glyph-name="R" unicode="R" horiz-adv-x="481" 
d="M58 0v714h193q79 0 129.5 -42.5t50.5 -144.5q0 -79 -38 -124.5t-105 -53.5v-2q81 -10 108.5 -54.5t29.5 -143.5q2 -83 4.5 -104t12.5 -45h-20q-6 14 -8.5 23.5t-5 39.5t-3.5 88q-4 114 -40.5 150t-142.5 36h-145v-337h-20zM78 696v-341h137q196 0 196 172q0 169 -162 169
h-171z" />
    <glyph glyph-name="S" unicode="S" horiz-adv-x="463" 
d="M31 187v31h20v-31q0 -83 46 -132t129 -49q81 0 133.5 47t52.5 139q0 39 -14 67.5t-44 48t-52.5 29t-64.5 22.5q-48 15 -76.5 27.5t-57 33.5t-41.5 52.5t-13 75.5q0 28 9.5 57t29.5 57.5t57.5 46t87.5 17.5q96 0 141 -53t45 -126v-15h-20v17q0 75 -45 117t-123 42
q-77 0 -119.5 -48.5t-42.5 -115.5q0 -45 20 -76.5t52 -48.5t70.5 -30.5l77.5 -27.5t71 -33.5t52 -55t20 -85.5q0 -80 -51.5 -139.5t-153.5 -59.5q-98 0 -147 57.5t-49 141.5z" />
    <glyph glyph-name="T" unicode="T" horiz-adv-x="408" 
d="M194 0v696h-194v18h408v-18h-194v-696h-20z" />
    <glyph glyph-name="U" unicode="U" horiz-adv-x="481" 
d="M432 714v-521q0 -99 -49.5 -152t-142.5 -53q-91 0 -141 53t-50 152v521h20v-518q0 -190 171 -190q172 0 172 190v518h20z" />
    <glyph glyph-name="V" unicode="V" horiz-adv-x="444" 
d="M208 0l-202 714h20l194 -682h2l196 682h20l-204 -714h-26z" />
    <glyph glyph-name="W" unicode="W" horiz-adv-x="704" 
d="M174 0l-159 714h20l151 -682h2l150 682h28l147 -682h2l154 682h20l-162 -714h-26l-149 688h-2l-151 -688h-25z" />
    <glyph glyph-name="X" unicode="X" horiz-adv-x="444" 
d="M6 0l206 369l-193 345h21l183 -327l183 327h20l-192 -345l205 -369h-21l-196 351l-196 -351h-20z" />
    <glyph glyph-name="Y" unicode="Y" horiz-adv-x="426" 
d="M203 0v301l-200 413h21l189 -392l190 392h20l-200 -413v-301h-20z" />
    <glyph glyph-name="Z" unicode="Z" horiz-adv-x="444" 
d="M20 0v20l382 676h-360v18h380v-20l-382 -676h384v-18h-404z" />
    <glyph glyph-name="bracketleft" unicode="[" horiz-adv-x="204" 
d="M78 -184v898h115v-18h-95v-862h95v-18h-115z" />
    <glyph glyph-name="backslash" unicode="\" horiz-adv-x="278" 
d="M16 726l266 -738h-20l-266 738h20z" />
    <glyph glyph-name="bracketright" unicode="]" horiz-adv-x="204" 
d="M106 -166v862h-95v18h115v-898h-115v18h95z" />
    <glyph glyph-name="asciicircum" unicode="^" horiz-adv-x="600" 
d="M61 243l231 453h16l231 -453h-18l-221 435l-221 -435h-18z" />
    <glyph glyph-name="underscore" unicode="_" horiz-adv-x="500" 
d="M0 -125v50h500v-50h-500z" />
    <glyph glyph-name="grave" unicode="`" horiz-adv-x="130" 
d="M82 591l-83 139h20l83 -139h-20z" />
    <glyph glyph-name="a" unicode="a" horiz-adv-x="370" 
d="M29 135q0 114 123 138q79 16 105 26q22 7 31 25.5t9 61.5q0 58 -20 85q-29 39 -87 39q-121 0 -121 -137h-20v17q0 57 35.5 97.5t105.5 40.5q55 0 91 -31.5t36 -92.5v-339q0 -49 30 -47q6 0 20 2v-18q-10 -2 -14 -2h-10q-23 0 -34.5 13.5t-11.5 53.5v20h-2
q-18 -46 -52.5 -72.5t-82.5 -26.5q-62 0 -96.5 39t-34.5 108zM297 189v117q-21 -25 -135 -47q-61 -12 -87 -42t-26 -84q0 -63 31.5 -95t82.5 -32q49 0 91.5 45.5t42.5 137.5z" />
    <glyph glyph-name="b" unicode="b" 
d="M51 0v714h20v-302h3q37 116 136 116q160 0 160 -265q0 -139 -42.5 -207t-119.5 -68q-101 0 -134 123h-3v-111h-20zM71 258q0 -124 36.5 -188t98.5 -64q144 0 144 261q0 243 -140 243q-65 0 -102 -63.5t-37 -188.5z" />
    <glyph glyph-name="c" unicode="c" horiz-adv-x="370" 
d="M348 373h-20q-2 56 -35.5 96.5t-90.5 40.5q-145 0 -145 -252t145 -252q45 0 76 29t42 63t13 70h20q-4 -78 -45 -129t-106 -51q-86 0 -125.5 70.5t-39.5 214.5q0 255 165 255q64 0 105 -46.5t41 -108.5z" />
    <glyph glyph-name="d" unicode="d" 
d="M336 0v111h-3q-33 -123 -134 -123q-77 0 -119.5 68t-42.5 207q0 265 160 265q93 0 136 -116h3v302h20v-714h-20zM336 258q0 126 -37 189t-102 63q-140 0 -140 -243q0 -261 144 -261q62 0 98.5 64t36.5 188z" />
    <glyph glyph-name="e" unicode="e" horiz-adv-x="389" 
d="M357 269h-300q0 -126 33 -194.5t112 -68.5q45 0 76 29t42 63t13 70h20q-4 -78 -45 -129t-106 -51q-86 0 -125.5 70.5t-39.5 214.5q0 255 165 255q57 0 93 -32.5t49 -80t13 -110.5v-36zM57 287h280v35q0 46 -9.5 85t-41.5 71t-84 32q-139 0 -145 -223z" />
    <glyph glyph-name="f" unicode="f" horiz-adv-x="185" 
d="M78 0v498h-67v18h67v92q0 60 22 82q13 13 27.5 18.5t46.5 5.5h10q7 0 10 -1v-18q-4 1 -12 1h-13q-39 0 -55 -19t-16 -67v-94h88v-18h-88v-498h-20z" />
    <glyph glyph-name="g" unicode="g" 
d="M329 -2v120h-2q-24 -118 -139 -118q-151 0 -151 266q0 262 158 262q60 0 92 -34.5t40 -75.5h2v98h20v-519q0 -181 -151 -181q-24 0 -45 5.5t-42 18.5t-34.5 40t-15.5 65h20q3 -54 33 -82.5t84 -28.5q131 0 131 164zM329 274q0 236 -136 236t-136 -239q0 -253 132 -253
q66 0 103 57t37 199z" />
    <glyph glyph-name="h" unicode="h" horiz-adv-x="389" 
d="M51 0v714h20v-291h2q7 38 44 71.5t88 33.5q133 0 133 -157v-371h-20v369q0 79 -30.5 110t-82.5 31q-20 0 -40.5 -8t-43 -26.5t-36.5 -56.5t-14 -90v-329h-20z" />
    <glyph glyph-name="i" unicode="i" horiz-adv-x="130" 
d="M55 616v98h20v-98h-20zM55 0v516h20v-516h-20z" />
    <glyph glyph-name="j" unicode="j" horiz-adv-x="130" 
d="M55 616v98h20v-98h-20zM55 -75v591h20v-589q0 -57 -22 -80t-68 -23h-13q-10 0 -13 1v18q5 -1 15 -1h12q39 0 54 18t15 65z" />
    <glyph glyph-name="k" unicode="k" horiz-adv-x="352" 
d="M51 0v714h20v-487l244 289h26l-162 -191l191 -325h-23l-182 310l-94 -111v-199h-20z" />
    <glyph glyph-name="l" unicode="l" horiz-adv-x="130" 
d="M55 0v714h20v-714h-20z" />
    <glyph glyph-name="m" unicode="m" horiz-adv-x="612" 
d="M55 0v516h20v-83h2q12 41 44.5 68t78.5 27q97 0 112 -101h2q10 39 41.5 70t80.5 31q61 0 91 -37.5t30 -97.5v-393h-20v393q0 60 -29 88.5t-67 28.5q-59 0 -92 -47.5t-33 -123.5v-339h-20v389q0 53 -22.5 87t-72.5 34q-55 0 -90.5 -47.5t-35.5 -141.5v-321h-20z" />
    <glyph glyph-name="n" unicode="n" horiz-adv-x="389" 
d="M51 0v516h20v-93h2q7 38 44 71.5t88 33.5q133 0 133 -157v-371h-20v369q0 79 -30.5 110t-82.5 31q-20 0 -40.5 -8t-43 -26.5t-36.5 -56.5t-14 -90v-329h-20z" />
    <glyph glyph-name="o" unicode="o" 
d="M204 -12q-167 0 -167 270t167 270q166 0 166 -270t-166 -270zM57 258q0 -252 147 -252q77 0 111.5 62t34.5 190t-34.5 190t-111.5 62q-147 0 -147 -252z" />
    <glyph glyph-name="p" unicode="p" 
d="M51 -176v692h20v-111h3q33 123 136 123q160 0 160 -275q0 -265 -160 -265q-53 0 -87 33t-49 83h-3v-280h-20zM71 258q0 -126 37 -189t102 -63q140 0 140 243q0 56 -6 99t-20.5 81.5t-43 59.5t-69.5 21q-66 0 -103 -63.5t-37 -188.5z" />
    <glyph glyph-name="q" unicode="q" 
d="M336 -176v280h-3q-41 -116 -136 -116q-160 0 -160 265q0 275 160 275q103 0 136 -123h3v111h20v-692h-20zM57 249q0 -243 140 -243q65 0 102 63t37 189q0 125 -37 188.5t-103 63.5q-41 0 -69.5 -21t-43 -59.5t-20.5 -81.5t-6 -99z" />
    <glyph glyph-name="r" unicode="r" horiz-adv-x="222" 
d="M51 0v516h20v-93h2q7 38 44 71.5t88 33.5h20v-18h-20q-20 0 -40.5 -8t-43 -26.5t-36.5 -56.5t-14 -90v-329h-20z" />
    <glyph glyph-name="s" unicode="s" horiz-adv-x="333" 
d="M169 -12q-144 0 -144 158v16h20v-19q0 -137 122 -137q61 0 91 37t30 86q0 46 -26 74t-63 42.5l-74.5 30t-63.5 47t-26 81.5q0 52 32 84q36 40 100 40q68 0 98 -41t30 -99v-14h-20v17q0 119 -109 119q-52 0 -81.5 -30.5t-29.5 -79.5q0 -44 26 -71t63.5 -41.5l74.5 -29.5
t63 -46.5t26 -81.5q0 -60 -37 -101t-102 -41z" />
    <glyph glyph-name="t" unicode="t" horiz-adv-x="185" 
d="M78 79v419h-67v18h67v160h20v-160h88v-18h-88v-417q0 -36 12 -49.5t45 -13.5q26 0 39 3v-18q-15 -3 -40 -3q-38 0 -57 17.5t-19 61.5z" />
    <glyph glyph-name="u" unicode="u" horiz-adv-x="389" 
d="M338 516v-516h-20v93h-2q-7 -38 -44 -71.5t-88 -33.5q-133 0 -133 157v371h20v-369q0 -80 30.5 -110.5t82.5 -30.5q19 0 39.5 8t43 26.5t37 56.5t14.5 90v329h20z" />
    <glyph glyph-name="v" unicode="v" horiz-adv-x="315" 
d="M151 0l-148 516h20l140 -498h2l127 498h20l-135 -516h-26z" />
    <glyph glyph-name="w" unicode="w" horiz-adv-x="500" 
d="M116 0l-105 516h20l98 -498h2l105 498h29l102 -498h2l100 498h20l-108 -516h-27l-103 498h-2l-105 -498h-28z" />
    <glyph glyph-name="x" unicode="x" horiz-adv-x="315" 
d="M14 0l134 265l-130 251h21l120 -231l117 231h20l-127 -251l132 -265h-21l-122 245l-124 -245h-20z" />
    <glyph glyph-name="y" unicode="y" horiz-adv-x="315" 
d="M153 -4l-151 520h20l140 -491l-1 1h2l131 490h19l-146 -537q-24 -93 -48.5 -124t-76.5 -31q-13 0 -27 2v18q16 -2 30 -2q34 0 56 19q26 26 52 135z" />
    <glyph glyph-name="z" unicode="z" horiz-adv-x="296" 
d="M7 18l259 480h-249v18h269v-18l-259 -480h262v-18h-282v18z" />
    <glyph glyph-name="braceleft" unicode="{" horiz-adv-x="204" 
d="M9 256v18q70 0 70 159v167q0 56 17 85t65 29h54v-18h-54q-39 0 -50.5 -23t-11.5 -91v-156q0 -135 -70 -161q20 -9 32.5 -21t25 -48t12.5 -92v-156q0 -68 11.5 -91t50.5 -23h54v-18h-54q-48 0 -65 28t-17 86v167q0 159 -70 159z" />
    <glyph glyph-name="bar" unicode="|" horiz-adv-x="222" 
d="M101 -12v738h20v-738h-20z" />
    <glyph glyph-name="braceright" unicode="}" horiz-adv-x="204" 
d="M-11 -184v18h54q39 0 50.5 23t11.5 91v156q0 56 12.5 92t25 48t32.5 21q-70 26 -70 161v156q0 68 -11.5 91t-50.5 23h-54v18h54q48 0 65 -29t17 -85v-167q0 -159 70 -159v-18q-70 0 -70 -159v-167q0 -58 -17 -86t-65 -28h-54z" />
    <glyph glyph-name="asciitilde" unicode="~" horiz-adv-x="600" 
d="M93 206l-14 12q27 44 55 62t67 18q46 0 113 -34.5t100 -34.5q19 0 45.5 19t46.5 52l15 -13q-22 -36 -53 -56t-54 -20q-38 0 -105 34.5t-108 34.5q-33 0 -56.5 -16t-51.5 -58z" />
    <glyph glyph-name="uni00A0" unicode="&#xa0;" horiz-adv-x="240" 
 />
    <glyph glyph-name="exclamdown" unicode="&#xa1;" horiz-adv-x="204" 
d="M92 452v98h20v-98h-20zM92 -164v532h20v-532h-20z" />
    <glyph glyph-name="cent" unicode="&#xa2;" horiz-adv-x="480" 
d="M239 -104v92q-156 1 -156 270q0 260 156 270v83h20v-83q59 -4 97 -49t38 -106h-20q-2 55 -32 94t-83 43v-504q56 8 85.5 54t32.5 104h20q0 -64 -37 -116t-101 -60v-92h-20zM239 6v504q-136 -9 -136 -252q0 -133 37.5 -192.5t98.5 -59.5z" />
    <glyph glyph-name="sterling" unicode="&#xa3;" horiz-adv-x="480" 
d="M48 -12l-16 20q125 111 125 234q0 31 -18 92h-103v18h94q-6 12 -23.5 43.5t-26 48.5t-16.5 44t-8 49q0 68 51.5 119.5t144.5 51.5q82 0 136 -53.5t54 -148.5h-20q-4 92 -53 141q-45 43 -119 43q-82 0 -128 -46t-46 -107q0 -20 9 -46.5t18 -44.5t27 -51t23 -43h124v-18
h-118q18 -51 18 -91q0 -108 -108 -222l2 -1q40 24 74 24q28 0 83 -19l16.5 -6.5t18 -6.5t17.5 -4t22 -2q69 0 147 66l11 -14q-77 -70 -151 -70q-20 0 -85 19q-64 19 -77 19q-7 0 -13.5 -0.5t-13 -2l-11 -2.5t-11 -4l-10 -4.5t-10 -5.5t-9.5 -5.5t-10.5 -6.5z" />
    <glyph glyph-name="currency" unicode="&#xa4;" horiz-adv-x="480" 
d="M47 169l38 38q-55 61 -55 141t55 141l-38 38l14 14l39 -39q59 56 140 56q84 0 140 -56l39 39l14 -14l-38 -38q55 -61 55 -141q0 -81 -56 -140l39 -39l-14 -14l-38 38q-58 -55 -141 -55q-81 0 -140 56l-39 -39zM50 348q0 -79 55.5 -134.5t134.5 -55.5t134.5 55.5
t55.5 134.5t-55.5 134.5t-134.5 55.5t-134.5 -55.5t-55.5 -134.5z" />
    <glyph glyph-name="yen" unicode="&#xa5;" horiz-adv-x="480" 
d="M230 0v184h-153v18h153v100h-153v18h142l-186 376h20l186 -373h2l186 373h20l-186 -376h142v-18h-153v-100h153v-18h-153v-184h-20z" />
    <glyph glyph-name="brokenbar" unicode="&#xa6;" horiz-adv-x="222" 
d="M101 459v267h20v-267h-20zM101 -12v267h20v-267h-20z" />
    <glyph glyph-name="section" unicode="&#xa7;" horiz-adv-x="481" 
d="M245 -156q-65 0 -112 40.5t-47 121.5v10h20v-9q0 -77 43 -111t94 -34q53 0 94 30t41 83q0 51 -39 88q-25 23 -127.5 93t-121.5 91q-26 27 -36 47t-10 50q0 94 109 147q-54 44 -54 96q0 65 44 102t104 37q67 0 108 -35t43 -112h-20q0 60 -34 94.5t-94 34.5
q-55 0 -93 -32.5t-38 -86.5q0 -35 33 -69.5t79.5 -64.5l93 -61t79.5 -72t33 -85q0 -45 -24.5 -79t-80.5 -63q66 -57 66 -115q0 -61 -45 -98.5t-108 -37.5zM171 207l147 -99q99 46 99 122q0 40 -20 70t-68 67l-162 111q-55 -27 -79 -58t-24 -78q0 -61 107 -135z" />
    <glyph glyph-name="dieresis" unicode="&#xa8;" horiz-adv-x="130" 
d="M118 609v103h20v-103h-20zM-8 609v103h20v-103h-20z" />
    <glyph glyph-name="copyright" unicode="&#xa9;" horiz-adv-x="800" 
d="M769 357q0 -153 -108 -261t-261 -108t-261 108t-108 261t108 261t261 108t261 -108t108 -261zM51 357q0 -146 102 -248.5t247 -102.5t247 102.5t102 248.5t-102 248.5t-247 102.5t-247 -102.5t-102 -248.5zM598 438h-20q-11 67 -56 101.5t-114 34.5q-97 0 -150 -58
t-53 -159q0 -96 55 -157t148 -61q72 0 115.5 36.5t54.5 105.5h20q-10 -73 -60 -116.5t-130 -43.5q-101 0 -162 65.5t-61 170.5q0 109 59.5 172t163.5 63q77 0 128.5 -40.5t61.5 -113.5z" />
    <glyph glyph-name="ordfeminine" unicode="&#xaa;" horiz-adv-x="240" 
d="M210 630v-198q0 -15 3 -20t12 -5q4 0 14 2v-18q-14 -2 -19 -2q-30 0 -30 55h-2q-4 -29 -26.5 -45.5t-56.5 -16.5q-90 0 -90 90q0 70 81 86q44 8 68 14q15 5 21 15t8 34q-4 34 -16 47q-16 22 -53 22q-76 0 -76 -77h-20v14q0 31 25 56t71 25q35 0 60.5 -21t25.5 -57z
M190 504v66h-2q-6 -14 -83 -29q-70 -12 -70 -70q0 -34 20 -52.5t51 -18.5t57.5 25t26.5 79z" />
    <glyph glyph-name="guillemotleft" unicode="&#xab;" horiz-adv-x="315" 
d="M256 131l-98 131v20l98 131v-29l-84 -112l84 -112v-29zM157 131l-98 131v20l98 131v-29l-84 -112l84 -112v-29z" />
    <glyph glyph-name="logicalnot" unicode="&#xac;" horiz-adv-x="600" 
d="M533 108v233h-486v18h506v-251h-20z" />
    <glyph glyph-name="uni00AD" unicode="&#xad;" horiz-adv-x="296" 
d="M231 263h-166v18h166v-18z" />
    <glyph glyph-name="registered" unicode="&#xae;" horiz-adv-x="800" 
d="M769 357q0 -153 -108 -261t-261 -108t-261 108t-108 261t108 261t261 108t261 -108t108 -261zM51 357q0 -146 102 -248.5t247 -102.5t247 102.5t102 248.5t-102 248.5t-247 102.5t-247 -102.5t-102 -248.5zM254 136v442h175q135 0 135 -122q0 -99 -112 -116l132 -204h-26
l-132 204h-152v-204h-20zM274 560v-202h149q121 0 121 99q0 57 -32.5 80t-77.5 23h-160z" />
    <glyph glyph-name="macron" unicode="&#xaf;" horiz-adv-x="130" 
d="M-31 669h192v-18h-192v18z" />
    <glyph glyph-name="degree" unicode="&#xb0;" horiz-adv-x="400" 
d="M57 565q0 60 41.5 101.5t101.5 41.5t101.5 -41.5t41.5 -101.5t-41.5 -101.5t-101.5 -41.5t-101.5 41.5t-41.5 101.5zM323 565q0 51 -36 87t-87 36t-87 -36t-36 -87t36 -87t87 -36t87 36t36 87z" />
    <glyph glyph-name="plusminus" unicode="&#xb1;" horiz-adv-x="600" 
d="M290 86v201h-243v18h243v201h20v-201h243v-18h-243v-201h-20zM553 0h-506v18h506v-18z" />
    <glyph glyph-name="twosuperior" unicode="&#xb2;" horiz-adv-x="333" 
d="M70 696h-18q0 62 32.5 97.5t87.5 35.5q50 0 81 -33t31 -86q0 -34 -15 -62.5t-38 -46.5l-50.5 -38l-52 -38t-42.5 -47t-21 -64h218v-17h-237q0 42 16.5 75.5t40.5 53.5t53 41l53 38.5t40.5 44t16.5 59.5q0 47 -26 75t-68 28q-48 0 -75 -31t-27 -85z" />
    <glyph glyph-name="threesuperior" unicode="&#xb3;" horiz-adv-x="333" 
d="M141 613v17h24q39 0 66.5 23.5t27.5 64.5q0 43 -23.5 68.5t-65.5 25.5q-95 0 -102 -105h-18q2 55 33 88.5t87 33.5q49 0 78 -30t29 -81q0 -34 -18.5 -59t-51.5 -36q40 -8 62.5 -37.5t22.5 -71.5q0 -59 -35.5 -92.5t-91.5 -33.5q-58 0 -91 33.5t-33 97.5h18
q0 -57 28 -85.5t78 -28.5q48 0 78.5 28.5t30.5 80.5q0 44 -28.5 71.5t-80.5 27.5h-24z" />
    <glyph glyph-name="acute" unicode="&#xb4;" horiz-adv-x="130" 
d="M28 591l83 139h20l-83 -139h-20z" />
    <glyph glyph-name="mu" unicode="&#xb5;" horiz-adv-x="389" 
d="M338 516v-516h-20v93h-2q-7 -38 -44.5 -71.5t-90.5 -33.5q-82 0 -108 65h-2v-229h-20v692h20v-369q0 -79 30 -110t81 -31q16 0 32.5 4.5t35.5 17t33.5 32t24.5 52.5t10 75v329h20z" />
    <glyph glyph-name="paragraph" unicode="&#xb6;" horiz-adv-x="600" 
d="M262 -144v468q-81 0 -140 57.5t-59 136.5q0 96 57.5 146t161.5 50h195v-858h-20v840h-175v-840h-20zM262 342v354q-80 0 -129.5 -46.5t-49.5 -131.5q0 -72 53.5 -124t125.5 -52z" />
    <glyph glyph-name="periodcentered" unicode="&#xb7;" horiz-adv-x="240" 
d="M83 344q0 15 11 26t26 11t26 -11t11 -26t-11 -26t-26 -11t-26 11t-11 26z" />
    <glyph glyph-name="cedilla" unicode="&#xb8;" horiz-adv-x="130" 
d="M10 -79l56 79h20l-41 -58l2 -2q18 7 35 7q30 0 49.5 -16t19.5 -45q0 -31 -26.5 -52t-67.5 -21q-47 0 -78 18l8 17q32 -17 71 -17q32 0 52.5 15t20.5 40q0 43 -53 43q-30 0 -59 -16z" />
    <glyph glyph-name="onesuperior" unicode="&#xb9;" horiz-adv-x="333" 
d="M178 397v402h-2q-15 -27 -46.5 -48t-63.5 -26v18q66 11 106 77h25v-423h-19z" />
    <glyph glyph-name="ordmasculine" unicode="&#xba;" horiz-adv-x="313" 
d="M157 382q-113 0 -113 163t113 163q53 0 82.5 -36.5t29.5 -126.5t-29.5 -126.5t-82.5 -36.5zM64 545q0 -145 93 -145q92 0 92 145t-92 145q-93 0 -93 -145z" />
    <glyph glyph-name="guillemotright" unicode="&#xbb;" horiz-adv-x="315" 
d="M158 155l84 117l-84 117v27h2l96 -134v-20l-96 -134h-2v27zM59 155l84 117l-84 117v27h2l96 -134v-20l-96 -134h-2v27z" />
    <glyph glyph-name="onequarter" unicode="&#xbc;" horiz-adv-x="721" 
d="M96 -30l479 756h20l-479 -756h-20zM152 274v402h-2q-15 -27 -46.5 -48t-63.5 -26v18q66 11 106 77h25v-423h-19zM579 0v103h-198v17l199 303h17v-303h63v-17h-63v-103h-18zM579 391l-179 -271h179v271z" />
    <glyph glyph-name="onehalf" unicode="&#xbd;" horiz-adv-x="721" 
d="M60 -30l479 756h20l-479 -756h-20zM152 274v402h-2q-15 -27 -46.5 -48t-63.5 -26v18q66 11 106 77h25v-423h-19zM445 299h-18q0 62 32.5 97.5t87.5 35.5q50 0 81 -33t31 -86q0 -34 -15 -62.5t-38 -46.5l-50.5 -38l-52 -38t-42.5 -47t-21 -64h218v-17h-237q0 42 16.5 75.5
t40.5 53.5t53 41l53 38.5t40.5 44t16.5 59.5q0 47 -26 75t-68 28q-48 0 -75 -31t-27 -85z" />
    <glyph glyph-name="threequarters" unicode="&#xbe;" horiz-adv-x="721" 
d="M146 -30l479 756h20l-479 -756h-20zM152 490v17h24q39 0 66.5 23.5t27.5 64.5q0 43 -23.5 68.5t-65.5 25.5q-95 0 -102 -105h-18q2 55 33 88.5t87 33.5q49 0 78 -30t29 -81q0 -34 -18.5 -59t-51.5 -36q40 -8 62.5 -37.5t22.5 -71.5q0 -59 -35.5 -92.5t-91.5 -33.5
q-58 0 -91 33.5t-33 97.5h18q0 -57 28 -85.5t78 -28.5q48 0 78.5 28.5t30.5 80.5q0 44 -28.5 71.5t-80.5 27.5h-24zM599 0v103h-198v17l199 303h17v-303h63v-17h-63v-103h-18zM599 391l-179 -271h179v271z" />
    <glyph glyph-name="questiondown" unicode="&#xbf;" 
d="M225 550v-98h-20v98h20zM225 368v-67q0 -39 -18 -72.5t-43.5 -58.5l-51 -50.5t-43.5 -62t-18 -79.5q0 -65 43 -100.5t105 -35.5t109.5 44.5t47.5 134.5v23h20v-22q0 -94 -51.5 -146t-125.5 -52q-78 0 -123 43.5t-45 111.5q0 51 20.5 90.5t77.5 94.5q45 43 60.5 72.5
t15.5 75.5v56h20z" />
    <glyph glyph-name="Agrave" unicode="&#xc0;" horiz-adv-x="481" 
d="M2 0l227 714h24l226 -714h-20l-73 232h-291l-73 -232h-20zM101 250h280l-139 446h-2zM231 765l-83 139h20l83 -139h-20z" />
    <glyph glyph-name="Aacute" unicode="&#xc1;" horiz-adv-x="481" 
d="M2 0l227 714h24l226 -714h-20l-73 232h-291l-73 -232h-20zM101 250h280l-139 446h-2zM232 765l83 139h20l-83 -139h-20z" />
    <glyph glyph-name="Acircumflex" unicode="&#xc2;" horiz-adv-x="481" 
d="M2 0l227 714h24l226 -714h-20l-73 232h-291l-73 -232h-20zM101 250h280l-139 446h-2zM139 765l88 139h28l88 -139h-20l-82 125l-82 -125h-20z" />
    <glyph glyph-name="Atilde" unicode="&#xc3;" horiz-adv-x="481" 
d="M2 0l227 714h24l226 -714h-20l-73 232h-291l-73 -232h-20zM101 250h280l-139 446h-2zM149 796h-20q3 28 17.5 51.5t41.5 23.5q24 0 54.5 -28.5t47.5 -28.5q34 0 41 59h20q-13 -77 -61 -77q-22 0 -57 28.5t-46 28.5q-26 0 -38 -57z" />
    <glyph glyph-name="Adieresis" unicode="&#xc4;" horiz-adv-x="481" 
d="M2 0l227 714h24l226 -714h-20l-73 232h-291l-73 -232h-20zM101 250h280l-139 446h-2zM294 783v103h20v-103h-20zM168 783v103h20v-103h-20z" />
    <glyph glyph-name="Aring" unicode="&#xc5;" horiz-adv-x="481" 
d="M2 0l227 714h24l226 -714h-20l-73 232h-291l-73 -232h-20zM101 250h280l-139 446h-2zM156 826q0 35 25 60t60 25t60 -25t25 -60q0 -36 -25 -60.5t-60 -24.5q-36 0 -60.5 24.5t-24.5 60.5zM306 826q0 29 -19 48t-46 19t-46 -19t-19 -48t19 -48t46 -19t46 19t19 48z" />
    <glyph glyph-name="AE" unicode="&#xc6;" horiz-adv-x="685" 
d="M-7 0l321 714h348v-18h-310v-314h289v-18h-289v-346h325v-18h-345v232h-215l-104 -232h-20zM125 250h207v446h-7z" />
    <glyph glyph-name="Ccedilla" unicode="&#xc7;" horiz-adv-x="500" 
d="M203 -79l48 68q-62 4 -106 37t-66 88t-31.5 114t-9.5 129q0 57 5.5 106.5t21 99t40.5 84.5t66 57t95 22t94 -21t61 -55t31.5 -68.5t12.5 -71.5h-20q-4 87 -49 142.5t-129 55.5q-209 0 -209 -351t209 -351q42 0 75.5 17.5t53 42t33 58.5t19 59.5t8.5 53.5h20
q-5 -48 -18 -89t-36 -78t-62 -59t-90 -23l-32 -46l2 -2q18 7 35 7q30 0 49.5 -16t19.5 -45q0 -31 -26.5 -52t-67.5 -21q-47 0 -78 18l8 17q32 -17 71 -17q32 0 52.5 15t20.5 40q0 43 -53 43q-30 0 -59 -16z" />
    <glyph glyph-name="Egrave" unicode="&#xc8;" 
d="M58 0v714h325v-18h-305v-314h283v-18h-283v-346h313v-18h-333zM217 765l-83 139h20l83 -139h-20z" />
    <glyph glyph-name="Eacute" unicode="&#xc9;" 
d="M58 0v714h325v-18h-305v-314h283v-18h-283v-346h313v-18h-333zM208 765l83 139h20l-83 -139h-20z" />
    <glyph glyph-name="Ecircumflex" unicode="&#xca;" 
d="M58 0v714h325v-18h-305v-314h283v-18h-283v-346h313v-18h-333zM120 765l88 139h28l88 -139h-20l-82 125l-82 -125h-20z" />
    <glyph glyph-name="Edieresis" unicode="&#xcb;" 
d="M58 0v714h325v-18h-305v-314h283v-18h-283v-346h313v-18h-333zM275 783v103h20v-103h-20zM149 783v103h20v-103h-20z" />
    <glyph glyph-name="Igrave" unicode="&#xcc;" horiz-adv-x="148" 
d="M64 0v714h20v-714h-20zM66 765l-83 139h20l83 -139h-20z" />
    <glyph glyph-name="Iacute" unicode="&#xcd;" horiz-adv-x="148" 
d="M64 0v714h20v-714h-20zM63 765l83 139h20l-83 -139h-20z" />
    <glyph glyph-name="Icircumflex" unicode="&#xce;" horiz-adv-x="148" 
d="M64 0v714h20v-714h-20zM-28 765l88 139h28l88 -139h-20l-82 125l-82 -125h-20z" />
    <glyph glyph-name="Idieresis" unicode="&#xcf;" horiz-adv-x="148" 
d="M64 0v714h20v-714h-20zM127 783v103h20v-103h-20zM1 783v103h20v-103h-20z" />
    <glyph glyph-name="Eth" unicode="&#xd0;" horiz-adv-x="500" 
d="M58 0v364h-58v18h58v332h172q68 0 115 -26.5t72 -76t35 -107.5t10 -135q0 -107 -19.5 -181t-56.5 -114t-82 -57t-104 -17h-142zM78 364v-346h133q231 0 231 351q0 168 -49.5 247.5t-170.5 79.5h-144v-314h178v-18h-178z" />
    <glyph glyph-name="Ntilde" unicode="&#xd1;" horiz-adv-x="500" 
d="M53 0v714h33l339 -682h2v682h20v-714h-29l-343 696h-2v-696h-20zM158 796h-20q3 28 17.5 51.5t41.5 23.5q24 0 54.5 -28.5t47.5 -28.5q34 0 41 59h20q-13 -77 -61 -77q-22 0 -57 28.5t-46 28.5q-26 0 -38 -57z" />
    <glyph glyph-name="Ograve" unicode="&#xd2;" horiz-adv-x="537" 
d="M38 357q0 75 11 137t35.5 116.5t71.5 85t113 30.5q230 0 230 -369q0 -75 -11 -137t-35.5 -116.5t-71.5 -85t-113 -30.5q-230 0 -230 369zM58 357q0 -351 210 -351q60 0 102.5 28.5t65.5 80t33 110.5t10 132q0 351 -210 351q-60 0 -102.5 -28.5t-65.5 -80t-33 -110.5
t-10 -132zM263 765l-83 139h20l83 -139h-20z" />
    <glyph glyph-name="Oacute" unicode="&#xd3;" horiz-adv-x="537" 
d="M38 357q0 75 11 137t35.5 116.5t71.5 85t113 30.5q230 0 230 -369q0 -75 -11 -137t-35.5 -116.5t-71.5 -85t-113 -30.5q-230 0 -230 369zM58 357q0 -351 210 -351q60 0 102.5 28.5t65.5 80t33 110.5t10 132q0 351 -210 351q-60 0 -102.5 -28.5t-65.5 -80t-33 -110.5
t-10 -132zM254 765l83 139h20l-83 -139h-20z" />
    <glyph glyph-name="Ocircumflex" unicode="&#xd4;" horiz-adv-x="537" 
d="M38 357q0 75 11 137t35.5 116.5t71.5 85t113 30.5q230 0 230 -369q0 -75 -11 -137t-35.5 -116.5t-71.5 -85t-113 -30.5q-230 0 -230 369zM58 357q0 -351 210 -351q60 0 102.5 28.5t65.5 80t33 110.5t10 132q0 351 -210 351q-60 0 -102.5 -28.5t-65.5 -80t-33 -110.5
t-10 -132zM166 765l88 139h28l88 -139h-20l-82 125l-82 -125h-20z" />
    <glyph glyph-name="Otilde" unicode="&#xd5;" horiz-adv-x="537" 
d="M38 357q0 75 11 137t35.5 116.5t71.5 85t113 30.5q230 0 230 -369q0 -75 -11 -137t-35.5 -116.5t-71.5 -85t-113 -30.5q-230 0 -230 369zM58 357q0 -351 210 -351q60 0 102.5 28.5t65.5 80t33 110.5t10 132q0 351 -210 351q-60 0 -102.5 -28.5t-65.5 -80t-33 -110.5
t-10 -132zM176 796h-20q3 28 17.5 51.5t41.5 23.5q24 0 54.5 -28.5t47.5 -28.5q34 0 41 59h20q-13 -77 -61 -77q-22 0 -57 28.5t-46 28.5q-26 0 -38 -57z" />
    <glyph glyph-name="Odieresis" unicode="&#xd6;" horiz-adv-x="537" 
d="M38 357q0 75 11 137t35.5 116.5t71.5 85t113 30.5q230 0 230 -369q0 -75 -11 -137t-35.5 -116.5t-71.5 -85t-113 -30.5q-230 0 -230 369zM58 357q0 -351 210 -351q60 0 102.5 28.5t65.5 80t33 110.5t10 132q0 351 -210 351q-60 0 -102.5 -28.5t-65.5 -80t-33 -110.5
t-10 -132zM321 783v103h20v-103h-20zM195 783v103h20v-103h-20z" />
    <glyph glyph-name="multiply" unicode="&#xd7;" horiz-adv-x="600" 
d="M79 43l210 209l-210 210l11 12l210 -210l210 210l11 -12l-210 -210l210 -209l-12 -11l-209 209l-209 -209z" />
    <glyph glyph-name="Oslash" unicode="&#xd8;" horiz-adv-x="537" 
d="M94 -27l30 72q-86 88 -86 312q0 56 6 106t22 99.5t41 84.5t65.5 57t93.5 22q79 0 127 -42l27 65l18 -7l-30 -71q91 -88 91 -314q0 -27 -1 -50t-6 -63t-13.5 -71.5t-26 -68t-41.5 -60.5t-61 -40t-84 -16q-75 0 -126 43l-28 -66zM132 65l254 603q-46 40 -119 40
q-209 0 -209 -351q0 -207 74 -292zM401 653l-253 -603q46 -44 119 -44q212 0 212 351q0 213 -78 296z" />
    <glyph glyph-name="Ugrave" unicode="&#xd9;" horiz-adv-x="481" 
d="M432 714v-521q0 -99 -49.5 -152t-142.5 -53q-91 0 -141 53t-50 152v521h20v-518q0 -190 171 -190q172 0 172 190v518h20zM236 765l-83 139h20l83 -139h-20z" />
    <glyph glyph-name="Uacute" unicode="&#xda;" horiz-adv-x="481" 
d="M432 714v-521q0 -99 -49.5 -152t-142.5 -53q-91 0 -141 53t-50 152v521h20v-518q0 -190 171 -190q172 0 172 190v518h20zM227 765l83 139h20l-83 -139h-20z" />
    <glyph glyph-name="Ucircumflex" unicode="&#xdb;" horiz-adv-x="481" 
d="M432 714v-521q0 -99 -49.5 -152t-142.5 -53q-91 0 -141 53t-50 152v521h20v-518q0 -190 171 -190q172 0 172 190v518h20zM139 765l88 139h28l88 -139h-20l-82 125l-82 -125h-20z" />
    <glyph glyph-name="Udieresis" unicode="&#xdc;" horiz-adv-x="481" 
d="M432 714v-521q0 -99 -49.5 -152t-142.5 -53q-91 0 -141 53t-50 152v521h20v-518q0 -190 171 -190q172 0 172 190v518h20zM294 783v103h20v-103h-20zM168 783v103h20v-103h-20z" />
    <glyph glyph-name="Yacute" unicode="&#xdd;" horiz-adv-x="426" 
d="M203 0v301l-200 413h21l189 -392l190 392h20l-200 -413v-301h-20zM199 765l83 139h20l-83 -139h-20z" />
    <glyph glyph-name="Thorn" unicode="&#xde;" horiz-adv-x="463" 
d="M58 0v714h20v-144h176q75 0 123 -51t48 -139q0 -100 -57.5 -149t-137.5 -49h-152v-182h-20zM78 552v-352h154q31 0 59.5 9t55 28.5t42.5 56.5t16 87q0 76 -40.5 123.5t-116.5 47.5h-170z" />
    <glyph glyph-name="germandbls" unicode="&#xdf;" 
d="M51 0v551q0 71 37.5 117t109.5 46q68 0 107.5 -40t39.5 -116q0 -53 -25 -91.5t-72 -54.5v-2q134 -27 134 -191q0 -98 -49.5 -161.5t-139.5 -63.5q-28 0 -39 3v18q18 -3 43 -3q78 0 121.5 58t43.5 149q0 96 -47.5 138.5t-138.5 42.5h-15v18h12q79 0 115.5 39t36.5 103
q0 65 -33.5 100.5t-91.5 35.5q-68 0 -98.5 -42t-30.5 -105v-549h-20z" />
    <glyph glyph-name="agrave" unicode="&#xe0;" horiz-adv-x="370" 
d="M29 135q0 114 123 138q79 16 105 26q22 7 31 25.5t9 61.5q0 58 -20 85q-29 39 -87 39q-121 0 -121 -137h-20v17q0 57 35.5 97.5t105.5 40.5q55 0 91 -31.5t36 -92.5v-339q0 -49 30 -47q6 0 20 2v-18q-10 -2 -14 -2h-10q-23 0 -34.5 13.5t-11.5 53.5v20h-2
q-18 -46 -52.5 -72.5t-82.5 -26.5q-62 0 -96.5 39t-34.5 108zM297 189v117q-21 -25 -135 -47q-61 -12 -87 -42t-26 -84q0 -63 31.5 -95t82.5 -32q49 0 91.5 45.5t42.5 137.5zM186 591l-83 139h20l83 -139h-20z" />
    <glyph glyph-name="aacute" unicode="&#xe1;" horiz-adv-x="370" 
d="M29 135q0 114 123 138q79 16 105 26q22 7 31 25.5t9 61.5q0 58 -20 85q-29 39 -87 39q-121 0 -121 -137h-20v17q0 57 35.5 97.5t105.5 40.5q55 0 91 -31.5t36 -92.5v-339q0 -49 30 -47q6 0 20 2v-18q-10 -2 -14 -2h-10q-23 0 -34.5 13.5t-11.5 53.5v20h-2
q-18 -46 -52.5 -72.5t-82.5 -26.5q-62 0 -96.5 39t-34.5 108zM297 189v117q-21 -25 -135 -47q-61 -12 -87 -42t-26 -84q0 -63 31.5 -95t82.5 -32q49 0 91.5 45.5t42.5 137.5zM169 591l83 139h20l-83 -139h-20z" />
    <glyph glyph-name="acircumflex" unicode="&#xe2;" horiz-adv-x="370" 
d="M29 135q0 114 123 138q79 16 105 26q22 7 31 25.5t9 61.5q0 58 -20 85q-29 39 -87 39q-121 0 -121 -137h-20v17q0 57 35.5 97.5t105.5 40.5q55 0 91 -31.5t36 -92.5v-339q0 -49 30 -47q6 0 20 2v-18q-10 -2 -14 -2h-10q-23 0 -34.5 13.5t-11.5 53.5v20h-2
q-18 -46 -52.5 -72.5t-82.5 -26.5q-62 0 -96.5 39t-34.5 108zM297 189v117q-21 -25 -135 -47q-61 -12 -87 -42t-26 -84q0 -63 31.5 -95t82.5 -32q49 0 91.5 45.5t42.5 137.5zM85 591l88 139h28l88 -139h-20l-82 125l-82 -125h-20z" />
    <glyph glyph-name="atilde" unicode="&#xe3;" horiz-adv-x="370" 
d="M29 135q0 114 123 138q79 16 105 26q22 7 31 25.5t9 61.5q0 58 -20 85q-29 39 -87 39q-121 0 -121 -137h-20v17q0 57 35.5 97.5t105.5 40.5q55 0 91 -31.5t36 -92.5v-339q0 -49 30 -47q6 0 20 2v-18q-10 -2 -14 -2h-10q-23 0 -34.5 13.5t-11.5 53.5v20h-2
q-18 -46 -52.5 -72.5t-82.5 -26.5q-62 0 -96.5 39t-34.5 108zM297 189v117q-21 -25 -135 -47q-61 -12 -87 -42t-26 -84q0 -63 31.5 -95t82.5 -32q49 0 91.5 45.5t42.5 137.5zM95 622h-20q3 28 17.5 51.5t41.5 23.5q24 0 54.5 -28.5t47.5 -28.5q34 0 41 59h20
q-13 -77 -61 -77q-22 0 -57 28.5t-46 28.5q-26 0 -38 -57z" />
    <glyph glyph-name="adieresis" unicode="&#xe4;" horiz-adv-x="370" 
d="M29 135q0 114 123 138q79 16 105 26q22 7 31 25.5t9 61.5q0 58 -20 85q-29 39 -87 39q-121 0 -121 -137h-20v17q0 57 35.5 97.5t105.5 40.5q55 0 91 -31.5t36 -92.5v-339q0 -49 30 -47q6 0 20 2v-18q-10 -2 -14 -2h-10q-23 0 -34.5 13.5t-11.5 53.5v20h-2
q-18 -46 -52.5 -72.5t-82.5 -26.5q-62 0 -96.5 39t-34.5 108zM297 189v117q-21 -25 -135 -47q-61 -12 -87 -42t-26 -84q0 -63 31.5 -95t82.5 -32q49 0 91.5 45.5t42.5 137.5zM240 609v103h20v-103h-20zM114 609v103h20v-103h-20z" />
    <glyph glyph-name="aring" unicode="&#xe5;" horiz-adv-x="370" 
d="M29 135q0 114 123 138q79 16 105 26q22 7 31 25.5t9 61.5q0 58 -20 85q-29 39 -87 39q-121 0 -121 -137h-20v17q0 57 35.5 97.5t105.5 40.5q55 0 91 -31.5t36 -92.5v-339q0 -49 30 -47q6 0 20 2v-18q-10 -2 -14 -2h-10q-23 0 -34.5 13.5t-11.5 53.5v20h-2
q-18 -46 -52.5 -72.5t-82.5 -26.5q-62 0 -96.5 39t-34.5 108zM297 189v117q-21 -25 -135 -47q-61 -12 -87 -42t-26 -84q0 -63 31.5 -95t82.5 -32q49 0 91.5 45.5t42.5 137.5zM101 676q0 35 25 60t60 25t60 -25t25 -60q0 -36 -25 -60.5t-60 -24.5q-36 0 -60.5 24.5
t-24.5 60.5zM251 676q0 29 -19 48t-46 19t-46 -19t-19 -48t19 -48t46 -19t46 19t19 48z" />
    <glyph glyph-name="ae" unicode="&#xe6;" horiz-adv-x="593" 
d="M29 134q0 63 29 94q32 34 159 61q45 10 56 23t11 58q0 51 -6 71t-23 41q-25 28 -75 28q-60 0 -88 -37t-28 -94v-5h-20v6q0 71 36.5 109.5t100.5 38.5q47 0 80 -26t35 -68h2q9 31 40 62.5t80 31.5q73 0 109.5 -64t36.5 -176v-19h-264v-69q0 -32 4.5 -61t15.5 -61.5
t35.5 -52t59.5 -19.5q63 0 91.5 51.5t31.5 123.5h20q-3 -82 -36.5 -137.5t-107.5 -55.5q-43 0 -72 24.5t-39 50t-13 53.5h-2q-9 -57 -42.5 -92.5t-91.5 -35.5q-61 0 -93 42t-32 104zM300 287h244q0 223 -126 223q-65 0 -99 -75q-19 -45 -19 -148zM280 189v108h-2
q-10 -16 -100 -36q-44 -9 -65.5 -17.5t-38.5 -27.5q-25 -25 -25 -82q0 -55 26 -91.5t78 -36.5q38 0 64.5 17.5t39 46.5t18 58t5.5 61z" />
    <glyph glyph-name="ccedilla" unicode="&#xe7;" horiz-adv-x="370" 
d="M137 -79l48 68q-77 7 -112.5 77t-35.5 207q0 255 165 255q64 0 105 -46.5t41 -108.5h-20q-2 56 -35.5 96.5t-90.5 40.5q-145 0 -145 -252t145 -252q45 0 76 29t42 63t13 70h20q-4 -77 -44.5 -128t-104.5 -52l-32 -46l2 -2q18 7 35 7q30 0 49.5 -16t19.5 -45
q0 -31 -26.5 -52t-67.5 -21q-47 0 -78 18l8 17q32 -17 71 -17q32 0 52.5 15t20.5 40q0 43 -53 43q-30 0 -59 -16z" />
    <glyph glyph-name="egrave" unicode="&#xe8;" horiz-adv-x="389" 
d="M357 269h-300q0 -126 33 -194.5t112 -68.5q45 0 76 29t42 63t13 70h20q-4 -78 -45 -129t-106 -51q-86 0 -125.5 70.5t-39.5 214.5q0 255 165 255q57 0 93 -32.5t49 -80t13 -110.5v-36zM57 287h280v35q0 46 -9.5 85t-41.5 71t-84 32q-139 0 -145 -223zM199 591l-83 139h20
l83 -139h-20z" />
    <glyph glyph-name="eacute" unicode="&#xe9;" horiz-adv-x="389" 
d="M357 269h-300q0 -126 33 -194.5t112 -68.5q45 0 76 29t42 63t13 70h20q-4 -78 -45 -129t-106 -51q-86 0 -125.5 70.5t-39.5 214.5q0 255 165 255q57 0 93 -32.5t49 -80t13 -110.5v-36zM57 287h280v35q0 46 -9.5 85t-41.5 71t-84 32q-139 0 -145 -223zM182 591l83 139h20
l-83 -139h-20z" />
    <glyph glyph-name="ecircumflex" unicode="&#xea;" horiz-adv-x="389" 
d="M357 269h-300q0 -126 33 -194.5t112 -68.5q45 0 76 29t42 63t13 70h20q-4 -78 -45 -129t-106 -51q-86 0 -125.5 70.5t-39.5 214.5q0 255 165 255q57 0 93 -32.5t49 -80t13 -110.5v-36zM57 287h280v35q0 46 -9.5 85t-41.5 71t-84 32q-139 0 -145 -223zM98 591l88 139h28
l88 -139h-20l-82 125l-82 -125h-20z" />
    <glyph glyph-name="edieresis" unicode="&#xeb;" horiz-adv-x="389" 
d="M357 269h-300q0 -126 33 -194.5t112 -68.5q45 0 76 29t42 63t13 70h20q-4 -78 -45 -129t-106 -51q-86 0 -125.5 70.5t-39.5 214.5q0 255 165 255q57 0 93 -32.5t49 -80t13 -110.5v-36zM57 287h280v35q0 46 -9.5 85t-41.5 71t-84 32q-139 0 -145 -223zM253 609v103h20
v-103h-20zM127 609v103h20v-103h-20z" />
    <glyph glyph-name="igrave" unicode="&#xec;" horiz-adv-x="130" 
d="M55 0v516h20v-516h-20zM60 591l-83 139h20l83 -139h-20z" />
    <glyph glyph-name="iacute" unicode="&#xed;" horiz-adv-x="130" 
d="M55 0v516h20v-516h-20zM51 591l83 139h20l-83 -139h-20z" />
    <glyph glyph-name="icircumflex" unicode="&#xee;" horiz-adv-x="130" 
d="M55 0v516h20v-516h-20zM-37 591l88 139h28l88 -139h-20l-82 125l-82 -125h-20z" />
    <glyph glyph-name="idieresis" unicode="&#xef;" horiz-adv-x="130" 
d="M55 0v516h20v-516h-20zM118 609v103h20v-103h-20zM-8 609v103h20v-103h-20z" />
    <glyph glyph-name="eth" unicode="&#xf0;" 
d="M132 607l-13 15l72 48q-29 28 -68 52l19 13q39 -27 67 -53l70 47l14 -15l-69 -46q80 -80 113 -180.5t33 -229.5q0 -270 -166 -270q-167 0 -167 270t167 270q65 0 109 -44l2 2q-33 98 -109 170zM57 258q0 -252 147 -252q77 0 111.5 62t34.5 190q0 129 -33.5 190.5
t-112.5 61.5q-147 0 -147 -252z" />
    <glyph glyph-name="ntilde" unicode="&#xf1;" horiz-adv-x="389" 
d="M51 0v516h20v-93h2q7 38 44 71.5t88 33.5q133 0 133 -157v-371h-20v369q0 79 -30.5 110t-82.5 31q-20 0 -40.5 -8t-43 -26.5t-36.5 -56.5t-14 -90v-329h-20zM103 622h-20q3 28 17.5 51.5t41.5 23.5q24 0 54.5 -28.5t47.5 -28.5q34 0 41 59h20q-13 -77 -61 -77
q-22 0 -57 28.5t-46 28.5q-26 0 -38 -57z" />
    <glyph glyph-name="ograve" unicode="&#xf2;" 
d="M204 -12q-167 0 -167 270t167 270q166 0 166 -270t-166 -270zM57 258q0 -252 147 -252q77 0 111.5 62t34.5 190t-34.5 190t-111.5 62q-147 0 -147 -252zM203 591l-83 139h20l83 -139h-20z" />
    <glyph glyph-name="oacute" unicode="&#xf3;" 
d="M204 -12q-167 0 -167 270t167 270q166 0 166 -270t-166 -270zM57 258q0 -252 147 -252q77 0 111.5 62t34.5 190t-34.5 190t-111.5 62q-147 0 -147 -252zM186 591l83 139h20l-83 -139h-20z" />
    <glyph glyph-name="ocircumflex" unicode="&#xf4;" 
d="M204 -12q-167 0 -167 270t167 270q166 0 166 -270t-166 -270zM57 258q0 -252 147 -252q77 0 111.5 62t34.5 190t-34.5 190t-111.5 62q-147 0 -147 -252zM102 591l88 139h28l88 -139h-20l-82 125l-82 -125h-20z" />
    <glyph glyph-name="otilde" unicode="&#xf5;" 
d="M204 -12q-167 0 -167 270t167 270q166 0 166 -270t-166 -270zM57 258q0 -252 147 -252q77 0 111.5 62t34.5 190t-34.5 190t-111.5 62q-147 0 -147 -252zM112 622h-20q3 28 17.5 51.5t41.5 23.5q24 0 54.5 -28.5t47.5 -28.5q34 0 41 59h20q-13 -77 -61 -77q-22 0 -57 28.5
t-46 28.5q-26 0 -38 -57z" />
    <glyph glyph-name="odieresis" unicode="&#xf6;" 
d="M204 -12q-167 0 -167 270t167 270q166 0 166 -270t-166 -270zM57 258q0 -252 147 -252q77 0 111.5 62t34.5 190t-34.5 190t-111.5 62q-147 0 -147 -252zM257 609v103h20v-103h-20zM131 609v103h20v-103h-20z" />
    <glyph glyph-name="divide" unicode="&#xf7;" horiz-adv-x="600" 
d="M263 469q0 15 11 26t26 11t26 -11t11 -26t-11 -26t-26 -11t-26 11t-11 26zM553 244h-506v18h506v-18zM263 37q0 15 11 26t26 11t26 -11t11 -26t-11 -26t-26 -11t-26 11t-11 26z" />
    <glyph glyph-name="oslash" unicode="&#xf8;" 
d="M73 -43l29 71q-65 62 -65 230q0 270 167 270q53 0 89 -27l26 65l17 -7l-29 -71q63 -60 63 -230q0 -270 -166 -270q-53 0 -88 29l-27 -67zM110 48l176 435q-35 27 -82 27q-147 0 -147 -252q0 -150 53 -210zM300 470l-177 -435q32 -29 81 -29q77 0 111.5 62t34.5 190
q0 154 -50 212z" />
    <glyph glyph-name="ugrave" unicode="&#xf9;" horiz-adv-x="389" 
d="M338 516v-516h-20v93h-2q-7 -38 -44 -71.5t-88 -33.5q-133 0 -133 157v371h20v-369q0 -80 30.5 -110.5t82.5 -30.5q19 0 39.5 8t43 26.5t37 56.5t14.5 90v329h20zM194 591l-83 139h20l83 -139h-20z" />
    <glyph glyph-name="uacute" unicode="&#xfa;" horiz-adv-x="389" 
d="M338 516v-516h-20v93h-2q-7 -38 -44 -71.5t-88 -33.5q-133 0 -133 157v371h20v-369q0 -80 30.5 -110.5t82.5 -30.5q19 0 39.5 8t43 26.5t37 56.5t14.5 90v329h20zM177 591l83 139h20l-83 -139h-20z" />
    <glyph glyph-name="ucircumflex" unicode="&#xfb;" horiz-adv-x="389" 
d="M338 516v-516h-20v93h-2q-7 -38 -44 -71.5t-88 -33.5q-133 0 -133 157v371h20v-369q0 -80 30.5 -110.5t82.5 -30.5q19 0 39.5 8t43 26.5t37 56.5t14.5 90v329h20zM93 591l88 139h28l88 -139h-20l-82 125l-82 -125h-20z" />
    <glyph glyph-name="udieresis" unicode="&#xfc;" horiz-adv-x="389" 
d="M338 516v-516h-20v93h-2q-7 -38 -44 -71.5t-88 -33.5q-133 0 -133 157v371h20v-369q0 -80 30.5 -110.5t82.5 -30.5q19 0 39.5 8t43 26.5t37 56.5t14.5 90v329h20zM248 609v103h20v-103h-20zM122 609v103h20v-103h-20z" />
    <glyph glyph-name="yacute" unicode="&#xfd;" horiz-adv-x="315" 
d="M153 -4l-151 520h20l140 -491l-1 1h2l131 490h19l-146 -537q-24 -93 -48.5 -124t-76.5 -31q-13 0 -27 2v18q16 -2 30 -2q34 0 56 19q26 26 52 135zM141 591l83 139h20l-83 -139h-20z" />
    <glyph glyph-name="thorn" unicode="&#xfe;" 
d="M51 -176v890h20v-309h3q33 123 134 123q77 0 119.5 -68t42.5 -207q0 -265 -160 -265q-53 0 -87 33t-49 83h-3v-280h-20zM71 258q0 -126 37 -189t102 -63q140 0 140 243q0 261 -144 261q-62 0 -98.5 -64t-36.5 -188z" />
    <glyph glyph-name="ydieresis" unicode="&#xff;" horiz-adv-x="315" 
d="M153 -4l-151 520h20l140 -491l-1 1h2l131 490h19l-146 -537q-24 -93 -48.5 -124t-76.5 -31q-13 0 -27 2v18q16 -2 30 -2q34 0 56 19q26 26 52 135zM212 609v103h20v-103h-20zM86 609v103h20v-103h-20z" />
    <glyph glyph-name="Amacron" unicode="&#x100;" horiz-adv-x="481" 
d="M2 0l227 714h24l226 -714h-20l-73 232h-291l-73 -232h-20zM101 250h280l-139 446h-2zM145 843h192v-18h-192v18z" />
    <glyph glyph-name="amacron" unicode="&#x101;" horiz-adv-x="370" 
d="M29 135q0 114 123 138q79 16 105 26q22 7 31 25.5t9 61.5q0 58 -20 85q-29 39 -87 39q-121 0 -121 -137h-20v17q0 57 35.5 97.5t105.5 40.5q55 0 91 -31.5t36 -92.5v-339q0 -49 30 -47q6 0 20 2v-18q-10 -2 -14 -2h-10q-23 0 -34.5 13.5t-11.5 53.5v20h-2
q-18 -46 -52.5 -72.5t-82.5 -26.5q-62 0 -96.5 39t-34.5 108zM297 189v117q-21 -25 -135 -47q-61 -12 -87 -42t-26 -84q0 -63 31.5 -95t82.5 -32q49 0 91.5 45.5t42.5 137.5zM91 669h192v-18h-192v18z" />
    <glyph glyph-name="Abreve" unicode="&#x102;" horiz-adv-x="481" 
d="M2 0l227 714h24l226 -714h-20l-73 232h-291l-73 -232h-20zM101 250h280l-139 446h-2zM134 890h20q12 -93 86 -93q41 0 63 29.5t25 63.5h20q-6 -50 -33 -80.5t-76 -30.5q-45 0 -74 30t-31 81z" />
    <glyph glyph-name="abreve" unicode="&#x103;" horiz-adv-x="370" 
d="M29 135q0 114 123 138q79 16 105 26q22 7 31 25.5t9 61.5q0 58 -20 85q-29 39 -87 39q-121 0 -121 -137h-20v17q0 57 35.5 97.5t105.5 40.5q55 0 91 -31.5t36 -92.5v-339q0 -49 30 -47q6 0 20 2v-18q-10 -2 -14 -2h-10q-23 0 -34.5 13.5t-11.5 53.5v20h-2
q-18 -46 -52.5 -72.5t-82.5 -26.5q-62 0 -96.5 39t-34.5 108zM297 189v117q-21 -25 -135 -47q-61 -12 -87 -42t-26 -84q0 -63 31.5 -95t82.5 -32q49 0 91.5 45.5t42.5 137.5zM80 716h20q12 -93 86 -93q41 0 63 29.5t25 63.5h20q-6 -50 -33 -80.5t-76 -30.5q-45 0 -74 30
t-31 81z" />
    <glyph glyph-name="Aogonek" unicode="&#x104;" horiz-adv-x="481" 
d="M2 0l227 714h24l226 -714q-50 -39 -71 -66t-21 -53q0 -23 16 -36.5t41 -13.5q29 0 59 21l11 -15q-30 -24 -70 -24q-36 0 -57 17.5t-21 48.5q0 60 93 121l-73 232h-291l-73 -232h-20zM381 250l-139 446h-2l-139 -446h280z" />
    <glyph glyph-name="aogonek" unicode="&#x105;" horiz-adv-x="370" 
d="M29 135q0 114 123 138q79 16 105 26q22 7 31 25.5t9 61.5q0 58 -20 85q-29 39 -87 39q-121 0 -121 -137h-20v17q0 57 35.5 97.5t105.5 40.5q55 0 91 -31.5t36 -92.5v-339q0 -49 30 -47q6 0 20 2v-18q-10 -2 -14 -2h-10h-8q-52 -38 -73.5 -65.5t-21.5 -53.5
q0 -23 16 -36.5t41 -13.5q29 0 59 21l11 -15q-30 -24 -70 -24q-36 0 -57 17.5t-21 48.5t23 62q25 31 76 64q-4 1 -8 7q-13 15 -13 55v20h-2q-18 -46 -52.5 -72.5t-82.5 -26.5q-62 0 -96.5 39t-34.5 108zM297 189v117q-21 -25 -135 -47q-61 -12 -87 -42t-26 -84
q0 -63 31.5 -95t82.5 -32q49 0 91.5 45.5t42.5 137.5z" />
    <glyph glyph-name="Cacute" unicode="&#x106;" horiz-adv-x="500" 
d="M266 -12q-54 0 -95 22t-66 57t-40.5 84.5t-21 99t-5.5 106.5t5.5 106.5t21 99t40.5 84.5t66 57t95 22t94 -21t61 -55t31.5 -68.5t12.5 -71.5h-20q-4 87 -49 142.5t-129 55.5q-209 0 -209 -351t209 -351q42 0 75.5 17.5t53 42t33 58.5t19 59.5t8.5 53.5h20q-5 -49 -18 -90
t-36.5 -78.5t-63.5 -59t-92 -21.5zM252 765l83 139h20l-83 -139h-20z" />
    <glyph glyph-name="cacute" unicode="&#x107;" horiz-adv-x="370" 
d="M348 373h-20q-2 56 -35.5 96.5t-90.5 40.5q-145 0 -145 -252t145 -252q45 0 76 29t42 63t13 70h20q-4 -78 -45 -129t-106 -51q-86 0 -125.5 70.5t-39.5 214.5q0 255 165 255q64 0 105 -46.5t41 -108.5zM183 591l83 139h20l-83 -139h-20z" />
    <glyph glyph-name="Ccircumflex" unicode="&#x108;" horiz-adv-x="500" 
d="M266 -12q-54 0 -95 22t-66 57t-40.5 84.5t-21 99t-5.5 106.5t5.5 106.5t21 99t40.5 84.5t66 57t95 22t94 -21t61 -55t31.5 -68.5t12.5 -71.5h-20q-4 87 -49 142.5t-129 55.5q-209 0 -209 -351t209 -351q42 0 75.5 17.5t53 42t33 58.5t19 59.5t8.5 53.5h20q-5 -49 -18 -90
t-36.5 -78.5t-63.5 -59t-92 -21.5zM164 765l88 139h28l88 -139h-20l-82 125l-82 -125h-20z" />
    <glyph glyph-name="ccircumflex" unicode="&#x109;" horiz-adv-x="370" 
d="M348 373h-20q-2 56 -35.5 96.5t-90.5 40.5q-145 0 -145 -252t145 -252q45 0 76 29t42 63t13 70h20q-4 -78 -45 -129t-106 -51q-86 0 -125.5 70.5t-39.5 214.5q0 255 165 255q64 0 105 -46.5t41 -108.5zM99 591l88 139h28l88 -139h-20l-82 125l-82 -125h-20z" />
    <glyph glyph-name="Cdotaccent" unicode="&#x10a;" horiz-adv-x="500" 
d="M266 -12q-54 0 -95 22t-66 57t-40.5 84.5t-21 99t-5.5 106.5t5.5 106.5t21 99t40.5 84.5t66 57t95 22t94 -21t61 -55t31.5 -68.5t12.5 -71.5h-20q-4 87 -49 142.5t-129 55.5q-209 0 -209 -351t209 -351q42 0 75.5 17.5t53 42t33 58.5t19 59.5t8.5 53.5h20q-5 -49 -18 -90
t-36.5 -78.5t-63.5 -59t-92 -21.5zM255 783v103h20v-103h-20z" />
    <glyph glyph-name="cdotaccent" unicode="&#x10b;" horiz-adv-x="370" 
d="M348 373h-20q-2 56 -35.5 96.5t-90.5 40.5q-145 0 -145 -252t145 -252q45 0 76 29t42 63t13 70h20q-4 -78 -45 -129t-106 -51q-86 0 -125.5 70.5t-39.5 214.5q0 255 165 255q64 0 105 -46.5t41 -108.5zM191 609v103h20v-103h-20z" />
    <glyph glyph-name="Ccaron" unicode="&#x10c;" horiz-adv-x="500" 
d="M266 -12q-54 0 -95 22t-66 57t-40.5 84.5t-21 99t-5.5 106.5t5.5 106.5t21 99t40.5 84.5t66 57t95 22t94 -21t61 -55t31.5 -68.5t12.5 -71.5h-20q-4 87 -49 142.5t-129 55.5q-209 0 -209 -351t209 -351q42 0 75.5 17.5t53 42t33 58.5t19 59.5t8.5 53.5h20q-5 -49 -18 -90
t-36.5 -78.5t-63.5 -59t-92 -21.5zM251 765l-88 139h20l82 -125l82 125h20l-88 -139h-28z" />
    <glyph glyph-name="ccaron" unicode="&#x10d;" horiz-adv-x="370" 
d="M348 373h-20q-2 56 -35.5 96.5t-90.5 40.5q-145 0 -145 -252t145 -252q45 0 76 29t42 63t13 70h20q-4 -78 -45 -129t-106 -51q-86 0 -125.5 70.5t-39.5 214.5q0 255 165 255q64 0 105 -46.5t41 -108.5zM188 591l-88 139h20l82 -125l82 125h20l-88 -139h-28z" />
    <glyph glyph-name="Dcaron" unicode="&#x10e;" horiz-adv-x="500" 
d="M58 0v714h172q68 0 115 -26.5t72 -76t35 -107.5t10 -135q0 -107 -19.5 -181t-56.5 -114t-82 -57t-104 -17h-142zM78 18h133q231 0 231 351q0 168 -49.5 247.5t-170.5 79.5h-144v-678zM203 765l-88 139h20l82 -125l82 125h20l-88 -139h-28z" />
    <glyph glyph-name="dcaron" unicode="&#x10f;" 
d="M336 0v111h-3q-33 -123 -134 -123q-77 0 -119.5 68t-42.5 207q0 265 160 265q93 0 136 -116h3v302h20v-714h-20zM336 258q0 126 -37 189t-102 63q-140 0 -140 -243q0 -261 144 -261q62 0 98.5 64t36.5 188zM403 575l28 139h22l-34 -139h-16z" />
    <glyph glyph-name="Dcroat" unicode="&#x110;" horiz-adv-x="500" 
d="M58 0v364h-58v18h58v332h172q68 0 115 -26.5t72 -76t35 -107.5t10 -135q0 -107 -19.5 -181t-56.5 -114t-82 -57t-104 -17h-142zM78 364v-346h133q231 0 231 351q0 168 -49.5 247.5t-170.5 79.5h-144v-314h178v-18h-178z" />
    <glyph glyph-name="dcroat" unicode="&#x111;" 
d="M336 0v111h-3q-33 -123 -134 -123q-77 0 -119.5 68t-42.5 207q0 265 160 265q93 0 136 -116h3v185h-142v18h142v99h20v-99h74v-18h-74v-597h-20zM336 258q0 126 -37 189t-102 63q-140 0 -140 -243q0 -261 144 -261q62 0 98.5 64t36.5 188z" />
    <glyph glyph-name="Emacron" unicode="&#x112;" 
d="M58 0v714h325v-18h-305v-314h283v-18h-283v-346h313v-18h-333zM126 843h192v-18h-192v18z" />
    <glyph glyph-name="emacron" unicode="&#x113;" horiz-adv-x="389" 
d="M357 269h-300q0 -126 33 -194.5t112 -68.5q45 0 76 29t42 63t13 70h20q-4 -78 -45 -129t-106 -51q-86 0 -125.5 70.5t-39.5 214.5q0 255 165 255q57 0 93 -32.5t49 -80t13 -110.5v-36zM57 287h280v35q0 46 -9.5 85t-41.5 71t-84 32q-139 0 -145 -223zM104 669h192v-18
h-192v18z" />
    <glyph glyph-name="Ebreve" unicode="&#x114;" 
d="M58 0v714h325v-18h-305v-314h283v-18h-283v-346h313v-18h-333zM115 890h20q12 -93 86 -93q41 0 63 29.5t25 63.5h20q-6 -50 -33 -80.5t-76 -30.5q-45 0 -74 30t-31 81z" />
    <glyph glyph-name="ebreve" unicode="&#x115;" horiz-adv-x="389" 
d="M357 269h-300q0 -126 33 -194.5t112 -68.5q45 0 76 29t42 63t13 70h20q-4 -78 -45 -129t-106 -51q-86 0 -125.5 70.5t-39.5 214.5q0 255 165 255q57 0 93 -32.5t49 -80t13 -110.5v-36zM57 287h280v35q0 46 -9.5 85t-41.5 71t-84 32q-139 0 -145 -223zM93 716h20
q12 -93 86 -93q41 0 63 29.5t25 63.5h20q-6 -50 -33 -80.5t-76 -30.5q-45 0 -74 30t-31 81z" />
    <glyph glyph-name="Edotaccent" unicode="&#x116;" 
d="M58 0v714h325v-18h-305v-314h283v-18h-283v-346h313v-18h-333zM212 783v103h20v-103h-20z" />
    <glyph glyph-name="edotaccent" unicode="&#x117;" horiz-adv-x="389" 
d="M357 269h-300q0 -126 33 -194.5t112 -68.5q45 0 76 29t42 63t13 70h20q-4 -78 -45 -129t-106 -51q-86 0 -125.5 70.5t-39.5 214.5q0 255 165 255q57 0 93 -32.5t49 -80t13 -110.5v-36zM57 287h280v35q0 46 -9.5 85t-41.5 71t-84 32q-139 0 -145 -223zM190 609v103h20
v-103h-20z" />
    <glyph glyph-name="Eogonek" unicode="&#x118;" 
d="M380 -148l11 -15q-30 -24 -70 -24q-36 0 -57 17.5t-21 48.5q0 64 93 121h-278v714h325v-18h-305v-314h283v-18h-283v-346h313v-18h-32q-95 -68 -95 -119q0 -23 16 -36.5t41 -13.5q29 0 59 21z" />
    <glyph glyph-name="eogonek" unicode="&#x119;" horiz-adv-x="389" 
d="M263 -148l11 -15q-30 -24 -70 -24q-36 0 -57 17.5t-21 48.5q0 58 74 109q-86 1 -124.5 71t-38.5 214q0 255 165 255q57 0 93 -32.5t49 -80t13 -110.5v-36h-300q0 -126 33 -194.5t112 -68.5q45 0 76 29t42 63t13 70h20q-4 -69 -37 -118t-87 -59q-82 -61 -82 -110
q0 -23 16 -36.5t41 -13.5q29 0 59 21zM57 287h280v35q0 46 -9.5 85t-41.5 71t-84 32q-139 0 -145 -223z" />
    <glyph glyph-name="Ecaron" unicode="&#x11a;" 
d="M58 0v714h325v-18h-305v-314h283v-18h-283v-346h313v-18h-333zM209 765l-88 139h20l82 -125l82 125h20l-88 -139h-28z" />
    <glyph glyph-name="ecaron" unicode="&#x11b;" horiz-adv-x="389" 
d="M357 269h-300q0 -126 33 -194.5t112 -68.5q45 0 76 29t42 63t13 70h20q-4 -78 -45 -129t-106 -51q-86 0 -125.5 70.5t-39.5 214.5q0 255 165 255q57 0 93 -32.5t49 -80t13 -110.5v-36zM57 287h280v35q0 46 -9.5 85t-41.5 71t-84 32q-139 0 -145 -223zM187 591l-88 139h20
l82 -125l82 125h20l-88 -139h-28z" />
    <glyph glyph-name="Gcircumflex" unicode="&#x11c;" horiz-adv-x="519" 
d="M266 -12q-54 0 -95 22t-66 57t-40.5 84.5t-21 99t-5.5 106.5t5.5 106.5t21 99t40.5 84.5t66 57t95 22t94 -21t61 -55t31.5 -68.5t12.5 -71.5h-20q-4 89 -49 143.5t-129 54.5q-209 0 -209 -351t209 -351q32 0 61.5 12.5t59 42t48 87.5t20.5 138v42h-222v18h242v-346h-20
v155h-2q-17 -72 -65 -119.5t-123 -47.5zM163 765l88 139h28l88 -139h-20l-82 125l-82 -125h-20z" />
    <glyph glyph-name="gcircumflex" unicode="&#x11d;" 
d="M329 -2v120h-2q-24 -118 -139 -118q-151 0 -151 266q0 262 158 262q60 0 92 -34.5t40 -75.5h2v98h20v-519q0 -181 -151 -181q-24 0 -45 5.5t-42 18.5t-34.5 40t-15.5 65h20q3 -54 33 -82.5t84 -28.5q131 0 131 164zM329 274q0 236 -136 236t-136 -239q0 -253 132 -253
q66 0 103 57t37 199zM100 591l88 139h28l88 -139h-20l-82 125l-82 -125h-20z" />
    <glyph glyph-name="Gbreve" unicode="&#x11e;" horiz-adv-x="519" 
d="M266 -12q-54 0 -95 22t-66 57t-40.5 84.5t-21 99t-5.5 106.5t5.5 106.5t21 99t40.5 84.5t66 57t95 22t94 -21t61 -55t31.5 -68.5t12.5 -71.5h-20q-4 89 -49 143.5t-129 54.5q-209 0 -209 -351t209 -351q32 0 61.5 12.5t59 42t48 87.5t20.5 138v42h-222v18h242v-346h-20
v155h-2q-17 -72 -65 -119.5t-123 -47.5zM158 890h20q12 -93 86 -93q41 0 63 29.5t25 63.5h20q-6 -50 -33 -80.5t-76 -30.5q-45 0 -74 30t-31 81z" />
    <glyph glyph-name="gbreve" unicode="&#x11f;" 
d="M329 -2v120h-2q-24 -118 -139 -118q-151 0 -151 266q0 262 158 262q60 0 92 -34.5t40 -75.5h2v98h20v-519q0 -181 -151 -181q-24 0 -45 5.5t-42 18.5t-34.5 40t-15.5 65h20q3 -54 33 -82.5t84 -28.5q131 0 131 164zM329 274q0 236 -136 236t-136 -239q0 -253 132 -253
q66 0 103 57t37 199zM95 716h20q12 -93 86 -93q41 0 63 29.5t25 63.5h20q-6 -50 -33 -80.5t-76 -30.5q-45 0 -74 30t-31 81z" />
    <glyph glyph-name="Gdotaccent" unicode="&#x120;" horiz-adv-x="519" 
d="M266 -12q-54 0 -95 22t-66 57t-40.5 84.5t-21 99t-5.5 106.5t5.5 106.5t21 99t40.5 84.5t66 57t95 22t94 -21t61 -55t31.5 -68.5t12.5 -71.5h-20q-4 89 -49 143.5t-129 54.5q-209 0 -209 -351t209 -351q32 0 61.5 12.5t59 42t48 87.5t20.5 138v42h-222v18h242v-346h-20
v155h-2q-17 -72 -65 -119.5t-123 -47.5zM255 783v103h20v-103h-20z" />
    <glyph glyph-name="gdotaccent" unicode="&#x121;" 
d="M329 -2v120h-2q-24 -118 -139 -118q-151 0 -151 266q0 262 158 262q60 0 92 -34.5t40 -75.5h2v98h20v-519q0 -181 -151 -181q-24 0 -45 5.5t-42 18.5t-34.5 40t-15.5 65h20q3 -54 33 -82.5t84 -28.5q131 0 131 164zM329 274q0 236 -136 236t-136 -239q0 -253 132 -253
q66 0 103 57t37 199zM192 609v103h20v-103h-20z" />
    <glyph glyph-name="Gcommaaccent" unicode="&#x122;" horiz-adv-x="519" 
d="M266 -12q-54 0 -95 22t-66 57t-40.5 84.5t-21 99t-5.5 106.5t5.5 106.5t21 99t40.5 84.5t66 57t95 22t94 -21t61 -55t31.5 -68.5t12.5 -71.5h-20q-4 89 -49 143.5t-129 54.5q-209 0 -209 -351t209 -351q32 0 61.5 12.5t59 42t48 87.5t20.5 138v42h-222v18h242v-346h-20
v155h-2q-17 -72 -65 -119.5t-123 -47.5zM256 -127v77h20v-79q0 -25 -9 -38t-33 -17v18q14 4 18 11.5t4 27.5z" />
    <glyph glyph-name="gcommaaccent" unicode="&#x123;" 
d="M329 -2v120h-2q-24 -118 -139 -118q-151 0 -151 266q0 262 158 262q60 0 92 -34.5t40 -75.5h2v98h20v-519q0 -181 -151 -181q-24 0 -45 5.5t-42 18.5t-34.5 40t-15.5 65h20q3 -54 33 -82.5t84 -28.5q131 0 131 164zM329 274q0 236 -136 236t-136 -239q0 -253 132 -253
q66 0 103 57t37 199zM204 1339v-77h-20v79q0 25 9 38t33 17v-18q-14 -4 -18 -11.5t-4 -27.5zM210 714v-77h-20v79q0 25 9 38t33 17v-18q-14 -4 -18 -11.5t-4 -27.5z" />
    <glyph glyph-name="Hcircumflex" unicode="&#x124;" horiz-adv-x="500" 
d="M58 0v714h20v-324h344v324h20v-714h-20v372h-344v-372h-20zM148 765l88 139h28l88 -139h-20l-82 125l-82 -125h-20z" />
    <glyph glyph-name="hcircumflex" unicode="&#x125;" horiz-adv-x="389" 
d="M51 0v714h20v-291h2q7 38 44 71.5t88 33.5q133 0 133 -157v-371h-20v369q0 79 -30.5 110t-82.5 31q-20 0 -40.5 -8t-43 -26.5t-36.5 -56.5t-14 -90v-329h-20zM82 765l88 139h28l88 -139h-20l-82 125l-82 -125h-20z" />
    <glyph glyph-name="Hbar" unicode="&#x126;" horiz-adv-x="500" 
d="M58 0v714h20v-168h344v168h20v-714h-20v352h-344v-352h-20zM78 370h344v158h-344v-158z" />
    <glyph glyph-name="hbar" unicode="&#x127;" horiz-adv-x="389" 
d="M51 0v597h-74v18h74v99h20v-99h142v-18h-142v-174h2q7 38 44 71.5t88 33.5q133 0 133 -157v-371h-20v369q0 79 -30.5 110t-82.5 31q-20 0 -40.5 -8t-43 -26.5t-36.5 -56.5t-14 -90v-329h-20z" />
    <glyph glyph-name="Itilde" unicode="&#x128;" horiz-adv-x="148" 
d="M64 0v714h20v-714h-20zM-18 796h-20q3 28 17.5 51.5t41.5 23.5q24 0 54.5 -28.5t47.5 -28.5q34 0 41 59h20q-13 -77 -61 -77q-22 0 -57 28.5t-46 28.5q-26 0 -38 -57z" />
    <glyph glyph-name="itilde" unicode="&#x129;" horiz-adv-x="130" 
d="M55 0v516h20v-516h-20zM-27 622h-20q3 28 17.5 51.5t41.5 23.5q24 0 54.5 -28.5t47.5 -28.5q34 0 41 59h20q-13 -77 -61 -77q-22 0 -57 28.5t-46 28.5q-26 0 -38 -57z" />
    <glyph glyph-name="Imacron" unicode="&#x12a;" horiz-adv-x="148" 
d="M64 0v714h20v-714h-20zM-22 843h192v-18h-192v18z" />
    <glyph glyph-name="imacron" unicode="&#x12b;" horiz-adv-x="130" 
d="M55 0v516h20v-516h-20zM-31 669h192v-18h-192v18z" />
    <glyph glyph-name="Ibreve" unicode="&#x12c;" horiz-adv-x="148" 
d="M64 0v714h20v-714h-20zM-33 890h20q12 -93 86 -93q41 0 63 29.5t25 63.5h20q-6 -50 -33 -80.5t-76 -30.5q-45 0 -74 30t-31 81z" />
    <glyph glyph-name="ibreve" unicode="&#x12d;" horiz-adv-x="130" 
d="M55 0v516h20v-516h-20zM-42 716h20q12 -93 86 -93q41 0 63 29.5t25 63.5h20q-6 -50 -33 -80.5t-76 -30.5q-45 0 -74 30t-31 81z" />
    <glyph glyph-name="Iogonek" unicode="&#x12e;" horiz-adv-x="148" 
d="M64 0v714h20v-714q-75 -72 -75 -119q0 -23 14.5 -36.5t37.5 -13.5q26 0 53 21l10 -15q-27 -24 -63 -24q-33 0 -51.5 17.5t-18.5 48.5q0 56 73 121z" />
    <glyph glyph-name="iogonek" unicode="&#x12f;" horiz-adv-x="130" 
d="M55 616v98h20v-98h-20zM55 0v516h20v-516q-75 -72 -75 -119q0 -23 14.5 -36.5t37.5 -13.5q26 0 53 21l10 -15q-27 -24 -63 -24q-33 0 -51.5 17.5t-18.5 48.5q0 57 73 121z" />
    <glyph glyph-name="Idotaccent" unicode="&#x130;" horiz-adv-x="148" 
d="M64 0v714h20v-714h-20zM64 783v103h20v-103h-20z" />
    <glyph glyph-name="dotlessi" unicode="&#x131;" horiz-adv-x="130" 
d="M55 0v516h20v-516h-20z" />
    <glyph glyph-name="Jcircumflex" unicode="&#x134;" horiz-adv-x="389" 
d="M40 166q0 -77 35.5 -118.5t102.5 -41.5q133 0 133 152v556h20v-559q0 -85 -40.5 -126t-111.5 -41q-83 0 -121 51t-38 132v40h20v-45zM215 765l88 139h28l88 -139h-20l-82 125l-82 -125h-20z" />
    <glyph glyph-name="jcircumflex" unicode="&#x135;" horiz-adv-x="130" 
d="M55 -75v591h20v-589q0 -57 -22 -80t-68 -23h-13q-10 0 -13 1v18q5 -1 15 -1h12q39 0 54 18t15 65zM-39 591l88 139h28l88 -139h-20l-82 125l-82 -125h-20z" />
    <glyph glyph-name="Kcommaaccent" unicode="&#x136;" horiz-adv-x="444" 
d="M58 0v714h20v-421h2l318 421h23l-229 -301l249 -413h-21l-240 398l-102 -135v-263h-20zM226 -127v77h20v-79q0 -25 -9 -38t-33 -17v18q14 4 18 11.5t4 27.5z" />
    <glyph glyph-name="kcommaaccent" unicode="&#x137;" horiz-adv-x="352" 
d="M51 0v714h20v-487l244 289h26l-162 -191l191 -325h-23l-182 310l-94 -111v-199h-20zM191 -127v77h20v-79q0 -25 -9 -38t-33 -17v18q14 4 18 11.5t4 27.5z" />
    <glyph glyph-name="kgreenlandic" unicode="&#x138;" horiz-adv-x="352" 
d="M51 0v516h20v-294l244 294h26l-162 -194l191 -322h-23l-182 306l-94 -112v-194h-20z" />
    <glyph glyph-name="Lacute" unicode="&#x139;" 
d="M58 0v714h20v-696h305v-18h-325zM62 765l83 139h20l-83 -139h-20z" />
    <glyph glyph-name="lacute" unicode="&#x13a;" horiz-adv-x="130" 
d="M55 0v714h20v-714h-20zM54 765l83 139h20l-83 -139h-20z" />
    <glyph glyph-name="Lcommaaccent" unicode="&#x13b;" 
d="M58 0v714h20v-696h305v-18h-325zM208 -127v77h20v-79q0 -25 -9 -38t-33 -17v18q14 4 18 11.5t4 27.5z" />
    <glyph glyph-name="lcommaaccent" unicode="&#x13c;" horiz-adv-x="130" 
d="M55 0v714h20v-714h-20zM55 -127v77h20v-79q0 -25 -9 -38t-33 -17v18q14 4 18 11.5t4 27.5z" />
    <glyph glyph-name="Lcaron" unicode="&#x13d;" 
d="M58 0v714h20v-696h305v-18h-325zM173 575l28 139h22l-34 -139h-16z" />
    <glyph glyph-name="lcaron" unicode="&#x13e;" horiz-adv-x="130" 
d="M55 0v714h20v-714h-20zM122 575l28 139h22l-34 -139h-16z" />
    <glyph glyph-name="Ldot" unicode="&#x13f;" 
d="M58 0v714h20v-696h305v-18h-325zM221 334v103h20v-103h-20z" />
    <glyph glyph-name="ldot" unicode="&#x140;" horiz-adv-x="196" 
d="M55 0v714h20v-714h-20zM148 334v103h20v-103h-20z" />
    <glyph glyph-name="Lslash" unicode="&#x141;" 
d="M58 0v320l-68 -53v25l68 53v369h20v-353l170 133v-25l-170 -133v-318h305v-18h-325z" />
    <glyph glyph-name="lslash" unicode="&#x142;" horiz-adv-x="130" 
d="M55 0v341h-2l-45 -57v31l47 57v342h20v-318h2l45 57v-31l-47 -57v-365h-20z" />
    <glyph glyph-name="Nacute" unicode="&#x143;" horiz-adv-x="500" 
d="M53 0v714h33l339 -682h2v682h20v-714h-29l-343 696h-2v-696h-20zM236 765l83 139h20l-83 -139h-20z" />
    <glyph glyph-name="nacute" unicode="&#x144;" horiz-adv-x="389" 
d="M51 0v516h20v-93h2q7 38 44 71.5t88 33.5q133 0 133 -157v-371h-20v369q0 79 -30.5 110t-82.5 31q-20 0 -40.5 -8t-43 -26.5t-36.5 -56.5t-14 -90v-329h-20zM177 591l83 139h20l-83 -139h-20z" />
    <glyph glyph-name="Ncommaaccent" unicode="&#x145;" horiz-adv-x="500" 
d="M53 0v714h33l339 -682h2v682h20v-714h-29l-343 696h-2v-696h-20zM235 -127v77h20v-79q0 -25 -9 -38t-33 -17v18q14 4 18 11.5t4 27.5z" />
    <glyph glyph-name="ncommaaccent" unicode="&#x146;" horiz-adv-x="389" 
d="M51 0v516h20v-93h2q7 38 44 71.5t88 33.5q133 0 133 -157v-371h-20v369q0 79 -30.5 110t-82.5 31q-20 0 -40.5 -8t-43 -26.5t-36.5 -56.5t-14 -90v-329h-20zM183 -127v77h20v-79q0 -25 -9 -38t-33 -17v18q14 4 18 11.5t4 27.5z" />
    <glyph glyph-name="Ncaron" unicode="&#x147;" horiz-adv-x="500" 
d="M53 0v714h33l339 -682h2v682h20v-714h-29l-343 696h-2v-696h-20zM237 765l-88 139h20l82 -125l82 125h20l-88 -139h-28z" />
    <glyph glyph-name="ncaron" unicode="&#x148;" horiz-adv-x="389" 
d="M51 0v516h20v-93h2q7 38 44 71.5t88 33.5q133 0 133 -157v-371h-20v369q0 79 -30.5 110t-82.5 31q-20 0 -40.5 -8t-43 -26.5t-36.5 -56.5t-14 -90v-329h-20zM182 591l-88 139h20l82 -125l82 125h20l-88 -139h-28z" />
    <glyph glyph-name="Eng" unicode="&#x14a;" horiz-adv-x="500" 
d="M427 -61v53l-352 704h-2v-696h-20v714h33l339 -672h2v672h20v-773q0 -63 -24.5 -90t-77.5 -27q-19 0 -45 3v18q27 -3 46 -3q43 0 62 22t19 75z" />
    <glyph glyph-name="eng" unicode="&#x14b;" horiz-adv-x="389" 
d="M318 -69v438q0 79 -30.5 110t-82.5 31q-20 0 -40.5 -8t-43 -26.5t-36.5 -56.5t-14 -90v-329h-20v516h20v-93h2q7 38 44 71.5t88 33.5q133 0 133 -157v-438q0 -59 -23 -84t-71 -25q-14 0 -38 2v18q26 -2 39 -2q39 0 56 20t17 69z" />
    <glyph glyph-name="Omacron" unicode="&#x14c;" horiz-adv-x="537" 
d="M38 357q0 75 11 137t35.5 116.5t71.5 85t113 30.5q230 0 230 -369q0 -75 -11 -137t-35.5 -116.5t-71.5 -85t-113 -30.5q-230 0 -230 369zM58 357q0 -351 210 -351q60 0 102.5 28.5t65.5 80t33 110.5t10 132q0 351 -210 351q-60 0 -102.5 -28.5t-65.5 -80t-33 -110.5
t-10 -132zM172 843h192v-18h-192v18z" />
    <glyph glyph-name="omacron" unicode="&#x14d;" 
d="M204 -12q-167 0 -167 270t167 270q166 0 166 -270t-166 -270zM57 258q0 -252 147 -252q77 0 111.5 62t34.5 190t-34.5 190t-111.5 62q-147 0 -147 -252zM108 669h192v-18h-192v18z" />
    <glyph glyph-name="Obreve" unicode="&#x14e;" horiz-adv-x="537" 
d="M38 357q0 75 11 137t35.5 116.5t71.5 85t113 30.5q230 0 230 -369q0 -75 -11 -137t-35.5 -116.5t-71.5 -85t-113 -30.5q-230 0 -230 369zM58 357q0 -351 210 -351q60 0 102.5 28.5t65.5 80t33 110.5t10 132q0 351 -210 351q-60 0 -102.5 -28.5t-65.5 -80t-33 -110.5
t-10 -132zM161 890h20q12 -93 86 -93q41 0 63 29.5t25 63.5h20q-6 -50 -33 -80.5t-76 -30.5q-45 0 -74 30t-31 81z" />
    <glyph glyph-name="obreve" unicode="&#x14f;" 
d="M204 -12q-167 0 -167 270t167 270q166 0 166 -270t-166 -270zM57 258q0 -252 147 -252q77 0 111.5 62t34.5 190t-34.5 190t-111.5 62q-147 0 -147 -252zM97 716h20q12 -93 86 -93q41 0 63 29.5t25 63.5h20q-6 -50 -33 -80.5t-76 -30.5q-45 0 -74 30t-31 81z" />
    <glyph glyph-name="Ohungarumlaut" unicode="&#x150;" horiz-adv-x="537" 
d="M38 357q0 75 11 137t35.5 116.5t71.5 85t113 30.5q230 0 230 -369q0 -75 -11 -137t-35.5 -116.5t-71.5 -85t-113 -30.5q-230 0 -230 369zM58 357q0 -351 210 -351q60 0 102.5 28.5t65.5 80t33 110.5t10 132q0 351 -210 351q-60 0 -102.5 -28.5t-65.5 -80t-33 -110.5
t-10 -132zM322 765l83 139h20l-83 -139h-20zM193 765l83 139h20l-83 -139h-20z" />
    <glyph glyph-name="ohungarumlaut" unicode="&#x151;" 
d="M204 -12q-167 0 -167 270t167 270q166 0 166 -270t-166 -270zM57 258q0 -252 147 -252q77 0 111.5 62t34.5 190t-34.5 190t-111.5 62q-147 0 -147 -252zM258 591l83 139h20l-83 -139h-20zM129 591l83 139h20l-83 -139h-20z" />
    <glyph glyph-name="OE" unicode="&#x152;" horiz-adv-x="759" 
d="M410 652v62h318v-18h-298v-314h277v-18h-277v-346h313v-18h-333v65h-2q-41 -77 -142 -77q-54 0 -95 22t-66 57t-40.5 84.5t-21 99t-5.5 106.5t5.5 106.5t21 99t40.5 84.5t66 57t95 22q108 0 142 -74h2zM410 161v385q0 79 -32 120.5t-111 41.5q-209 0 -209 -351t209 -351
q74 0 108.5 44.5t34.5 110.5z" />
    <glyph glyph-name="oe" unicode="&#x153;" horiz-adv-x="667" 
d="M630 269h-274v-52q0 -56 10.5 -101t40 -77.5t74.5 -32.5q63 0 91.5 51.5t31.5 123.5h20q-3 -82 -36.5 -137.5t-107.5 -55.5q-35 0 -62 15.5t-41 39.5t-21.5 47t-8.5 43h-2q-24 -145 -141 -145q-167 0 -167 270t167 270q31 0 55.5 -11.5t39.5 -27.5t25.5 -37t14.5 -36
t6 -29h2q4 54 40.5 97.5t90.5 43.5q78 0 115 -63.5t37 -176.5v-19zM356 287h254q0 223 -132 223q-52 0 -87 -52.5t-35 -157.5v-13zM57 258q0 -252 147 -252q35 0 60.5 16t39 40t21 64t9.5 74t2 84q0 226 -132 226q-147 0 -147 -252z" />
    <glyph glyph-name="Racute" unicode="&#x154;" horiz-adv-x="481" 
d="M58 0v714h193q79 0 129.5 -42.5t50.5 -144.5q0 -79 -38 -124.5t-105 -53.5v-2q81 -10 108.5 -54.5t29.5 -143.5q2 -83 4.5 -104t12.5 -45h-20q-6 14 -8.5 23.5t-5 39.5t-3.5 88q-4 114 -40.5 150t-142.5 36h-145v-337h-20zM78 696v-341h137q196 0 196 172q0 169 -162 169
h-171zM206 765l83 139h20l-83 -139h-20z" />
    <glyph glyph-name="racute" unicode="&#x155;" horiz-adv-x="222" 
d="M51 0v516h20v-93h2q7 38 44 71.5t88 33.5h20v-18h-20q-20 0 -40.5 -8t-43 -26.5t-36.5 -56.5t-14 -90v-329h-20zM118 591l83 139h20l-83 -139h-20z" />
    <glyph glyph-name="Rcommaaccent" unicode="&#x156;" horiz-adv-x="481" 
d="M58 0v714h193q79 0 129.5 -42.5t50.5 -144.5q0 -79 -38 -124.5t-105 -53.5v-2q81 -10 108.5 -54.5t29.5 -143.5q2 -83 4.5 -104t12.5 -45h-20q-6 14 -8.5 23.5t-5 39.5t-3.5 88q-4 114 -40.5 150t-142.5 36h-145v-337h-20zM78 696v-341h137q196 0 196 172q0 169 -162 169
h-171zM235 -127v77h20v-79q0 -25 -9 -38t-33 -17v18q14 4 18 11.5t4 27.5z" />
    <glyph glyph-name="rcommaaccent" unicode="&#x157;" horiz-adv-x="222" 
d="M51 0v516h20v-93h2q7 38 44 71.5t88 33.5h20v-18h-20q-20 0 -40.5 -8t-43 -26.5t-36.5 -56.5t-14 -90v-329h-20zM51 -127v77h20v-79q0 -25 -9 -38t-33 -17v18q14 4 18 11.5t4 27.5z" />
    <glyph glyph-name="Rcaron" unicode="&#x158;" horiz-adv-x="481" 
d="M58 0v714h193q79 0 129.5 -42.5t50.5 -144.5q0 -79 -38 -124.5t-105 -53.5v-2q81 -10 108.5 -54.5t29.5 -143.5q2 -83 4.5 -104t12.5 -45h-20q-6 14 -8.5 23.5t-5 39.5t-3.5 88q-4 114 -40.5 150t-142.5 36h-145v-337h-20zM78 696v-341h137q196 0 196 172q0 169 -162 169
h-171zM207 765l-88 139h20l82 -125l82 125h20l-88 -139h-28z" />
    <glyph glyph-name="rcaron" unicode="&#x159;" horiz-adv-x="222" 
d="M51 0v516h20v-93h2q7 38 44 71.5t88 33.5h20v-18h-20q-20 0 -40.5 -8t-43 -26.5t-36.5 -56.5t-14 -90v-329h-20zM122 591l-88 139h20l82 -125l82 125h20l-88 -139h-28z" />
    <glyph glyph-name="Sacute" unicode="&#x15a;" horiz-adv-x="463" 
d="M31 187v31h20v-31q0 -83 46 -132t129 -49q81 0 133.5 47t52.5 139q0 39 -14 67.5t-44 48t-52.5 29t-64.5 22.5q-48 15 -76.5 27.5t-57 33.5t-41.5 52.5t-13 75.5q0 28 9.5 57t29.5 57.5t57.5 46t87.5 17.5q96 0 141 -53t45 -126v-15h-20v17q0 75 -45 117t-123 42
q-77 0 -119.5 -48.5t-42.5 -115.5q0 -45 20 -76.5t52 -48.5t70.5 -30.5l77.5 -27.5t71 -33.5t52 -55t20 -85.5q0 -80 -51.5 -139.5t-153.5 -59.5q-98 0 -147 57.5t-49 141.5zM223 765l83 139h20l-83 -139h-20z" />
    <glyph glyph-name="sacute" unicode="&#x15b;" horiz-adv-x="333" 
d="M169 -12q-144 0 -144 158v16h20v-19q0 -137 122 -137q61 0 91 37t30 86q0 46 -26 74t-63 42.5l-74.5 30t-63.5 47t-26 81.5q0 52 32 84q36 40 100 40q68 0 98 -41t30 -99v-14h-20v17q0 119 -109 119q-52 0 -81.5 -30.5t-29.5 -79.5q0 -44 26 -71t63.5 -41.5l74.5 -29.5
t63 -46.5t26 -81.5q0 -60 -37 -101t-102 -41zM152 591l83 139h20l-83 -139h-20z" />
    <glyph glyph-name="Scircumflex" unicode="&#x15c;" horiz-adv-x="463" 
d="M31 187v31h20v-31q0 -83 46 -132t129 -49q81 0 133.5 47t52.5 139q0 39 -14 67.5t-44 48t-52.5 29t-64.5 22.5q-48 15 -76.5 27.5t-57 33.5t-41.5 52.5t-13 75.5q0 28 9.5 57t29.5 57.5t57.5 46t87.5 17.5q96 0 141 -53t45 -126v-15h-20v17q0 75 -45 117t-123 42
q-77 0 -119.5 -48.5t-42.5 -115.5q0 -45 20 -76.5t52 -48.5t70.5 -30.5l77.5 -27.5t71 -33.5t52 -55t20 -85.5q0 -80 -51.5 -139.5t-153.5 -59.5q-98 0 -147 57.5t-49 141.5zM135 765l88 139h28l88 -139h-20l-82 125l-82 -125h-20z" />
    <glyph glyph-name="scircumflex" unicode="&#x15d;" horiz-adv-x="333" 
d="M169 -12q-144 0 -144 158v16h20v-19q0 -137 122 -137q61 0 91 37t30 86q0 46 -26 74t-63 42.5l-74.5 30t-63.5 47t-26 81.5q0 52 32 84q36 40 100 40q68 0 98 -41t30 -99v-14h-20v17q0 119 -109 119q-52 0 -81.5 -30.5t-29.5 -79.5q0 -44 26 -71t63.5 -41.5l74.5 -29.5
t63 -46.5t26 -81.5q0 -60 -37 -101t-102 -41zM68 591l88 139h28l88 -139h-20l-82 125l-82 -125h-20z" />
    <glyph glyph-name="Scedilla" unicode="&#x15e;" horiz-adv-x="463" 
d="M168 -79l47 67q-92 4 -138 61t-46 138v31h20v-31q0 -83 46 -132t129 -49q81 0 133.5 47t52.5 139q0 39 -14 67.5t-44 48t-52.5 29t-64.5 22.5q-48 15 -76.5 27.5t-57 33.5t-41.5 52.5t-13 75.5q0 28 9.5 57t29.5 57.5t57.5 46t87.5 17.5q96 0 141 -53t45 -126v-15h-20v17
q0 75 -45 117t-123 42q-77 0 -119.5 -48.5t-42.5 -115.5q0 -45 20 -76.5t52 -48.5t70.5 -30.5l77.5 -27.5t71 -33.5t52 -55t20 -85.5q0 -78 -49.5 -137t-147.5 -62l-32 -46l2 -2q18 7 35 7q30 0 49.5 -16t19.5 -45q0 -31 -26.5 -52t-67.5 -21q-47 0 -78 18l8 17
q32 -17 71 -17q32 0 52.5 15t20.5 40q0 43 -53 43q-30 0 -59 -16z" />
    <glyph glyph-name="scedilla" unicode="&#x15f;" horiz-adv-x="333" 
d="M104 -79l48 68q-127 9 -127 157v16h20v-19q0 -137 122 -137q61 0 91 37t30 86q0 46 -26 74t-63 42.5l-74.5 30t-63.5 47t-26 81.5q0 52 32 84q36 40 100 40q68 0 98 -41t30 -99v-14h-20v17q0 119 -109 119q-52 0 -81.5 -30.5t-29.5 -79.5q0 -44 26 -71t63.5 -41.5
l74.5 -29.5t63 -46.5t26 -81.5q0 -60 -36 -100.5t-101 -41.5l-32 -46l2 -2q18 7 35 7q30 0 49.5 -16t19.5 -45q0 -31 -26.5 -52t-67.5 -21q-47 0 -78 18l8 17q32 -17 71 -17q32 0 52.5 15t20.5 40q0 43 -53 43q-30 0 -59 -16z" />
    <glyph glyph-name="Scaron" unicode="&#x160;" horiz-adv-x="463" 
d="M31 187v31h20v-31q0 -83 46 -132t129 -49q81 0 133.5 47t52.5 139q0 39 -14 67.5t-44 48t-52.5 29t-64.5 22.5q-48 15 -76.5 27.5t-57 33.5t-41.5 52.5t-13 75.5q0 28 9.5 57t29.5 57.5t57.5 46t87.5 17.5q96 0 141 -53t45 -126v-15h-20v17q0 75 -45 117t-123 42
q-77 0 -119.5 -48.5t-42.5 -115.5q0 -45 20 -76.5t52 -48.5t70.5 -30.5l77.5 -27.5t71 -33.5t52 -55t20 -85.5q0 -80 -51.5 -139.5t-153.5 -59.5q-98 0 -147 57.5t-49 141.5zM223 765l-88 139h20l82 -125l82 125h20l-88 -139h-28z" />
    <glyph glyph-name="scaron" unicode="&#x161;" horiz-adv-x="333" 
d="M169 -12q-144 0 -144 158v16h20v-19q0 -137 122 -137q61 0 91 37t30 86q0 46 -26 74t-63 42.5l-74.5 30t-63.5 47t-26 81.5q0 52 32 84q36 40 100 40q68 0 98 -41t30 -99v-14h-20v17q0 119 -109 119q-52 0 -81.5 -30.5t-29.5 -79.5q0 -44 26 -71t63.5 -41.5l74.5 -29.5
t63 -46.5t26 -81.5q0 -60 -37 -101t-102 -41zM155 591l-88 139h20l82 -125l82 125h20l-88 -139h-28z" />
    <glyph glyph-name="Tcommaaccent" unicode="&#x162;" horiz-adv-x="408" 
d="M194 0v696h-194v18h408v-18h-194v-696h-20zM194 -127v77h20v-79q0 -25 -9 -38t-33 -17v18q14 4 18 11.5t4 27.5z" />
    <glyph glyph-name="tcommaaccent" unicode="&#x163;" horiz-adv-x="185" 
d="M78 79v419h-67v18h67v160h20v-160h88v-18h-88v-417q0 -36 12 -49.5t45 -13.5q26 0 39 3v-18q-15 -3 -40 -3q-38 0 -57 17.5t-19 61.5zM123 -127v77h20v-79q0 -25 -9 -38t-33 -17v18q14 4 18 11.5t4 27.5z" />
    <glyph glyph-name="Tcaron" unicode="&#x164;" horiz-adv-x="408" 
d="M194 0v696h-194v18h408v-18h-194v-696h-20zM190 765l-88 139h20l82 -125l82 125h20l-88 -139h-28z" />
    <glyph glyph-name="tcaron" unicode="&#x165;" horiz-adv-x="185" 
d="M166 575l28 139h22l-34 -139h-16zM78 79v419h-67v18h67v160h20v-160h88v-18h-88v-417q0 -36 12 -49.5t45 -13.5q26 0 39 3v-18q-15 -3 -40 -3q-38 0 -57 17.5t-19 61.5z" />
    <glyph glyph-name="Tbar" unicode="&#x166;" horiz-adv-x="408" 
d="M194 490v206h-194v18h408v-18h-194v-206h131v-18h-131v-472h-20v472h-131v18h131z" />
    <glyph glyph-name="tbar" unicode="&#x167;" horiz-adv-x="185" 
d="M78 353v145h-67v18h67v160h20v-160h88v-18h-88v-145h82v-18h-82v-254q0 -36 12 -49.5t45 -13.5q26 0 39 3v-18q-15 -3 -40 -3q-38 0 -57 17.5t-19 61.5v256h-64v18h64z" />
    <glyph glyph-name="Utilde" unicode="&#x168;" horiz-adv-x="481" 
d="M432 714v-521q0 -99 -49.5 -152t-142.5 -53q-91 0 -141 53t-50 152v521h20v-518q0 -190 171 -190q172 0 172 190v518h20zM149 796h-20q3 28 17.5 51.5t41.5 23.5q24 0 54.5 -28.5t47.5 -28.5q34 0 41 59h20q-13 -77 -61 -77q-22 0 -57 28.5t-46 28.5q-26 0 -38 -57z" />
    <glyph glyph-name="utilde" unicode="&#x169;" horiz-adv-x="389" 
d="M338 516v-516h-20v93h-2q-7 -38 -44 -71.5t-88 -33.5q-133 0 -133 157v371h20v-369q0 -80 30.5 -110.5t82.5 -30.5q19 0 39.5 8t43 26.5t37 56.5t14.5 90v329h20zM103 622h-20q3 28 17.5 51.5t41.5 23.5q24 0 54.5 -28.5t47.5 -28.5q34 0 41 59h20q-13 -77 -61 -77
q-22 0 -57 28.5t-46 28.5q-26 0 -38 -57z" />
    <glyph glyph-name="Umacron" unicode="&#x16a;" horiz-adv-x="481" 
d="M432 714v-521q0 -99 -49.5 -152t-142.5 -53q-91 0 -141 53t-50 152v521h20v-518q0 -190 171 -190q172 0 172 190v518h20zM145 843h192v-18h-192v18z" />
    <glyph glyph-name="umacron" unicode="&#x16b;" horiz-adv-x="389" 
d="M338 516v-516h-20v93h-2q-7 -38 -44 -71.5t-88 -33.5q-133 0 -133 157v371h20v-369q0 -80 30.5 -110.5t82.5 -30.5q19 0 39.5 8t43 26.5t37 56.5t14.5 90v329h20zM99 669h192v-18h-192v18z" />
    <glyph glyph-name="Ubreve" unicode="&#x16c;" horiz-adv-x="481" 
d="M432 714v-521q0 -99 -49.5 -152t-142.5 -53q-91 0 -141 53t-50 152v521h20v-518q0 -190 171 -190q172 0 172 190v518h20zM134 890h20q12 -93 86 -93q41 0 63 29.5t25 63.5h20q-6 -50 -33 -80.5t-76 -30.5q-45 0 -74 30t-31 81z" />
    <glyph glyph-name="ubreve" unicode="&#x16d;" horiz-adv-x="389" 
d="M338 516v-516h-20v93h-2q-7 -38 -44 -71.5t-88 -33.5q-133 0 -133 157v371h20v-369q0 -80 30.5 -110.5t82.5 -30.5q19 0 39.5 8t43 26.5t37 56.5t14.5 90v329h20zM88 716h20q12 -93 86 -93q41 0 63 29.5t25 63.5h20q-6 -50 -33 -80.5t-76 -30.5q-45 0 -74 30t-31 81z" />
    <glyph glyph-name="Uring" unicode="&#x16e;" horiz-adv-x="481" 
d="M432 714v-521q0 -99 -49.5 -152t-142.5 -53q-91 0 -141 53t-50 152v521h20v-518q0 -190 171 -190q172 0 172 190v518h20zM156 826q0 35 25 60t60 25t60 -25t25 -60q0 -36 -25 -60.5t-60 -24.5q-36 0 -60.5 24.5t-24.5 60.5zM306 826q0 29 -19 48t-46 19t-46 -19t-19 -48
t19 -48t46 -19t46 19t19 48z" />
    <glyph glyph-name="uring" unicode="&#x16f;" horiz-adv-x="389" 
d="M338 516v-516h-20v93h-2q-7 -38 -44 -71.5t-88 -33.5q-133 0 -133 157v371h20v-369q0 -80 30.5 -110.5t82.5 -30.5q19 0 39.5 8t43 26.5t37 56.5t14.5 90v329h20zM111 676q0 35 25 60t60 25t60 -25t25 -60q0 -36 -25 -60.5t-60 -24.5q-36 0 -60.5 24.5t-24.5 60.5z
M261 676q0 29 -19 48t-46 19t-46 -19t-19 -48t19 -48t46 -19t46 19t19 48z" />
    <glyph glyph-name="Uhungarumlaut" unicode="&#x170;" horiz-adv-x="481" 
d="M432 714v-521q0 -99 -49.5 -152t-142.5 -53q-91 0 -141 53t-50 152v521h20v-518q0 -190 171 -190q172 0 172 190v518h20zM295 765l83 139h20l-83 -139h-20zM166 765l83 139h20l-83 -139h-20z" />
    <glyph glyph-name="uhungarumlaut" unicode="&#x171;" horiz-adv-x="389" 
d="M338 516v-516h-20v93h-2q-7 -38 -44 -71.5t-88 -33.5q-133 0 -133 157v371h20v-369q0 -80 30.5 -110.5t82.5 -30.5q19 0 39.5 8t43 26.5t37 56.5t14.5 90v329h20zM249 591l83 139h20l-83 -139h-20zM120 591l83 139h20l-83 -139h-20z" />
    <glyph glyph-name="Uogonek" unicode="&#x172;" horiz-adv-x="481" 
d="M309 -148l11 -15q-30 -24 -70 -24q-36 0 -57 17.5t-21 48.5q0 58 74 109h-6q-91 0 -141 53t-50 152v521h20v-518q0 -190 171 -190q172 0 172 190v518h20v-521q0 -90 -40.5 -142t-117.5 -61q-81 -61 -81 -109q0 -23 16 -36.5t41 -13.5q29 0 59 21z" />
    <glyph glyph-name="uogonek" unicode="&#x173;" horiz-adv-x="389" 
d="M357 -148l10 -15q-27 -24 -63 -24q-33 0 -51.5 17.5t-18.5 48.5q0 64 84 121v93h-2q-7 -38 -44 -71.5t-88 -33.5q-133 0 -133 157v371h20v-369q0 -80 30.5 -110.5t82.5 -30.5q19 0 39.5 8t43 26.5t37 56.5t14.5 90v329h20v-516q-47 -38 -66.5 -65.5t-19.5 -53.5
q0 -23 14.5 -36.5t37.5 -13.5q26 0 53 21z" />
    <glyph glyph-name="Wcircumflex" unicode="&#x174;" horiz-adv-x="704" 
d="M174 0l-159 714h20l151 -682h2l150 682h28l147 -682h2l154 682h20l-162 -714h-26l-149 688h-2l-151 -688h-25zM251 765l88 139h28l88 -139h-20l-82 125l-82 -125h-20z" />
    <glyph glyph-name="wcircumflex" unicode="&#x175;" horiz-adv-x="500" 
d="M116 0l-105 516h20l98 -498h2l105 498h29l102 -498h2l100 498h20l-108 -516h-27l-103 498h-2l-105 -498h-28zM149 591l88 139h28l88 -139h-20l-82 125l-82 -125h-20z" />
    <glyph glyph-name="Ycircumflex" unicode="&#x176;" horiz-adv-x="426" 
d="M203 0v301l-200 413h21l189 -392l190 392h20l-200 -413v-301h-20zM111 765l88 139h28l88 -139h-20l-82 125l-82 -125h-20z" />
    <glyph glyph-name="ycircumflex" unicode="&#x177;" horiz-adv-x="315" 
d="M153 -4l-151 520h20l140 -491l-1 1h2l131 490h19l-146 -537q-24 -93 -48.5 -124t-76.5 -31q-13 0 -27 2v18q16 -2 30 -2q34 0 56 19q26 26 52 135zM57 591l88 139h28l88 -139h-20l-82 125l-82 -125h-20z" />
    <glyph glyph-name="Ydieresis" unicode="&#x178;" horiz-adv-x="426" 
d="M203 0v301l-200 413h21l189 -392l190 392h20l-200 -413v-301h-20zM266 783v103h20v-103h-20zM140 783v103h20v-103h-20z" />
    <glyph glyph-name="Zacute" unicode="&#x179;" horiz-adv-x="444" 
d="M20 0v20l382 676h-360v18h380v-20l-382 -676h384v-18h-404zM206 765l83 139h20l-83 -139h-20z" />
    <glyph glyph-name="zacute" unicode="&#x17a;" horiz-adv-x="296" 
d="M7 18l259 480h-249v18h269v-18l-259 -480h262v-18h-282v18zM131 591l83 139h20l-83 -139h-20z" />
    <glyph glyph-name="Zdotaccent" unicode="&#x17b;" horiz-adv-x="444" 
d="M20 0v20l382 676h-360v18h380v-20l-382 -676h384v-18h-404zM216 783v103h20v-103h-20z" />
    <glyph glyph-name="zdotaccent" unicode="&#x17c;" horiz-adv-x="296" 
d="M7 18l259 480h-249v18h269v-18l-259 -480h262v-18h-282v18zM139 609v103h20v-103h-20z" />
    <glyph glyph-name="Zcaron" unicode="&#x17d;" horiz-adv-x="444" 
d="M20 0v20l382 676h-360v18h380v-20l-382 -676h384v-18h-404zM210 765l-88 139h20l82 -125l82 125h20l-88 -139h-28z" />
    <glyph glyph-name="zcaron" unicode="&#x17e;" horiz-adv-x="296" 
d="M7 18l259 480h-249v18h269v-18l-259 -480h262v-18h-282v18zM136 591l-88 139h20l82 -125l82 125h20l-88 -139h-28z" />
    <glyph glyph-name="florin" unicode="&#x192;" horiz-adv-x="480" 
d="M176 60l67 359h-103l5 18h103l30 147q26 130 132 130q26 0 48 -6l-5 -18q-24 6 -38 6q-95 0 -118 -114l-29 -145h116l-6 -18h-115l-62 -333q-10 -56 -17.5 -89.5t-20 -70.5t-27.5 -56.5t-37.5 -32.5t-52.5 -13q-23 0 -48 5l4 19q18 -6 46 -6q53 0 80.5 53t47.5 165z" />
    <glyph glyph-name="Aringacute" unicode="&#x1fa;" horiz-adv-x="481" 
d="M221 834l66 77h20l-67 -77h-19zM172 752q0 28 20 48.5t49 20.5t49 -20.5t20 -48.5q0 -24 -15 -43t-38 -24l222 -685h-20l-73 232h-291l-73 -232h-20l222 685q-23 5 -37.5 23.5t-14.5 43.5zM293 752q0 22 -15.5 37.5t-36.5 15.5t-36.5 -15.5t-15.5 -37.5q0 -23 15.5 -38.5
t36.5 -15.5t36.5 15.5t15.5 38.5zM381 250l-139 433h-2l-139 -433h280z" />
    <glyph glyph-name="aringacute" unicode="&#x1fb;" horiz-adv-x="370" 
d="M29 135q0 114 123 138q79 16 105 26q22 7 31 25.5t9 61.5q0 58 -20 85q-29 39 -87 39q-121 0 -121 -137h-20v17q0 57 35.5 97.5t105.5 40.5q55 0 91 -31.5t36 -92.5v-339q0 -49 30 -47q6 0 20 2v-18q-10 -2 -14 -2h-10q-23 0 -34.5 13.5t-11.5 53.5v20h-2
q-18 -46 -52.5 -72.5t-82.5 -26.5q-62 0 -96.5 39t-34.5 108zM297 189v117q-21 -25 -135 -47q-61 -12 -87 -42t-26 -84q0 -63 31.5 -95t82.5 -32q49 0 91.5 45.5t42.5 137.5zM100 656q0 35 25 60t60 25t60 -25t25 -60q0 -36 -25 -60.5t-60 -24.5q-36 0 -60.5 24.5
t-24.5 60.5zM250 656q0 29 -19 48t-46 19t-46 -19t-19 -48t19 -48t46 -19t46 19t19 48zM163 765l83 139h20l-83 -139h-20z" />
    <glyph glyph-name="AEacute" unicode="&#x1fc;" horiz-adv-x="685" 
d="M-7 0l321 714h348v-18h-310v-314h289v-18h-289v-346h325v-18h-345v232h-215l-104 -232h-20zM125 250h207v446h-7zM425 765l83 139h20l-83 -139h-20z" />
    <glyph glyph-name="aeacute" unicode="&#x1fd;" horiz-adv-x="593" 
d="M29 134q0 63 29 94q32 34 159 61q45 10 56 23t11 58q0 51 -6 71t-23 41q-25 28 -75 28q-60 0 -88 -37t-28 -94v-5h-20v6q0 71 36.5 109.5t100.5 38.5q47 0 80 -26t35 -68h2q9 31 40 62.5t80 31.5q73 0 109.5 -64t36.5 -176v-19h-264v-69q0 -32 4.5 -61t15.5 -61.5
t35.5 -52t59.5 -19.5q63 0 91.5 51.5t31.5 123.5h20q-3 -82 -36.5 -137.5t-107.5 -55.5q-43 0 -72 24.5t-39 50t-13 53.5h-2q-9 -57 -42.5 -92.5t-91.5 -35.5q-61 0 -93 42t-32 104zM300 287h244q0 223 -126 223q-65 0 -99 -75q-19 -45 -19 -148zM280 189v108h-2
q-10 -16 -100 -36q-44 -9 -65.5 -17.5t-38.5 -27.5q-25 -25 -25 -82q0 -55 26 -91.5t78 -36.5q38 0 64.5 17.5t39 46.5t18 58t5.5 61zM281 591l83 139h20l-83 -139h-20z" />
    <glyph glyph-name="Oslashacute" unicode="&#x1fe;" horiz-adv-x="537" 
d="M254 765l83 139h20l-83 -139h-20zM94 -27l30 72q-86 88 -86 312q0 56 6 106t22 99.5t41 84.5t65.5 57t93.5 22q79 0 127 -42l27 65l18 -7l-30 -71q91 -88 91 -314q0 -27 -1 -50t-6 -63t-13.5 -71.5t-26 -68t-41.5 -60.5t-61 -40t-84 -16q-75 0 -126 43l-28 -66zM132 65
l254 603q-46 40 -119 40q-209 0 -209 -351q0 -207 74 -292zM401 653l-253 -603q46 -44 119 -44q212 0 212 351q0 213 -78 296z" />
    <glyph glyph-name="oslashacute" unicode="&#x1ff;" 
d="M73 -43l29 71q-65 62 -65 230q0 270 167 270q53 0 89 -27l26 65l17 -7l-29 -71q63 -60 63 -230q0 -270 -166 -270q-53 0 -88 29l-27 -67zM110 48l176 435q-35 27 -82 27q-147 0 -147 -252q0 -150 53 -210zM300 470l-177 -435q32 -29 81 -29q77 0 111.5 62t34.5 190
q0 154 -50 212zM186 591l83 139h20l-83 -139h-20z" />
    <glyph glyph-name="Scommaaccent" unicode="&#x218;" horiz-adv-x="463" 
d="M31 187v31h20v-31q0 -83 46 -132t129 -49q81 0 133.5 47t52.5 139q0 39 -14 67.5t-44 48t-52.5 29t-64.5 22.5q-48 15 -76.5 27.5t-57 33.5t-41.5 52.5t-13 75.5q0 28 9.5 57t29.5 57.5t57.5 46t87.5 17.5q96 0 141 -53t45 -126v-15h-20v17q0 75 -45 117t-123 42
q-77 0 -119.5 -48.5t-42.5 -115.5q0 -45 20 -76.5t52 -48.5t70.5 -30.5l77.5 -27.5t71 -33.5t52 -55t20 -85.5q0 -80 -51.5 -139.5t-153.5 -59.5q-98 0 -147 57.5t-49 141.5zM220 -127v77h20v-79q0 -25 -9 -38t-33 -17v18q14 4 18 11.5t4 27.5z" />
    <glyph glyph-name="scommaaccent" unicode="&#x219;" horiz-adv-x="333" 
d="M169 -12q-144 0 -144 158v16h20v-19q0 -137 122 -137q61 0 91 37t30 86q0 46 -26 74t-63 42.5l-74.5 30t-63.5 47t-26 81.5q0 52 32 84q36 40 100 40q68 0 98 -41t30 -99v-14h-20v17q0 119 -109 119q-52 0 -81.5 -30.5t-29.5 -79.5q0 -44 26 -71t63.5 -41.5l74.5 -29.5
t63 -46.5t26 -81.5q0 -60 -37 -101t-102 -41zM156 -127v77h20v-79q0 -25 -9 -38t-33 -17v18q14 4 18 11.5t4 27.5z" />
    <glyph glyph-name="uni021A" unicode="&#x21a;" horiz-adv-x="408" 
d="M194 0v696h-194v18h408v-18h-194v-696h-20zM194 -127v77h20v-79q0 -25 -9 -38t-33 -17v18q14 4 18 11.5t4 27.5z" />
    <glyph glyph-name="uni021B" unicode="&#x21b;" horiz-adv-x="185" 
d="M78 79v419h-67v18h67v160h20v-160h88v-18h-88v-417q0 -36 12 -49.5t45 -13.5q26 0 39 3v-18q-15 -3 -40 -3q-38 0 -57 17.5t-19 61.5zM123 -127v77h20v-79q0 -25 -9 -38t-33 -17v18q14 4 18 11.5t4 27.5z" />
    <glyph glyph-name="dotlessj" unicode="&#x237;" horiz-adv-x="130" 
d="M55 -75v591h20v-589q0 -57 -22 -80t-68 -23h-13q-10 0 -13 1v18q5 -1 15 -1h12q39 0 54 18t15 65z" />
    <glyph glyph-name="circumflex" unicode="&#x2c6;" horiz-adv-x="130" 
d="M-37 591l88 139h28l88 -139h-20l-82 125l-82 -125h-20z" />
    <glyph glyph-name="caron" unicode="&#x2c7;" horiz-adv-x="130" 
d="M51 591l-88 139h20l82 -125l82 125h20l-88 -139h-28z" />
    <glyph glyph-name="uni02C9" unicode="&#x2c9;" horiz-adv-x="130" 
d="M-31 669h192v-18h-192v18z" />
    <glyph glyph-name="breve" unicode="&#x2d8;" horiz-adv-x="130" 
d="M-42 716h20q12 -93 86 -93q41 0 63 29.5t25 63.5h20q-6 -50 -33 -80.5t-76 -30.5q-45 0 -74 30t-31 81z" />
    <glyph glyph-name="dotaccent" unicode="&#x2d9;" horiz-adv-x="130" 
d="M55 609v103h20v-103h-20z" />
    <glyph glyph-name="ring" unicode="&#x2da;" horiz-adv-x="130" 
d="M-20 676q0 35 25 60t60 25t60 -25t25 -60q0 -36 -25 -60.5t-60 -24.5q-36 0 -60.5 24.5t-24.5 60.5zM130 676q0 29 -19 48t-46 19t-46 -19t-19 -48t19 -48t46 -19t46 19t19 48z" />
    <glyph glyph-name="ogonek" unicode="&#x2db;" horiz-adv-x="130" 
d="M152 -148l11 -15q-30 -24 -70 -24q-36 0 -57 17.5t-21 48.5q0 64 93 121h23q-95 -68 -95 -119q0 -23 16 -36.5t41 -13.5q29 0 59 21z" />
    <glyph glyph-name="tilde" unicode="&#x2dc;" horiz-adv-x="130" 
d="M-26 622h-20q3 28 17.5 51.5t41.5 23.5q24 0 54.5 -28.5t47.5 -28.5q34 0 41 59h20q-13 -77 -61 -77q-22 0 -57 28.5t-46 28.5q-26 0 -38 -57z" />
    <glyph glyph-name="hungarumlaut" unicode="&#x2dd;" horiz-adv-x="130" 
d="M93 591l83 139h20l-83 -139h-20zM-36 591l83 139h20l-83 -139h-20z" />
    <glyph glyph-name="uni0374" unicode="&#x374;" horiz-adv-x="200" 
d="M134 732l-53 -157h-15l45 157h23z" />
    <glyph glyph-name="uni0375" unicode="&#x375;" horiz-adv-x="200" 
d="M66 -189l53 157h15l-45 -157h-23z" />
    <glyph glyph-name="uni037E" unicode="&#x37e;" horiz-adv-x="240" 
d="M110 394v98h20v-98h-20zM110 -3v101h20v-103q0 -79 -42 -116v31q0 1 4.5 8t8 14.5t6.5 25t3 39.5z" />
    <glyph glyph-name="tonos" unicode="&#x384;" horiz-adv-x="113" 
d="M28 592l40 138h28l-51 -138h-17z" />
    <glyph glyph-name="dieresistonos" unicode="&#x385;" horiz-adv-x="230" 
d="M57 592l40 138h28l-51 -138h-17zM174 609v103h20v-103h-20zM-8 609v103h20v-103h-20z" />
    <glyph glyph-name="Alphatonos" unicode="&#x386;" horiz-adv-x="479" 
d="M2 0l227 714h24l226 -714h-20l-73 232h-291l-73 -232h-20zM101 250h280l-139 446h-2zM46 576l40 138h28l-51 -138h-17z" />
    <glyph glyph-name="anoteleia" unicode="&#x387;" horiz-adv-x="240" 
d="M110 394v98h20v-98h-20z" />
    <glyph glyph-name="Epsilontonos" unicode="&#x388;" horiz-adv-x="476" 
d="M0 576l40 138h28l-51 -138h-17zM127 0v714h325v-18h-305v-314h283v-18h-283v-346h313v-18h-333z" />
    <glyph glyph-name="Etatonos" unicode="&#x389;" horiz-adv-x="569" 
d="M0 576l40 138h28l-51 -138h-17zM127 0v714h20v-324h344v324h20v-714h-20v372h-344v-372h-20z" />
    <glyph glyph-name="Iotatonos" unicode="&#x38a;" horiz-adv-x="211" 
d="M0 576l40 138h28l-51 -138h-17zM127 0v714h20v-714h-20z" />
    <glyph glyph-name="Omicrontonos" unicode="&#x38c;" horiz-adv-x="574" 
d="M0 576l40 138h28l-51 -138h-17zM75 357q0 75 11 137t35.5 116.5t71.5 85t113 30.5q230 0 230 -369q0 -75 -11 -137t-35.5 -116.5t-71.5 -85t-113 -30.5q-230 0 -230 369zM95 357q0 -351 210 -351q60 0 102.5 28.5t65.5 80t33 110.5t10 132q0 351 -210 351
q-60 0 -102.5 -28.5t-65.5 -80t-33 -110.5t-10 -132z" />
    <glyph glyph-name="Upsilontonos" unicode="&#x38e;" horiz-adv-x="528" 
d="M0 576l40 138h28l-51 -138h-17zM305 0v301l-200 413h21l189 -392l190 392h20l-200 -413v-301h-20z" />
    <glyph glyph-name="Omegatonos" unicode="&#x38f;" horiz-adv-x="574" 
d="M0 576l40 138h28l-51 -138h-17zM305 708q-210 0 -210 -351q0 -121 35.5 -212t107.5 -127v-18h-154v18h121q-67 43 -98.5 135t-31.5 204q0 78 11.5 141.5t37.5 116t72 82t109 29.5q64 0 110.5 -29t72 -81.5t37 -116t11.5 -142.5q0 -112 -32 -204t-99 -135h122v-18h-154v18
q72 35 107.5 126t35.5 213q0 351 -211 351z" />
    <glyph glyph-name="iotadieresistonos" unicode="&#x390;" horiz-adv-x="138" 
d="M50 516h20v-444q0 -37 7.5 -51.5t29.5 -14.5q15 0 22 5l1 -18q-7 -5 -24 -5q-20 0 -32.5 7.5t-17 24t-5.5 27.5t-1 33v436zM40 592l40 138h28l-51 -138h-17zM157 609v103h20v-103h-20zM-25 609v103h20v-103h-20z" />
    <glyph glyph-name="Alpha" unicode="&#x391;" horiz-adv-x="481" 
d="M2 0l227 714h24l226 -714h-20l-73 232h-291l-73 -232h-20zM101 250h280l-139 446h-2z" />
    <glyph glyph-name="Beta" unicode="&#x392;" horiz-adv-x="481" 
d="M58 0v714h182q89 0 136.5 -44.5t47.5 -121.5q0 -161 -134 -173v-2q74 -2 115 -51t41 -126q0 -95 -52.5 -145.5t-146.5 -50.5h-189zM78 382h152q83 0 128.5 35t45.5 125q0 154 -165 154h-161v-314zM78 18h152q99 0 147.5 43.5t48.5 133.5q0 169 -185 169h-163v-346z" />
    <glyph glyph-name="Gamma" unicode="&#x393;" horiz-adv-x="333" 
d="M58 0v714h275v-18h-255v-696h-20z" />
    <glyph glyph-name="uni0394" unicode="&#x394;" horiz-adv-x="481" 
d="M479 0h-477l227 714h24zM240 696l-213 -678h426l-211 678h-2z" />
    <glyph glyph-name="Epsilon" unicode="&#x395;" 
d="M58 0v714h325v-18h-305v-314h283v-18h-283v-346h313v-18h-333z" />
    <glyph glyph-name="Zeta" unicode="&#x396;" horiz-adv-x="444" 
d="M20 0v20l382 676h-360v18h380v-20l-382 -676h384v-18h-404z" />
    <glyph glyph-name="Eta" unicode="&#x397;" horiz-adv-x="500" 
d="M58 0v714h20v-324h344v324h20v-714h-20v372h-344v-372h-20z" />
    <glyph glyph-name="Theta" unicode="&#x398;" horiz-adv-x="537" 
d="M38 357q0 75 11 137t35.5 116.5t71.5 85t113 30.5q230 0 230 -369q0 -75 -11 -137t-35.5 -116.5t-71.5 -85t-113 -30.5q-230 0 -230 369zM58 357q0 -351 210 -351q60 0 102.5 28.5t65.5 80t33 110.5t10 132q0 351 -210 351q-60 0 -102.5 -28.5t-65.5 -80t-33 -110.5
t-10 -132zM127 366v18h286v-18h-286z" />
    <glyph glyph-name="Iota" unicode="&#x399;" horiz-adv-x="148" 
d="M64 0v714h20v-714h-20z" />
    <glyph glyph-name="Kappa" unicode="&#x39a;" horiz-adv-x="444" 
d="M58 0v714h20v-421h2l318 421h23l-229 -301l249 -413h-21l-240 398l-102 -135v-263h-20z" />
    <glyph glyph-name="Lambda" unicode="&#x39b;" horiz-adv-x="481" 
d="M459 0l-217 696h-2l-218 -696h-20l227 714h24l226 -714h-20z" />
    <glyph glyph-name="Mu" unicode="&#x39c;" horiz-adv-x="630" 
d="M55 0v714h33l227 -682h2l226 682h32v-714h-20v688l-2 2v-2l-226 -688h-24l-226 688h-2v-688h-20z" />
    <glyph glyph-name="Nu" unicode="&#x39d;" horiz-adv-x="500" 
d="M53 0v714h33l339 -682h2v682h20v-714h-29l-343 696h-2v-696h-20z" />
    <glyph glyph-name="Xi" unicode="&#x39e;" horiz-adv-x="434" 
d="M27 696v18h380v-18h-380zM51 384v17h331v-17h-331zM20 0v18h394v-18h-394z" />
    <glyph glyph-name="Omicron" unicode="&#x39f;" horiz-adv-x="537" 
d="M38 357q0 75 11 137t35.5 116.5t71.5 85t113 30.5q230 0 230 -369q0 -75 -11 -137t-35.5 -116.5t-71.5 -85t-113 -30.5q-230 0 -230 369zM58 357q0 -351 210 -351q60 0 102.5 28.5t65.5 80t33 110.5t10 132q0 351 -210 351q-60 0 -102.5 -28.5t-65.5 -80t-33 -110.5
t-10 -132z" />
    <glyph glyph-name="Pi" unicode="&#x3a0;" horiz-adv-x="500" 
d="M58 0v714h384v-714h-21v696h-343v-696h-20z" />
    <glyph glyph-name="Rho" unicode="&#x3a1;" horiz-adv-x="463" 
d="M58 0v714h196q75 0 123 -51t48 -139q0 -99 -58 -147.5t-137 -48.5h-152v-328h-20zM78 696v-350h154q31 0 59.5 9t55 28t42.5 55.5t16 86.5q0 76 -40.5 123.5t-116.5 47.5h-170z" />
    <glyph glyph-name="Sigma" unicode="&#x3a3;" horiz-adv-x="406" 
d="M386 0h-366v16l205 365l-196 315v18h344v-18h-321l196 -314l-204 -364h342v-18z" />
    <glyph glyph-name="Tau" unicode="&#x3a4;" horiz-adv-x="408" 
d="M194 0v696h-194v18h408v-18h-194v-696h-20z" />
    <glyph glyph-name="Upsilon" unicode="&#x3a5;" horiz-adv-x="426" 
d="M203 0v301l-200 413h21l189 -392l190 392h20l-200 -413v-301h-20z" />
    <glyph glyph-name="Phi" unicode="&#x3a6;" horiz-adv-x="559" 
d="M255 774h18v-60q219 0 219 -312q0 -170 -51 -254t-168 -84v-64h-18v64q-116 0 -167.5 79.5t-51.5 254.5q0 164 60.5 240t158.5 76v60zM273 697v-615q111 0 155 81t44 239q0 295 -199 295zM255 82v615q-89 0 -143 -72.5t-54 -226.5q0 -177 48 -246.5t149 -69.5z" />
    <glyph glyph-name="Chi" unicode="&#x3a7;" horiz-adv-x="445" 
d="M6 0l206 369l-193 345h21l183 -327l183 327h20l-192 -345l205 -369h-21l-196 351l-196 -351h-20z" />
    <glyph glyph-name="Psi" unicode="&#x3a8;" horiz-adv-x="519" 
d="M251 195v519h18v-519q172 10 172 196v323h20v-323q0 -96 -47 -152.5t-144 -61.5v-177h-19v177q-104 4 -148.5 56.5t-44.5 162.5v318h20v-321q0 -102 39.5 -148t133.5 -50z" />
    <glyph glyph-name="uni03A9" unicode="&#x3a9;" horiz-adv-x="537" 
d="M268 708q-210 0 -210 -351q0 -121 35.5 -212t107.5 -127v-18h-154v18h121q-67 43 -98.5 135t-31.5 204q0 78 11.5 141.5t37.5 116t72 82t109 29.5q64 0 110.5 -29t72 -81.5t37 -116t11.5 -142.5q0 -112 -32 -204t-99 -135h122v-18h-154v18q72 35 107.5 126t35.5 213
q0 351 -211 351z" />
    <glyph glyph-name="Iotadieresis" unicode="&#x3aa;" horiz-adv-x="148" 
d="M127 783v103h20v-103h-20zM1 783v103h20v-103h-20zM64 0v714h20v-714h-20z" />
    <glyph glyph-name="Upsilondieresis" unicode="&#x3ab;" horiz-adv-x="426" 
d="M203 0v301l-200 413h21l189 -392l190 392h20l-200 -413v-301h-20zM266 783v103h20v-103h-20zM140 783v103h20v-103h-20z" />
    <glyph glyph-name="alphatonos" unicode="&#x3ac;" horiz-adv-x="410" 
d="M190 592l40 138h28l-51 -138h-17zM345 516v-440q0 -25 1 -36.5t9.5 -22.5t25.5 -11q15 0 22 5l1 -18q-6 -5 -23 -5q-30 0 -42.5 18.5t-12.5 69.5v35h-4q-7 -23 -15 -40t-23 -38t-39.5 -33t-56.5 -12q-151 0 -151 275q0 130 42 197.5t113 67.5q92 0 130 -116h3v104h20z
M57 267q0 -261 133 -261q63 0 99 63.5t36 188.5q0 251 -135 251q-68 0 -100.5 -68.5t-32.5 -173.5z" />
    <glyph glyph-name="epsilontonos" unicode="&#x3ad;" horiz-adv-x="365" 
d="M174 592l40 138h28l-51 -138h-17zM325 415h-21q-17 95 -119 95q-46 0 -77.5 -25.5t-31.5 -84.5q0 -48 23.5 -72t58.5 -24h54v-18h-47q-49 0 -79.5 -34.5t-30.5 -100.5q0 -69 35.5 -107t89.5 -38q115 0 135 149h22q-25 -167 -158 -167q-65 0 -103.5 45t-38.5 118
q0 108 77 144q-56 30 -56 103q0 66 35 98t92 32q60 0 96 -29.5t44 -83.5z" />
    <glyph glyph-name="etatonos" unicode="&#x3ae;" horiz-adv-x="389" 
d="M177 592l40 138h28l-51 -138h-17zM51 0v516h20v-93h2q7 38 44 71.5t88 33.5q133 0 133 -157v-547h-20v545q0 79 -30.5 110t-82.5 31q-20 0 -40.5 -8t-43 -26.5t-36.5 -56.5t-14 -90v-329h-20z" />
    <glyph glyph-name="iotatonos" unicode="&#x3af;" horiz-adv-x="138" 
d="M50 516h20v-444q0 -37 7.5 -51.5t29.5 -14.5q15 0 22 5l1 -18q-7 -5 -24 -5q-20 0 -32.5 7.5t-17 24t-5.5 27.5t-1 33v436zM52 592l40 138h28l-51 -138h-17z" />
    <glyph glyph-name="upsilondieresistonos" unicode="&#x3b0;" horiz-adv-x="366" 
d="M51 516h20v-359q0 -82 25 -116.5t83 -34.5q40 0 66.5 19t40 57t18.5 82.5t5 109.5q0 137 -43 242h23q40 -110 40 -240q0 -155 -36.5 -221.5t-115.5 -66.5q-126 0 -126 170v358zM134 592l40 138h28l-51 -138h-17zM251 609v103h20v-103h-20zM69 609v103h20v-103h-20z" />
    <glyph glyph-name="alpha" unicode="&#x3b1;" horiz-adv-x="410" 
d="M345 516v-440q0 -25 1 -36.5t9.5 -22.5t25.5 -11q15 0 22 5l1 -18q-6 -5 -23 -5q-30 0 -42.5 18.5t-12.5 69.5v35h-4q-7 -23 -15 -40t-23 -38t-39.5 -33t-56.5 -12q-151 0 -151 275q0 130 42 197.5t113 67.5q92 0 130 -116h3v104h20zM57 267q0 -261 133 -261
q63 0 99 63.5t36 188.5q0 251 -135 251q-68 0 -100.5 -68.5t-32.5 -173.5z" />
    <glyph glyph-name="beta" unicode="&#x3b2;" horiz-adv-x="406" 
d="M51 -176v679q0 225 149 225q68 0 106 -40.5t38 -122.5q0 -123 -75 -158q53 -12 76.5 -52t23.5 -132q0 -113 -40.5 -174t-119.5 -61q-98 0 -135 116h-3v-280h-20zM71 503v-245q0 -127 37 -189.5t103 -62.5q67 0 102.5 58t35.5 159q0 89 -26 129.5t-91 40.5h-44v18h38
q37 0 67.5 37.5t30.5 115.5q0 76 -34.5 111t-89.5 35q-129 0 -129 -207z" />
    <glyph glyph-name="gamma" unicode="&#x3b3;" horiz-adv-x="315" 
d="M273 516h20q-37 -277 -139 -527v-165h-20v158q0 68 -40.5 246.5t-78.5 287.5h18q30 -84 67 -242.5t49 -248.5h2q33 90 70.5 227.5t51.5 263.5z" />
    <glyph glyph-name="delta" unicode="&#x3b4;" 
d="M37 249q0 89 39.5 156.5t116.5 94.5q-44 36 -61.5 61.5t-17.5 64.5q0 43 31 72.5t84 29.5q63 0 106 -25v-19q-50 25 -106 25q-45 0 -70 -22t-25 -61q0 -35 17.5 -59.5t63.5 -60.5l47 -37.5t40 -38.5t36.5 -48.5t21.5 -57t10 -74.5q0 -262 -166 -262q-47 0 -80.5 21.5
t-52 60t-26.5 82.5t-8 97zM57 249q0 -113 36 -178t111 -65t110.5 60t35.5 182q0 75 -34 129.5t-108 110.5q-76 -26 -113.5 -89t-37.5 -150z" />
    <glyph glyph-name="epsilon" unicode="&#x3b5;" horiz-adv-x="365" 
d="M325 415h-21q-17 95 -119 95q-46 0 -77.5 -25.5t-31.5 -84.5q0 -48 23.5 -72t58.5 -24h54v-18h-47q-49 0 -79.5 -34.5t-30.5 -100.5q0 -69 35.5 -107t89.5 -38q115 0 135 149h22q-25 -167 -158 -167q-65 0 -103.5 45t-38.5 118q0 108 77 144q-56 30 -56 103q0 66 35 98
t92 32q60 0 96 -29.5t44 -83.5z" />
    <glyph glyph-name="zeta" unicode="&#x3b6;" horiz-adv-x="294" 
d="M304 714v-22q-247 -161 -247 -432q0 -112 34 -179t109 -67q74 0 74 -66q0 -24 -9 -68h-18q9 48 9 67q0 28 -12 38.5t-53 10.5q-73 0 -113.5 69.5t-40.5 196.5q0 268 240 434h-205v18h232z" />
    <glyph glyph-name="eta" unicode="&#x3b7;" horiz-adv-x="389" 
d="M51 0v516h20v-93h2q7 38 44 71.5t88 33.5q133 0 133 -157v-547h-20v545q0 79 -30.5 110t-82.5 31q-20 0 -40.5 -8t-43 -26.5t-36.5 -56.5t-14 -90v-329h-20z" />
    <glyph glyph-name="theta" unicode="&#x3b8;" horiz-adv-x="406" 
d="M369 348q0 -184 -35 -272t-132 -88q-41 0 -70.5 16.5t-47.5 45t-28.5 75.5t-14.5 99t-4 124q0 55 2 97.5t8 88.5t17.5 78.5t29 60t45 41.5t63.5 14q37 0 64.5 -13.5t45.5 -40.5t29.5 -59t17.5 -78.5t8 -89t2 -99.5zM202 710q-43 0 -72 -24t-44.5 -72t-21.5 -104t-7 -135
h292q-1 80 -7 136t-21.5 104t-45 71.5t-73.5 23.5zM57 348q0 -54 1.5 -91.5t6 -80t14.5 -70.5t25.5 -52.5t40 -36t57.5 -11.5t57.5 11.5t40.5 36t26 52.5t15 70.5t6.5 80.5t1.5 91v9h-292v-9z" />
    <glyph glyph-name="iota" unicode="&#x3b9;" horiz-adv-x="138" 
d="M50 516h20v-444q0 -37 7.5 -51.5t29.5 -14.5q15 0 22 5l1 -18q-7 -5 -24 -5q-20 0 -32.5 7.5t-17 24t-5.5 27.5t-1 33v436z" />
    <glyph glyph-name="kappa" unicode="&#x3ba;" horiz-adv-x="352" 
d="M51 0v516h20v-289l244 289h26l-162 -191l191 -325h-23l-182 310l-94 -111v-199h-20z" />
    <glyph glyph-name="lambda" unicode="&#x3bb;" horiz-adv-x="353" 
d="M265 67l-98 409h-2l-132 -476h-24l148 511l-16 66q-19 75 -36 104t-49 29q-26 0 -39 -5v17q16 6 40 6q40 0 61 -32.5t46 -132.5l121 -489q11 -43 17.5 -55.5t23.5 -12.5q18 0 24 5l1 -18q-7 -5 -24 -5q-26 0 -38.5 15.5t-23.5 63.5z" />
    <glyph glyph-name="uni03BC" unicode="&#x3bc;" horiz-adv-x="389" 
d="M338 516v-516h-20v93h-2q-7 -38 -44.5 -71.5t-90.5 -33.5q-82 0 -108 65h-2v-229h-20v692h20v-369q0 -79 30 -110t81 -31q16 0 32.5 4.5t35.5 17t33.5 32t24.5 52.5t10 75v329h20z" />
    <glyph glyph-name="nu" unicode="&#x3bd;" horiz-adv-x="326" 
d="M290 516h21q-17 -116 -54.5 -263t-78.5 -253h-27l-148 516h20l140 -498h2q43 113 78 256t47 242z" />
    <glyph glyph-name="xi" unicode="&#x3be;" horiz-adv-x="300" 
d="M262 -120h-18q9 48 9 66q0 29 -11.5 39.5t-46.5 10.5q-81 0 -119.5 57.5t-38.5 146.5q0 69 29 122.5t84 74.5v2q-49 16 -76 55t-27 97q0 91 42 134t112 43q54 0 87 -16v-19q-37 16 -86 16q-137 0 -137 -159q0 -63 37.5 -102.5t100.5 -39.5h57v-19h-60q-64 0 -104.5 -55.5
t-40.5 -133.5q0 -82 34 -134t106 -52q76 0 76 -66q0 -20 -9 -68z" />
    <glyph glyph-name="omicron" unicode="&#x3bf;" 
d="M204 -12q-167 0 -167 270t167 270q166 0 166 -270t-166 -270zM57 258q0 -252 147 -252q77 0 111.5 62t34.5 190t-34.5 190t-111.5 62q-147 0 -147 -252z" />
    <glyph glyph-name="pi" unicode="&#x3c0;" horiz-adv-x="410" 
d="M11 516h381v-18h-69v-426q0 -37 7.5 -51.5t29.5 -14.5q11 0 22 4l1 -18q-11 -4 -24 -4q-33 0 -44.5 20t-11.5 62v428h-202v-498h-20v498h-70v18z" />
    <glyph glyph-name="rho" unicode="&#x3c1;" horiz-adv-x="403" 
d="M47 -176v441q0 263 163 263q80 0 118 -71t38 -189q0 -64 -7.5 -112.5t-25 -87.5t-49 -59.5t-76.5 -20.5q-103 0 -138 116h-3v-280h-20zM66 255q0 -50 7.5 -92.5t23 -78.5t44 -57t67.5 -21q71 0 104.5 64.5t33.5 197.5q0 114 -34 178t-102 64q-144 0 -144 -255z" />
    <glyph glyph-name="sigma1" unicode="&#x3c2;" horiz-adv-x="372" 
d="M347 398h-22q-11 56 -45.5 84t-75.5 28q-75 0 -111 -61t-36 -190q0 -130 40 -187.5t120 -57.5q44 0 60.5 -17.5t16.5 -49.5q0 -26 -8 -67h-19q9 48 9 67q0 27 -11.5 38t-48.5 11q-83 0 -131 58t-48 208q0 58 7.5 102.5t25.5 83.5t52 59.5t83 20.5q47 0 88 -32.5t54 -97.5
z" />
    <glyph glyph-name="sigma" unicode="&#x3c3;" horiz-adv-x="414" 
d="M37 258q0 257 171 257l186 1v-18h-102q43 -34 57.5 -94t14.5 -149q0 -267 -161 -267q-166 0 -166 270zM57 256q0 -250 143 -250q79 0 111.5 62t32.5 188q0 95 -14.5 150t-58.5 92h-61q-77 0 -115 -58t-38 -184z" />
    <glyph glyph-name="tau" unicode="&#x3c4;" horiz-adv-x="316" 
d="M136 498h-126v18h294v-18h-147v-414q0 -78 53 -78q22 0 45 9v-18q-23 -9 -46 -9q-73 0 -73 96v414z" />
    <glyph glyph-name="upsilon" unicode="&#x3c5;" horiz-adv-x="366" 
d="M51 516h20v-359q0 -82 25 -116.5t83 -34.5q40 0 66.5 19t40 57t18.5 82.5t5 109.5q0 137 -43 242h23q40 -110 40 -240q0 -155 -36.5 -221.5t-115.5 -66.5q-126 0 -126 170v358z" />
    <glyph glyph-name="phi" unicode="&#x3c6;" horiz-adv-x="448" 
d="M214 529v126h20v-126q91 -7 134 -73.5t43 -194.5q0 -270 -176 -272v-155h-22v155q-79 1 -127.5 63.5t-48.5 202.5q0 130 42.5 197.5t134.5 76.5zM234 509v-502q80 -1 118.5 66.5t38.5 186.5q0 116 -36.5 179.5t-120.5 69.5zM214 7v502q-80 -2 -118.5 -70.5t-38.5 -183.5
q0 -116 40 -181.5t117 -66.5z" />
    <glyph glyph-name="chi" unicode="&#x3c7;" horiz-adv-x="280" 
d="M-10 -177l134 352l-130 341h21l120 -321l117 321h20l-127 -341l145 -352h-21l-135 332l-124 -332h-20z" />
    <glyph glyph-name="psi" unicode="&#x3c8;" horiz-adv-x="427" 
d="M223 644v-637q147 12 147 257q0 140 -43 252h23q40 -108 40 -250q0 -267 -167 -277v-166h-20v166q-95 6 -123.5 55t-28.5 188v284h20v-285q0 -55 2 -85.5t9 -60.5t21.5 -44t38.5 -23t61 -11v637h20z" />
    <glyph glyph-name="omega" unicode="&#x3c9;" horiz-adv-x="501" 
d="M245 160v231h20v-231q0 -154 74 -154q48 0 76.5 69t28.5 181q0 157 -43 260h22q41 -101 41 -260q0 -118 -32 -193t-94 -75q-71 0 -82 103h-2q-16 -103 -92 -103q-61 -1 -93 74t-32 193q0 160 41 261h22q-43 -103 -43 -261q0 -112 28.5 -180.5t76.5 -68.5q83 0 83 154z
" />
    <glyph glyph-name="iotadieresis" unicode="&#x3ca;" horiz-adv-x="138" 
d="M50 516h20v-444q0 -37 7.5 -51.5t29.5 -14.5q15 0 22 5l1 -18q-7 -5 -24 -5q-20 0 -32.5 7.5t-17 24t-5.5 27.5t-1 33v436zM118 609v103h20v-103h-20zM-8 609v103h20v-103h-20z" />
    <glyph glyph-name="upsilondieresis" unicode="&#x3cb;" horiz-adv-x="366" 
d="M51 516h20v-359q0 -82 25 -116.5t83 -34.5q40 0 66.5 19t40 57t18.5 82.5t5 109.5q0 137 -43 242h23q40 -110 40 -240q0 -155 -36.5 -221.5t-115.5 -66.5q-126 0 -126 170v358zM219 609v103h20v-103h-20zM93 609v103h20v-103h-20z" />
    <glyph glyph-name="omicrontonos" unicode="&#x3cc;" 
d="M191 592l40 138h28l-51 -138h-17zM204 -12q-167 0 -167 270t167 270q166 0 166 -270t-166 -270zM57 258q0 -252 147 -252q77 0 111.5 62t34.5 190t-34.5 190t-111.5 62q-147 0 -147 -252z" />
    <glyph glyph-name="upsilontonos" unicode="&#x3cd;" horiz-adv-x="366" 
d="M160 592l40 138h28l-51 -138h-17zM51 516h20v-359q0 -82 25 -116.5t83 -34.5q40 0 66.5 19t40 57t18.5 82.5t5 109.5q0 137 -43 242h23q40 -110 40 -240q0 -155 -36.5 -221.5t-115.5 -66.5q-126 0 -126 170v358z" />
    <glyph glyph-name="omegatonos" unicode="&#x3ce;" horiz-adv-x="501" 
d="M244 592l40 138h28l-51 -138h-17zM245 160v231h20v-231q0 -154 74 -154q48 0 76.5 69t28.5 181q0 157 -43 260h22q41 -101 41 -260q0 -118 -32 -193t-94 -75q-71 0 -82 103h-2q-16 -103 -92 -103q-61 -1 -93 74t-32 193q0 160 41 261h22q-43 -103 -43 -261
q0 -112 28.5 -180.5t76.5 -68.5q83 0 83 154z" />
    <glyph glyph-name="uni0400" unicode="&#x400;" 
d="M217 765l-83 139h20l83 -139h-20zM58 0v714h325v-18h-305v-314h283v-18h-283v-346h313v-18h-333z" />
    <glyph glyph-name="afii10023" unicode="&#x401;" 
d="M275 783v103h20v-103h-20zM149 783v103h20v-103h-20zM58 0v714h325v-18h-305v-314h283v-18h-283v-346h313v-18h-333z" />
    <glyph glyph-name="afii10051" unicode="&#x402;" horiz-adv-x="566" 
d="M528 176q0 -133 -49.5 -205t-134.5 -72v18q76 0 120 67.5t44 191.5q0 244 -154 244q-72 0 -115 -53t-43 -126v-241h-20v696h-176v18h418v-18h-222v-373q17 51 59 83t101 32q172 0 172 -262z" />
    <glyph glyph-name="afii10052" unicode="&#x403;" horiz-adv-x="382" 
d="M376 696h-298v-696h-20v714h318v-18zM179 765l83 139h20l-83 -139h-20z" />
    <glyph glyph-name="afii10053" unicode="&#x404;" horiz-adv-x="500" 
d="M473 215q-11 -101 -61.5 -164t-144.5 -63q-229 0 -229 369t230 369q84 0 134.5 -49.5t61.5 -141.5h-19q-10 82 -55.5 127.5t-121.5 45.5q-59 0 -101 -27.5t-64.5 -75.5t-33 -103t-11.5 -122h310v-18h-310v-6q0 -350 209 -350q85 0 130 57t56 152h20z" />
    <glyph glyph-name="afii10054" unicode="&#x405;" horiz-adv-x="463" 
d="M31 187v31h20v-31q0 -83 46 -132t129 -49q81 0 133.5 47t52.5 139q0 39 -14 67.5t-44 48t-52.5 29t-64.5 22.5q-48 15 -76.5 27.5t-57 33.5t-41.5 52.5t-13 75.5q0 28 9.5 57t29.5 57.5t57.5 46t87.5 17.5q96 0 141 -53t45 -126v-15h-20v17q0 75 -45 117t-123 42
q-77 0 -119.5 -48.5t-42.5 -115.5q0 -45 20 -76.5t52 -48.5t70.5 -30.5l77.5 -27.5t71 -33.5t52 -55t20 -85.5q0 -80 -51.5 -139.5t-153.5 -59.5q-98 0 -147 57.5t-49 141.5z" />
    <glyph glyph-name="afii10055" unicode="&#x406;" horiz-adv-x="148" 
d="M64 0v714h20v-714h-20z" />
    <glyph glyph-name="afii10056" unicode="&#x407;" horiz-adv-x="148" 
d="M127 783v103h20v-103h-20zM1 783v103h20v-103h-20zM64 0v714h20v-714h-20z" />
    <glyph glyph-name="afii10057" unicode="&#x408;" horiz-adv-x="389" 
d="M311 158v556h20v-559q0 -85 -40.5 -126t-111.5 -41q-83 0 -121 51t-38 132v40h20v-45q0 -77 35.5 -118.5t102.5 -41.5q133 0 133 152z" />
    <glyph glyph-name="afii10058" unicode="&#x409;" horiz-adv-x="822" 
d="M592 0h-182v696h-246l-13 -437q-4 -159 -30.5 -212.5t-97.5 -53.5q-19 0 -29 3v19q12 -3 28 -3q42 0 63 20t32 73.5t14 160.5l13 448h286v-324h176q88 0 136 -53t48 -139q0 -53 -17 -92.5t-46.5 -62t-63 -33t-71.5 -10.5zM430 372v-354h164q32 0 61.5 9t56 28.5
t42.5 56.5t16 87q0 77 -42.5 125t-124.5 48h-173z" />
    <glyph glyph-name="afii10059" unicode="&#x40a;" horiz-adv-x="822" 
d="M58 0v714h20v-324h332v324h20v-324h176q88 0 136 -53t48 -139q0 -53 -17 -92.5t-46.5 -62t-63 -33t-71.5 -10.5h-182v372h-332v-372h-20zM430 372v-354h164q32 0 61.5 9t56 28.5t42.5 56.5t16 87q0 77 -42.5 125t-124.5 48h-173z" />
    <glyph glyph-name="afii10060" unicode="&#x40b;" horiz-adv-x="574" 
d="M356 427q168 0 168 -176v-251h-20v247q0 162 -148 162q-70 0 -160 -32v-377h-20v696h-176v18h418v-18h-222v-301q90 32 160 32z" />
    <glyph glyph-name="afii10061" unicode="&#x40c;" horiz-adv-x="444" 
d="M191 765l83 139h20l-83 -139h-20zM58 0v714h20v-421h2l318 421h23l-229 -301l249 -413h-21l-240 398l-102 -135v-263h-20z" />
    <glyph glyph-name="uni040D" unicode="&#x40d;" horiz-adv-x="508" 
d="M450 714v-714h-20v696h-2l-341 -696h-29v714h20v-682h2l337 682h33zM254 765l-83 139h20l83 -139h-20z" />
    <glyph glyph-name="afii10062" unicode="&#x40e;" horiz-adv-x="444" 
d="M441 714l-222 -604q-23 -63 -51.5 -92.5t-70.5 -29.5q-19 0 -42 5v18q23 -5 42 -5q63 0 103 109l20 55l-215 544h22l204 -515l189 515h21zM118 890h20q12 -93 86 -93q41 0 63 29.5t25 63.5h20q-6 -50 -33 -80.5t-76 -30.5q-45 0 -74 30t-31 81z" />
    <glyph glyph-name="afii10145" unicode="&#x40f;" horiz-adv-x="500" 
d="M422 714h20v-714h-182v-177h-20v177h-182v714h20v-696h344v696z" />
    <glyph glyph-name="afii10017" unicode="&#x410;" horiz-adv-x="481" 
d="M2 0l227 714h24l226 -714h-20l-73 232h-291l-73 -232h-20zM101 250h280l-139 446h-2z" />
    <glyph glyph-name="afii10018" unicode="&#x411;" horiz-adv-x="474" 
d="M78 696v-299h175q88 0 136.5 -53.5t48.5 -141.5q0 -71 -31 -118.5t-74 -65.5t-94 -18h-181v714h341v-18h-321zM78 379v-361h163q32 0 61.5 9t56.5 29t43 58t16 89q0 79 -43 127.5t-125 48.5h-172z" />
    <glyph glyph-name="afii10019" unicode="&#x412;" horiz-adv-x="481" 
d="M58 0v714h182q89 0 136.5 -44.5t47.5 -121.5q0 -161 -134 -173v-2q74 -2 115 -51t41 -126q0 -95 -52.5 -145.5t-146.5 -50.5h-189zM78 382h152q83 0 128.5 35t45.5 125q0 154 -165 154h-161v-314zM78 18h152q99 0 147.5 43.5t48.5 133.5q0 169 -185 169h-163v-346z" />
    <glyph glyph-name="afii10020" unicode="&#x413;" horiz-adv-x="382" 
d="M376 696h-298v-696h-20v714h318v-18z" />
    <glyph glyph-name="afii10021" unicode="&#x414;" horiz-adv-x="530" 
d="M523 -177h-20v177h-474v-177h-20v195h44q99 170 99 452v244h302v-696h69v-195zM434 18v678h-262v-230q0 -282 -96 -448h358z" />
    <glyph glyph-name="afii10022" unicode="&#x415;" 
d="M58 0v714h325v-18h-305v-314h283v-18h-283v-346h313v-18h-333z" />
    <glyph glyph-name="afii10024" unicode="&#x416;" horiz-adv-x="700" 
d="M699 0h-21l-216 400l-102 -146v-254h-20v253l-102 146l-216 -399h-21l224 415l-205 297h24l296 -429v429h20v-429l296 429h24l-206 -295z" />
    <glyph glyph-name="afii10025" unicode="&#x417;" horiz-adv-x="463" 
d="M428 201q0 -96 -53 -154.5t-145 -58.5q-96 0 -149.5 55t-53.5 152v16h20v-14q0 -86 47.5 -138.5t135.5 -52.5q82 0 130 52.5t48 140.5q0 79 -49 122t-137 43h-42v18h42q75 0 120 44.5t45 119.5t-42 118.5t-115 43.5q-80 0 -122.5 -45.5t-44.5 -128.5h-20q1 92 50.5 142
t136.5 50q81 0 129 -48.5t48 -129.5q0 -68 -34.5 -114.5t-93.5 -58.5q69 -11 109 -56.5t40 -117.5z" />
    <glyph glyph-name="afii10026" unicode="&#x418;" horiz-adv-x="508" 
d="M450 714v-714h-20v696h-2l-341 -696h-29v714h20v-682h2l337 682h33z" />
    <glyph glyph-name="afii10027" unicode="&#x419;" horiz-adv-x="508" 
d="M450 714v-714h-20v696h-2l-341 -696h-29v714h20v-682h2l337 682h33zM152 890h20q12 -93 86 -93q41 0 63 29.5t25 63.5h20q-6 -50 -33 -80.5t-76 -30.5q-45 0 -74 30t-31 81z" />
    <glyph glyph-name="afii10028" unicode="&#x41a;" horiz-adv-x="444" 
d="M58 0v714h20v-421h2l318 421h23l-229 -301l249 -413h-21l-240 398l-102 -135v-263h-20z" />
    <glyph glyph-name="afii10029" unicode="&#x41b;" horiz-adv-x="500" 
d="M442 0h-20v696h-258l-13 -437q-4 -159 -30.5 -212.5t-97.5 -53.5q-19 0 -29 3v19q12 -3 28 -3q42 0 63 20t32 73.5t14 160.5l13 448h298v-714z" />
    <glyph glyph-name="afii10030" unicode="&#x41c;" horiz-adv-x="630" 
d="M55 0v714h33l227 -682h2l226 682h32v-714h-20v688l-2 2v-2l-226 -688h-24l-226 688h-2v-688h-20z" />
    <glyph glyph-name="afii10031" unicode="&#x41d;" horiz-adv-x="500" 
d="M58 0v714h20v-324h344v324h20v-714h-20v372h-344v-372h-20z" />
    <glyph glyph-name="afii10032" unicode="&#x41e;" horiz-adv-x="537" 
d="M38 357q0 75 11 137t35.5 116.5t71.5 85t113 30.5q230 0 230 -369q0 -75 -11 -137t-35.5 -116.5t-71.5 -85t-113 -30.5q-230 0 -230 369zM58 357q0 -351 210 -351q60 0 102.5 28.5t65.5 80t33 110.5t10 132q0 351 -210 351q-60 0 -102.5 -28.5t-65.5 -80t-33 -110.5
t-10 -132z" />
    <glyph glyph-name="afii10033" unicode="&#x41f;" horiz-adv-x="500" 
d="M442 0h-20v696h-344v-696h-20v714h384v-714z" />
    <glyph glyph-name="afii10034" unicode="&#x420;" horiz-adv-x="463" 
d="M58 0v714h196q75 0 123 -51t48 -139q0 -99 -58 -147.5t-137 -48.5h-152v-328h-20zM78 696v-350h154q31 0 59.5 9t55 28t42.5 55.5t16 86.5q0 76 -40.5 123.5t-116.5 47.5h-170z" />
    <glyph glyph-name="afii10035" unicode="&#x421;" horiz-adv-x="500" 
d="M266 -12q-54 0 -95 22t-66 57t-40.5 84.5t-21 99t-5.5 106.5t5.5 106.5t21 99t40.5 84.5t66 57t95 22t94 -21t61 -55t31.5 -68.5t12.5 -71.5h-20q-4 87 -49 142.5t-129 55.5q-209 0 -209 -351t209 -351q42 0 75.5 17.5t53 42t33 58.5t19 59.5t8.5 53.5h20q-5 -49 -18 -90
t-36.5 -78.5t-63.5 -59t-92 -21.5z" />
    <glyph glyph-name="afii10036" unicode="&#x422;" horiz-adv-x="408" 
d="M194 0v696h-194v18h408v-18h-194v-696h-20z" />
    <glyph glyph-name="afii10037" unicode="&#x423;" horiz-adv-x="444" 
d="M441 714l-222 -604q-23 -63 -51.5 -92.5t-70.5 -29.5q-19 0 -42 5v18q23 -5 42 -5q63 0 103 109l20 55l-215 544h22l204 -515l189 515h21z" />
    <glyph glyph-name="afii10038" unicode="&#x424;" horiz-adv-x="668" 
d="M344 0h-20v74h-9q-125 0 -201 70.5t-76 213.5q0 142 76 213t201 71h9v72h20v-72h9q125 0 201 -70.5t76 -213.5q0 -142 -76 -213t-201 -71h-9v-74zM610 358q0 134 -70.5 200t-187.5 66h-8v-532h8q117 0 187.5 65.5t70.5 200.5zM58 358q0 -134 70.5 -200t187.5 -66h8v532
h-8q-117 0 -187.5 -65.5t-70.5 -200.5z" />
    <glyph glyph-name="afii10039" unicode="&#x425;" horiz-adv-x="444" 
d="M6 0l206 369l-193 345h21l183 -327l183 327h20l-192 -345l205 -369h-21l-196 351l-196 -351h-20z" />
    <glyph glyph-name="afii10040" unicode="&#x426;" horiz-adv-x="518" 
d="M422 714h20v-696h69v-195h-20v177h-433v714h20v-696h344v696z" />
    <glyph glyph-name="afii10041" unicode="&#x427;" horiz-adv-x="463" 
d="M213 305q-170 0 -170 171v238h20v-234q0 -85 39 -121t113 -36q73 0 170 33v358h20v-714h-20v338q-97 -33 -172 -33z" />
    <glyph glyph-name="afii10042" unicode="&#x428;" horiz-adv-x="766" 
d="M688 714h20v-714h-650v714h20v-696h295v696h20v-696h295v696z" />
    <glyph glyph-name="afii10043" unicode="&#x429;" horiz-adv-x="784" 
d="M688 714h20v-696h69v-195h-20v177h-699v714h20v-696h295v696h20v-696h295v696z" />
    <glyph glyph-name="afii10044" unicode="&#x42a;" horiz-adv-x="600" 
d="M188 0v696h-188v18h208v-311h172q90 0 139 -54t49 -144q0 -106 -59 -155.5t-143 -49.5h-178zM208 385v-367h160q34 0 63.5 9.5t57 29.5t43.5 58.5t16 90.5q0 82 -43 130.5t-128 48.5h-169z" />
    <glyph glyph-name="afii10045" unicode="&#x42b;" horiz-adv-x="611" 
d="M533 0v714h20v-714h-20zM58 0v714h20v-311h172q90 0 139 -54t49 -144q0 -106 -59 -155.5t-143 -49.5h-178zM78 385v-367h160q34 0 63.5 9.5t57 29.5t43.5 58.5t16 90.5q0 82 -43 130.5t-128 48.5h-169z" />
    <glyph glyph-name="afii10046" unicode="&#x42c;" horiz-adv-x="470" 
d="M58 0v714h20v-311h172q90 0 139 -54t49 -144q0 -106 -59 -155.5t-143 -49.5h-178zM78 385v-367h160q34 0 63.5 9.5t57 29.5t43.5 58.5t16 90.5q0 82 -43 130.5t-128 48.5h-169z" />
    <glyph glyph-name="afii10047" unicode="&#x42d;" horiz-adv-x="500" 
d="M27 215h20q7 -94 53 -151.5t131 -57.5q58 0 100.5 28t66 78t34 110t10.5 134v6h-310v18h310q-4 328 -201 328q-75 0 -123 -45.5t-63 -127.5h-19q17 92 69.5 141.5t135.5 49.5q64 0 109 -28.5t68.5 -81.5t33.5 -115.5t10 -143.5q0 -80 -12 -144t-38 -116t-72 -80.5
t-109 -28.5q-94 0 -145.5 63t-58.5 164z" />
    <glyph glyph-name="afii10048" unicode="&#x42e;" horiz-adv-x="700" 
d="M201 357v5h-123v-362h-20v714h20v-334h123q8 346 231 346q230 0 230 -369q0 -75 -11 -137t-35.5 -116.5t-71.5 -85t-113 -30.5q-230 0 -230 369zM221 357q0 -351 210 -351q60 0 102.5 28.5t65.5 80t33 110.5t10 132q0 351 -210 351q-60 0 -102.5 -28.5t-65.5 -80
t-33 -110.5t-10 -132z" />
    <glyph glyph-name="afii10049" unicode="&#x42f;" horiz-adv-x="481" 
d="M22 0l196 327q-86 7 -130.5 56.5t-44.5 135.5q0 95 54 145t147 50h179v-714h-20v327h-163l-195 -327h-23zM403 345v351h-157q-84 0 -133.5 -45t-49.5 -132q0 -85 46.5 -129.5t133.5 -44.5h160z" />
    <glyph glyph-name="afii10065" unicode="&#x430;" horiz-adv-x="370" 
d="M29 135q0 114 123 138q79 16 105 26q22 7 31 25.5t9 61.5q0 58 -20 85q-29 39 -87 39q-121 0 -121 -137h-20v17q0 57 35.5 97.5t105.5 40.5q55 0 91 -31.5t36 -92.5v-339q0 -49 30 -47q6 0 20 2v-18q-10 -2 -14 -2h-10q-23 0 -34.5 13.5t-11.5 53.5v20h-2
q-18 -46 -52.5 -72.5t-82.5 -26.5q-62 0 -96.5 39t-34.5 108zM297 189v117q-21 -25 -135 -47q-61 -12 -87 -42t-26 -84q0 -63 31.5 -95t82.5 -32q49 0 91.5 45.5t42.5 137.5z" />
    <glyph glyph-name="afii10066" unicode="&#x431;" 
d="M370 253q0 -265 -164 -265t-164 284q0 55 1.5 91t6 84.5t15 80.5t27 63.5t44 50.5t63.5 26l84 16q40 7 48 30h20q-9 -37 -65 -48l-80 -15q-74 -14 -104.5 -79.5t-41.5 -186.5h2q35 131 149 131q159 0 159 -263zM350 253q0 245 -139 245q-150 0 -150 -245q0 -121 37 -184
t108 -63q74 0 109 59t35 188z" />
    <glyph glyph-name="afii10067" unicode="&#x432;" horiz-adv-x="370" 
d="M341 141q0 -68 -39.5 -104.5t-105.5 -36.5h-143v516h136q64 0 99.5 -33.5t35.5 -92.5q0 -47 -25.5 -80t-75.5 -40q57 -5 87.5 -39t30.5 -90zM304 390q0 51 -29 79.5t-87 28.5h-115v-220h101q130 0 130 112zM321 141q0 119 -144 119h-104v-242h115q133 0 133 123z" />
    <glyph glyph-name="afii10068" unicode="&#x433;" horiz-adv-x="300" 
d="M306 498h-233v-498h-20v516h253v-18z" />
    <glyph glyph-name="afii10069" unicode="&#x434;" horiz-adv-x="408" 
d="M403 -160h-20v160h-358v-160h-20v178h42q75 133 75 331v167h222v-498h59v-178zM324 18v480h-182v-156q0 -193 -73 -324h255z" />
    <glyph glyph-name="afii10070" unicode="&#x435;" horiz-adv-x="389" 
d="M357 269h-300q0 -126 33 -194.5t112 -68.5q45 0 76 29t42 63t13 70h20q-4 -78 -45 -129t-106 -51q-86 0 -125.5 70.5t-39.5 214.5q0 255 165 255q57 0 93 -32.5t49 -80t13 -110.5v-36zM57 287h280v35q0 46 -9.5 85t-41.5 71t-84 32q-139 0 -145 -223z" />
    <glyph glyph-name="afii10072" unicode="&#x436;" horiz-adv-x="538" 
d="M547 0h-22l-159 293l-87 -123v-170h-20v170l-87 123l-159 -293h-22l168 310l-145 206h24l221 -314v314h20v-314l221 314h24l-145 -205z" />
    <glyph glyph-name="afii10073" unicode="&#x437;" horiz-adv-x="350" 
d="M320 143q0 -70 -39.5 -112.5t-108.5 -42.5q-71 0 -111 41t-40 114v11h20v-9q0 -67 33 -103t98 -36q61 0 94.5 36t33.5 100q0 57 -34.5 87.5t-99.5 30.5h-34v18h34q56 0 87.5 31.5t31.5 86.5q0 53 -30.5 83.5t-82.5 30.5q-119 0 -122 -127h-20q1 70 38.5 107.5t103.5 37.5
q61 0 97 -36t36 -96q0 -46 -24 -80t-65 -45q48 -10 76 -44t28 -84z" />
    <glyph glyph-name="afii10074" unicode="&#x438;" horiz-adv-x="400" 
d="M347 516v-516h-20v488h-2l-244 -488h-28v516h20v-488h2l244 488h28z" />
    <glyph glyph-name="afii10075" unicode="&#x439;" horiz-adv-x="400" 
d="M347 516v-516h-20v488h-2l-244 -488h-28v516h20v-488h2l244 488h28zM95 716h20q12 -93 86 -93q41 0 63 29.5t25 63.5h20q-6 -50 -33 -80.5t-76 -30.5q-45 0 -74 30t-31 81z" />
    <glyph glyph-name="afii10076" unicode="&#x43a;" horiz-adv-x="352" 
d="M51 0v516h20v-294l244 294h26l-162 -194l191 -322h-23l-182 306l-94 -112v-194h-20z" />
    <glyph glyph-name="afii10077" unicode="&#x43b;" horiz-adv-x="389" 
d="M336 0h-20v498h-191l-9 -321q-3 -97 -25.5 -139t-71.5 -42q-15 0 -33 3v19q18 -3 32 -3q41 0 58.5 39t19.5 129l9 333h231v-516z" />
    <glyph glyph-name="afii10078" unicode="&#x43c;" horiz-adv-x="500" 
d="M53 0v516h34l162 -488h2l163 488h33v-516h-20v492h-2l-164 -492h-23l-163 492h-2v-492h-20z" />
    <glyph glyph-name="afii10079" unicode="&#x43d;" horiz-adv-x="389" 
d="M336 0h-20v267h-243v-267h-20v516h20v-231h243v231h20v-516z" />
    <glyph glyph-name="afii10080" unicode="&#x43e;" 
d="M204 -12q-167 0 -167 270t167 270q166 0 166 -270t-166 -270zM57 258q0 -252 147 -252q77 0 111.5 62t34.5 190t-34.5 190t-111.5 62q-147 0 -147 -252z" />
    <glyph glyph-name="afii10081" unicode="&#x43f;" horiz-adv-x="389" 
d="M336 0h-20v498h-243v-498h-20v516h283v-516z" />
    <glyph glyph-name="afii10082" unicode="&#x440;" 
d="M51 -176v692h20v-111h3q33 123 136 123q160 0 160 -275q0 -265 -160 -265q-53 0 -87 33t-49 83h-3v-280h-20zM71 258q0 -126 37 -189t102 -63q140 0 140 243q0 56 -6 99t-20.5 81.5t-43 59.5t-69.5 21q-66 0 -103 -63.5t-37 -188.5z" />
    <glyph glyph-name="afii10083" unicode="&#x441;" horiz-adv-x="370" 
d="M348 373h-20q-2 56 -35.5 96.5t-90.5 40.5q-145 0 -145 -252t145 -252q45 0 76 29t42 63t13 70h20q-4 -78 -45 -129t-106 -51q-86 0 -125.5 70.5t-39.5 214.5q0 255 165 255q64 0 105 -46.5t41 -108.5z" />
    <glyph glyph-name="afii10084" unicode="&#x442;" horiz-adv-x="342" 
d="M340 498h-159v-498h-20v498h-159v18h338v-18z" />
    <glyph glyph-name="afii10085" unicode="&#x443;" horiz-adv-x="315" 
d="M153 -4l-151 520h20l140 -491l-1 1h2l131 490h19l-146 -537q-24 -93 -48.5 -124t-76.5 -31q-13 0 -27 2v18q16 -2 30 -2q34 0 56 19q26 26 52 135z" />
    <glyph glyph-name="afii10086" unicode="&#x444;" horiz-adv-x="610" 
d="M295 -176v207q0 18 1 45q-13 -40 -44 -64t-71 -24q-144 0 -144 277q0 263 146 263q39 0 69 -23t44 -62q-1 22 -1 51v220h20v-220q0 -29 -1 -51q15 40 45.5 62.5t69.5 22.5q144 0 144 -263q0 -277 -147 -277q-40 0 -70.5 24.5t-41.5 63.5q1 -27 1 -45v-207h-20zM553 266
q0 29 -1 51.5t-5 53.5t-12.5 53.5t-21.5 43t-34.5 31.5t-49.5 11q-45 0 -74 -30.5t-40 -76.5v-272q8 -54 35.5 -89.5t76.5 -35.5q126 0 126 260zM57 266q0 -260 125 -260q49 0 77 35.5t36 89.5v272q-11 46 -39.5 76.5t-73.5 30.5q-125 0 -125 -244z" />
    <glyph glyph-name="afii10087" unicode="&#x445;" horiz-adv-x="315" 
d="M14 0l134 265l-130 251h21l120 -231l117 231h20l-127 -251l132 -265h-21l-122 245l-124 -245h-20z" />
    <glyph glyph-name="afii10088" unicode="&#x446;" horiz-adv-x="400" 
d="M395 -160h-20v160h-322v516h20v-498h243v498h20v-498h59v-178z" />
    <glyph glyph-name="afii10089" unicode="&#x447;" horiz-adv-x="364" 
d="M311 0h-20v239q-66 -20 -121 -20q-128 0 -128 127v170h20v-170q0 -59 27 -84t83 -25q53 0 119 20v259h20v-516z" />
    <glyph glyph-name="afii10090" unicode="&#x448;" horiz-adv-x="592" 
d="M539 0h-486v516h20v-498h213v498h20v-498h213v498h20v-516z" />
    <glyph glyph-name="afii10091" unicode="&#x449;" horiz-adv-x="603" 
d="M598 -160h-20v160h-525v516h20v-498h213v498h20v-498h213v498h20v-498h59v-178z" />
    <glyph glyph-name="afii10092" unicode="&#x44a;" horiz-adv-x="444" 
d="M267 0h-133v498h-132v18h152v-220h120q68 0 104.5 -39.5t36.5 -105.5q0 -76 -42 -113.5t-106 -37.5zM154 278v-260h117q55 0 89.5 31.5t34.5 101.5q0 59 -31 93t-92 34h-118z" />
    <glyph glyph-name="afii10093" unicode="&#x44b;" horiz-adv-x="486" 
d="M413 0v516h20v-516h-20zM186 0h-133v516h20v-220h120q68 0 104.5 -39.5t36.5 -105.5q0 -76 -42 -113.5t-106 -37.5zM73 278v-260h117q55 0 89.5 31.5t34.5 101.5q0 59 -31 93t-92 34h-118z" />
    <glyph glyph-name="afii10094" unicode="&#x44c;" horiz-adv-x="363" 
d="M186 0h-133v516h20v-220h120q68 0 104.5 -39.5t36.5 -105.5q0 -76 -42 -113.5t-106 -37.5zM73 278v-260h117q55 0 89.5 31.5t34.5 101.5q0 59 -31 93t-92 34h-118z" />
    <glyph glyph-name="afii10095" unicode="&#x44d;" horiz-adv-x="370" 
d="M16 161h20q5 -70 39 -112.5t95 -42.5q145 0 145 254h-217v18h217q-1 49 -6.5 86t-20 72.5t-43.5 54.5t-72 19q-53 0 -87.5 -35t-45.5 -98h-20q11 70 51.5 110.5t101.5 40.5q47 0 80 -20t50 -58.5t24.5 -84t7.5 -106.5q0 -271 -165 -271q-71 0 -110.5 48.5t-43.5 124.5z
" />
    <glyph glyph-name="afii10096" unicode="&#x44e;" horiz-adv-x="530" 
d="M327 -12q-167 0 -167 270v4h-87v-262h-20v516h20v-236h87q8 248 167 248q166 0 166 -270t-166 -270zM180 258q0 -252 147 -252q77 0 111.5 62t34.5 190t-34.5 190t-111.5 62q-147 0 -147 -252z" />
    <glyph glyph-name="afii10097" unicode="&#x44f;" horiz-adv-x="370" 
d="M16 0l135 228q-55 7 -86 44.5t-31 96.5q0 67 40.5 107t113.5 40h129v-516h-20v226h-125l-134 -226h-22zM297 244v254h-110q-65 0 -99 -35t-34 -94t33 -92t92 -33h118z" />
    <glyph glyph-name="uni0450" unicode="&#x450;" horiz-adv-x="389" 
d="M199 591l-83 139h20l83 -139h-20zM357 269h-300q0 -126 33 -194.5t112 -68.5q45 0 76 29t42 63t13 70h20q-4 -78 -45 -129t-106 -51q-86 0 -125.5 70.5t-39.5 214.5q0 255 165 255q57 0 93 -32.5t49 -80t13 -110.5v-36zM57 287h280v35q0 46 -9.5 85t-41.5 71t-84 32
q-139 0 -145 -223z" />
    <glyph glyph-name="afii10071" unicode="&#x451;" horiz-adv-x="389" 
d="M253 609v103h20v-103h-20zM127 609v103h20v-103h-20zM357 269h-300q0 -126 33 -194.5t112 -68.5q45 0 76 29t42 63t13 70h20q-4 -78 -45 -129t-106 -51q-86 0 -125.5 70.5t-39.5 214.5q0 255 165 255q57 0 93 -32.5t49 -80t13 -110.5v-36zM57 287h280v35q0 46 -9.5 85
t-41.5 71t-84 32q-139 0 -145 -223z" />
    <glyph glyph-name="afii10099" unicode="&#x452;" horiz-adv-x="389" 
d="M229 597h-158v-184h2q10 41 46 73t88 32q131 0 131 -157v-361q0 -92 -39.5 -136.5t-124.5 -52.5v20q78 8 111 45.5t33 123.5v358q0 68 -25.5 105t-87.5 37q-20 0 -40.5 -8t-43 -26.5t-36.5 -56.5t-14 -90v-319h-20v597h-74v18h74v99h20v-99h158v-18z" />
    <glyph glyph-name="afii10100" unicode="&#x453;" horiz-adv-x="300" 
d="M306 498h-233v-498h-20v516h253v-18zM148 591l83 139h20l-83 -139h-20z" />
    <glyph glyph-name="afii10101" unicode="&#x454;" horiz-adv-x="370" 
d="M336 161h20q-6 -76 -45.5 -124.5t-109.5 -48.5q-164 0 -164 271q0 126 37.5 197.5t129.5 71.5q62 0 101.5 -40.5t46.5 -110.5h-20q-7 62 -40.5 97.5t-87.5 35.5q-143 0 -147 -232h217v-18h-217q0 -254 144 -254q61 0 94.5 42t40.5 113z" />
    <glyph glyph-name="afii10102" unicode="&#x455;" horiz-adv-x="333" 
d="M169 -12q-144 0 -144 158v16h20v-19q0 -137 122 -137q61 0 91 37t30 86q0 46 -26 74t-63 42.5l-74.5 30t-63.5 47t-26 81.5q0 52 32 84q36 40 100 40q68 0 98 -41t30 -99v-14h-20v17q0 119 -109 119q-52 0 -81.5 -30.5t-29.5 -79.5q0 -44 26 -71t63.5 -41.5l74.5 -29.5
t63 -46.5t26 -81.5q0 -60 -37 -101t-102 -41z" />
    <glyph glyph-name="afii10103" unicode="&#x456;" horiz-adv-x="130" 
d="M55 616v98h20v-98h-20zM55 0v516h20v-516h-20z" />
    <glyph glyph-name="afii10104" unicode="&#x457;" horiz-adv-x="130" 
d="M55 0v516h20v-516h-20zM118 609v103h20v-103h-20zM-8 609v103h20v-103h-20z" />
    <glyph glyph-name="afii10105" unicode="&#x458;" horiz-adv-x="130" 
d="M55 616v98h20v-98h-20zM55 -75v591h20v-589q0 -57 -22 -80t-68 -23h-13q-10 0 -13 1v18q5 -1 15 -1h12q39 0 54 18t15 65z" />
    <glyph glyph-name="afii10106" unicode="&#x459;" horiz-adv-x="613" 
d="M436 0h-130v498h-181l-9 -321q-3 -97 -25.5 -139t-71.5 -42q-15 0 -33 3v19q18 -3 32 -3q41 0 58.5 39t19.5 129l9 333h221v-225h117q69 0 105 -38t36 -105q0 -74 -42 -111t-106 -37zM326 273v-255h114q55 0 89.5 31t34.5 99q0 125 -123 125h-115z" />
    <glyph glyph-name="afii10107" unicode="&#x45a;" horiz-adv-x="613" 
d="M436 0h-130v273h-233v-273h-20v516h20v-225h233v225h20v-225h117q69 0 105 -38t36 -105q0 -74 -42 -111t-106 -37zM326 273v-255h114q55 0 89.5 31t34.5 99q0 125 -123 125h-115z" />
    <glyph glyph-name="afii10108" unicode="&#x45b;" horiz-adv-x="389" 
d="M229 597h-158v-184h2q10 41 46 73t88 32q131 0 131 -157v-361h-20v358q0 68 -25.5 105t-87.5 37q-20 0 -40.5 -8t-43 -26.5t-36.5 -56.5t-14 -90v-319h-20v597h-74v18h74v99h20v-99h158v-18z" />
    <glyph glyph-name="afii10109" unicode="&#x45c;" horiz-adv-x="352" 
d="M51 0v516h20v-294l244 294h26l-162 -194l191 -322h-23l-182 306l-94 -112v-194h-20zM154 591l83 139h20l-83 -139h-20z" />
    <glyph glyph-name="uni045D" unicode="&#x45d;" horiz-adv-x="400" 
d="M347 516v-516h-20v488h-2l-244 -488h-28v516h20v-488h2l244 488h28zM201 591l-83 139h20l83 -139h-20z" />
    <glyph glyph-name="afii10110" unicode="&#x45e;" horiz-adv-x="315" 
d="M153 -4l-151 520h20l140 -491l-1 1h2l131 490h19l-146 -537q-24 -93 -48.5 -124t-76.5 -31q-13 0 -27 2v18q16 -2 30 -2q34 0 56 19q26 26 52 135zM52 716h20q12 -93 86 -93q41 0 63 29.5t25 63.5h20q-6 -50 -33 -80.5t-76 -30.5q-45 0 -74 30t-31 81z" />
    <glyph glyph-name="afii10193" unicode="&#x45f;" horiz-adv-x="389" 
d="M184 -160v160h-131v516h20v-498h243v498h20v-516h-132v-160h-20z" />
    <glyph glyph-name="afii10146" unicode="&#x462;" horiz-adv-x="536" 
d="M124 0v593h-124v20h124v101h20v-101h187v-20h-187v-190h172q90 0 139 -54t49 -144q0 -106 -59 -155.5t-143 -49.5h-178zM144 385v-367h160q34 0 63.5 9.5t57 29.5t43.5 58.5t16 90.5q0 82 -43 130.5t-128 48.5h-169z" />
    <glyph glyph-name="afii10194" unicode="&#x463;" horiz-adv-x="430" 
d="M120 0v498h-118v18h118v198h20v-198h143v-18h-143v-202h120q68 0 104.5 -39.5t36.5 -105.5q0 -76 -42 -113.5t-106 -37.5h-133zM140 278v-260h117q55 0 89.5 31.5t34.5 101.5q0 59 -31 93t-92 34h-118z" />
    <glyph glyph-name="afii10147" unicode="&#x472;" horiz-adv-x="537" 
d="M38 357q0 75 11 137t35.5 116.5t71.5 85t113 30.5q230 0 230 -369q0 -75 -11 -137t-35.5 -116.5t-71.5 -85t-113 -30.5q-230 0 -230 369zM269 708q-57 0 -98.5 -26t-65 -72.5t-35 -101.5t-13.5 -122h423q-10 322 -211 322zM57 357q0 -73 10 -132t33 -110.5t65.5 -80
t102.5 -28.5t103 28.5t66 80t33 110.5t10 132v11h-423v-11z" />
    <glyph glyph-name="afii10195" unicode="&#x473;" 
d="M204 -12q-167 0 -167 270t167 270q166 0 166 -270t-166 -270zM204 510q-143 0 -148 -232h295q-3 118 -38 175t-109 57zM56 260q0 -254 148 -254q77 0 112 62.5t35 191.5h-295z" />
    <glyph glyph-name="afii10148" unicode="&#x474;" horiz-adv-x="486" 
d="M222 32l177 633q17 61 69 61q18 0 30 -4v-19q-13 5 -27 5q-40 0 -54 -50l-183 -658h-26l-202 714h20l194 -682h2z" />
    <glyph glyph-name="afii10196" unicode="&#x475;" horiz-adv-x="355" 
d="M165 18l112 452q14 58 63 58q13 0 25 -3v-18q-11 3 -21 3q-38 0 -49 -45l-118 -465h-26l-148 516h20l140 -498h2z" />
    <glyph glyph-name="afii10050" unicode="&#x490;" horiz-adv-x="382" 
d="M371 696h-293v-696h-20v714h293v157h20v-175z" />
    <glyph glyph-name="afii10098" unicode="&#x491;" horiz-adv-x="300" 
d="M302 498h-229v-498h-20v516h229v141h20v-159z" />
    <glyph glyph-name="Wgrave" unicode="&#x1e80;" horiz-adv-x="704" 
d="M174 0l-159 714h20l151 -682h2l150 682h28l147 -682h2l154 682h20l-162 -714h-26l-149 688h-2l-151 -688h-25zM352 765l-83 139h20l83 -139h-20z" />
    <glyph glyph-name="wgrave" unicode="&#x1e81;" horiz-adv-x="500" 
d="M116 0l-105 516h20l98 -498h2l105 498h29l102 -498h2l100 498h20l-108 -516h-27l-103 498h-2l-105 -498h-28zM250 591l-83 139h20l83 -139h-20z" />
    <glyph glyph-name="Wacute" unicode="&#x1e82;" horiz-adv-x="704" 
d="M174 0l-159 714h20l151 -682h2l150 682h28l147 -682h2l154 682h20l-162 -714h-26l-149 688h-2l-151 -688h-25zM335 765l83 139h20l-83 -139h-20z" />
    <glyph glyph-name="wacute" unicode="&#x1e83;" horiz-adv-x="500" 
d="M116 0l-105 516h20l98 -498h2l105 498h29l102 -498h2l100 498h20l-108 -516h-27l-103 498h-2l-105 -498h-28zM233 591l83 139h20l-83 -139h-20z" />
    <glyph glyph-name="Wdieresis" unicode="&#x1e84;" horiz-adv-x="704" 
d="M174 0l-159 714h20l151 -682h2l150 682h28l147 -682h2l154 682h20l-162 -714h-26l-149 688h-2l-151 -688h-25zM406 783v103h20v-103h-20zM280 783v103h20v-103h-20z" />
    <glyph glyph-name="wdieresis" unicode="&#x1e85;" horiz-adv-x="500" 
d="M116 0l-105 516h20l98 -498h2l105 498h29l102 -498h2l100 498h20l-108 -516h-27l-103 498h-2l-105 -498h-28zM304 609v103h20v-103h-20zM178 609v103h20v-103h-20z" />
    <glyph glyph-name="Ygrave" unicode="&#x1ef2;" horiz-adv-x="426" 
d="M203 0v301l-200 413h21l189 -392l190 392h20l-200 -413v-301h-20zM208 765l-83 139h20l83 -139h-20z" />
    <glyph glyph-name="ygrave" unicode="&#x1ef3;" horiz-adv-x="315" 
d="M153 -4l-151 520h20l140 -491l-1 1h2l131 490h19l-146 -537q-24 -93 -48.5 -124t-76.5 -31q-13 0 -27 2v18q16 -2 30 -2q34 0 56 19q26 26 52 135zM158 591l-83 139h20l83 -139h-20z" />
    <glyph glyph-name="uni2010" unicode="&#x2010;" horiz-adv-x="296" 
d="M231 263h-166v18h166v-18z" />
    <glyph glyph-name="endash" unicode="&#x2013;" horiz-adv-x="500" 
d="M0 281h500v-18h-500v18z" />
    <glyph glyph-name="emdash" unicode="&#x2014;" horiz-adv-x="1000" 
d="M1000 263h-1000v18h1000v-18z" />
    <glyph glyph-name="afii00208" unicode="&#x2015;" horiz-adv-x="1000" 
d="M1000 263h-1000v18h1000v-18z" />
    <glyph glyph-name="quoteleft" unicode="&#x2018;" horiz-adv-x="168" 
d="M73 495v103q0 79 42 116v-31l-3 -5q-4 -5 -6.5 -10.5t-6 -15t-5 -24t-1.5 -32.5v-101h-20z" />
    <glyph glyph-name="quoteright" unicode="&#x2019;" horiz-adv-x="168" 
d="M75 613v101h20v-103q0 -79 -42 -116v31q0 1 4.5 8t8 14.5t6.5 25t3 39.5z" />
    <glyph glyph-name="quotesinglbase" unicode="&#x201a;" horiz-adv-x="168" 
d="M75 -3v101h20v-103q0 -79 -42 -116v31q0 1 4.5 8t8 14.5t6.5 25t3 39.5z" />
    <glyph glyph-name="quotedblleft" unicode="&#x201c;" horiz-adv-x="259" 
d="M153 495v103q0 79 42 116v-31l-3 -5q-4 -5 -6.5 -10.5t-6 -15t-5 -24t-1.5 -32.5v-101h-20zM64 495v103q0 79 42 116v-31l-4 -5q-3 -5 -5.5 -10.5t-6 -15t-5 -24t-1.5 -32.5v-101h-20z" />
    <glyph glyph-name="quotedblright" unicode="&#x201d;" horiz-adv-x="259" 
d="M175 613v101h20v-103q0 -79 -42 -116v31q0 1 4.5 8t8 14.5t6.5 25t3 39.5zM86 613v101h20v-103q0 -79 -42 -116v31q0 1 4.5 8t8 14.5t6.5 25t3 39.5z" />
    <glyph glyph-name="quotedblbase" unicode="&#x201e;" horiz-adv-x="259" 
d="M175 -3v101h20v-103q0 -79 -42 -116v31q0 1 4.5 8t8 14.5t6.5 25t3 39.5zM86 -3v101h20v-103q0 -79 -42 -116v31q0 1 4.5 8t8 14.5t6.5 25t3 39.5z" />
    <glyph glyph-name="dagger" unicode="&#x2020;" horiz-adv-x="480" 
d="M230 -156v610h-183v18h183v242h20v-242h183v-18h-183v-610h-20z" />
    <glyph glyph-name="daggerdbl" unicode="&#x2021;" horiz-adv-x="480" 
d="M230 -156v219h-183v18h183v396h-183v18h183v219h20v-219h183v-18h-183v-396h183v-18h-183v-219h-20z" />
    <glyph glyph-name="bullet" unicode="&#x2022;" horiz-adv-x="500" 
d="M72 357q0 74 52 126t126 52t126 -52t52 -126t-52 -126t-126 -52t-126 52t-52 126z" />
    <glyph glyph-name="ellipsis" unicode="&#x2026;" horiz-adv-x="1000" 
d="M823 0v98h20v-98h-20zM490 0v98h20v-98h-20zM157 0v98h20v-98h-20z" />
    <glyph glyph-name="perthousand" unicode="&#x2030;" horiz-adv-x="926" 
d="M161 -18l298 732h20l-298 -732h-20zM54 536q0 84 32 128t88 44q124 0 120 -172q-1 -50 -13 -86t-31.5 -53.5t-38 -24.5t-37.5 -7q-120 0 -120 171zM274 536q0 73 -20.5 113.5t-79.5 40.5q-100 0 -100 -154q0 -153 100 -153q51 0 75.5 42.5t24.5 110.5zM632 159
q0 84 32 128t88 44q124 0 120 -172q-1 -50 -13 -86t-31.5 -53.5t-38 -24.5t-37.5 -7q-120 0 -120 171zM348 159q0 84 32 128t88 44q124 0 120 -172q-1 -50 -13 -86t-31.5 -53.5t-38 -24.5t-37.5 -7q-120 0 -120 171zM852 159q0 73 -20.5 113.5t-79.5 40.5q-100 0 -100 -154
q0 -153 100 -153q51 0 75.5 42.5t24.5 110.5zM568 159q0 73 -20.5 113.5t-79.5 40.5q-100 0 -100 -154q0 -153 100 -153q51 0 75.5 42.5t24.5 110.5z" />
    <glyph glyph-name="guilsinglleft" unicode="&#x2039;" horiz-adv-x="222" 
d="M160 128l-98 134v20l98 134v-29l-84 -115l84 -115v-29z" />
    <glyph glyph-name="guilsinglright" unicode="&#x203a;" horiz-adv-x="222" 
d="M62 155l84 117l-84 117v27h2l96 -134v-20l-96 -134h-2v27z" />
    <glyph glyph-name="interrobang" unicode="&#x203d;" 
d="M188 182v447q-57 -6 -97 -44t-40 -114v-9h-20v8q0 82 45.5 126.5t111.5 50.5v67h20v-66q77 0 122.5 -41.5t45.5 -107.5q0 -42 -17.5 -75.5t-42 -56l-49 -44t-42 -50.5t-17.5 -65v-26h-20zM356 498q0 60 -41 96t-107 36v-353q10 25 36.5 51t50 44.5t42.5 51.5t19 74z
M188 0v98h20v-98h-20z" />
    <glyph glyph-name="fraction" unicode="&#x2044;" horiz-adv-x="167" 
d="M-166 -30l479 756h20l-479 -756h-20z" />
    <glyph glyph-name="zero.superior" unicode="&#x2070;" horiz-adv-x="333" 
d="M167 829q71 0 101 -56t30 -164q0 -221 -131 -221q-71 0 -101 56t-30 164q0 221 131 221zM167 812q-113 0 -113 -204q0 -203 113 -203t113 204q0 203 -113 203z" />
    <glyph glyph-name="four.superior" unicode="&#x2074;" horiz-adv-x="333" 
d="M222 397v103h-198v17l199 303h17v-303h63v-17h-63v-103h-18zM222 788l-179 -271h179v271z" />
    <glyph glyph-name="five.superior" unicode="&#x2075;" horiz-adv-x="333" 
d="M271 803h-169l-31 -173q34 46 96 46q59 0 90.5 -38t31.5 -104q0 -67 -36 -106.5t-91 -39.5q-54 0 -88.5 33t-35.5 93h18q1 -52 30.5 -80.5t75.5 -28.5q47 0 78 35.5t31 93.5q0 57 -27.5 91t-78.5 34q-57 0 -98 -54h-17l36 215h185v-17z" />
    <glyph glyph-name="six.superior" unicode="&#x2076;" horiz-adv-x="333" 
d="M288 740h-18q-11 72 -91 72q-64 0 -93 -57.5t-29 -181.5q16 45 48.5 68.5t71.5 23.5q56 0 88.5 -35.5t32.5 -98.5q0 -67 -33 -105t-92 -38q-134 0 -134 206q0 235 140 235q48 0 75.5 -23.5t33.5 -65.5zM65 533q0 -58 29 -93t79 -35t78.5 32t28.5 92q0 58 -27.5 88.5
t-78.5 30.5q-46 0 -77.5 -35.5t-31.5 -79.5z" />
    <glyph glyph-name="seven.superior" unicode="&#x2077;" horiz-adv-x="333" 
d="M44 801v19h248v-17q-70 -74 -117.5 -179.5t-53.5 -226.5h-19q5 119 51.5 224t112.5 180h-222z" />
    <glyph glyph-name="eight.superior" unicode="&#x2078;" horiz-adv-x="333" 
d="M213 629q81 -23 81 -114q0 -59 -34.5 -93t-92.5 -34q-60 0 -94 33.5t-34 93.5q0 44 21.5 73.5t58.5 39.5q-62 24 -62 95q0 45 29.5 75.5t79.5 30.5q54 0 82 -30t28 -76q0 -71 -63 -94zM167 635q42 0 66.5 23.5t24.5 64.5q0 39 -23.5 64t-67.5 25t-68 -26t-24 -63
q0 -42 25 -65t67 -23zM167 405q51 0 80 28.5t29 81.5q0 47 -28 75.5t-81 28.5q-55 0 -82.5 -28t-27.5 -76q0 -52 29.5 -81t80.5 -29z" />
    <glyph glyph-name="nine.superior" unicode="&#x2079;" horiz-adv-x="333" 
d="M45 477h18q15 -72 91 -72q64 0 93 57t29 183q-16 -45 -48.5 -68t-71.5 -23q-55 0 -88 36t-33 98q0 66 34 103.5t93 37.5q132 0 132 -205q0 -236 -140 -236q-93 0 -109 89zM268 685q0 58 -28 92.5t-78 34.5t-79.5 -31.5t-29.5 -90.5q0 -57 27.5 -88t78.5 -31q46 0 77.5 35
t31.5 79z" />
    <glyph glyph-name="plus.superior" unicode="&#x207a;" horiz-adv-x="360" 
d="M171 559v143h18v-143h134v-18h-134v-144h-18v144h-134v18h134z" />
    <glyph glyph-name="minus.superior" unicode="&#x207b;" horiz-adv-x="225" 
d="M37 573h151v-18h-151v18z" />
    <glyph glyph-name="equal.superior" unicode="&#x207c;" horiz-adv-x="360" 
d="M37 620h286v-18h-286v18zM37 499h286v-18h-286v18z" />
    <glyph glyph-name="parenleft.superior" unicode="&#x207d;" horiz-adv-x="171" 
d="M55 597q0 146 81 279h16q-79 -138 -79 -279t79 -279h-16q-81 133 -81 279z" />
    <glyph glyph-name="parenright.superior" unicode="&#x207e;" horiz-adv-x="171" 
d="M116 597q0 -146 -81 -279h-16q79 138 79 279t-79 279h16q81 -133 81 -279z" />
    <glyph glyph-name="n.superior" unicode="&#x207f;" horiz-adv-x="333" 
d="M59 397v313h18v-60q29 69 101 69q48 0 72.5 -30t24.5 -78v-214h-18v208q0 98 -83 98q-43 0 -70 -32t-27 -73v-201h-18z" />
    <glyph glyph-name="zero.inferior" unicode="&#x2080;" horiz-adv-x="333" 
d="M167 263q71 0 101 -56t30 -164q0 -221 -131 -221q-71 0 -101 56t-30 164q0 221 131 221zM167 246q-113 0 -113 -204q0 -203 113 -203t113 204q0 203 -113 203z" />
    <glyph glyph-name="one.inferior" unicode="&#x2081;" horiz-adv-x="333" 
d="M178 -169v402h-2q-15 -27 -46.5 -48t-63.5 -26v18q66 11 106 77h25v-423h-19z" />
    <glyph glyph-name="two.inferior" unicode="&#x2082;" horiz-adv-x="333" 
d="M70 130h-18q0 62 32.5 97.5t87.5 35.5q50 0 81 -33t31 -86q0 -34 -15 -62.5t-38 -46.5l-50.5 -38l-52 -38t-42.5 -47t-21 -64h218v-17h-237q0 42 16.5 75.5t40.5 53.5t53 41l53 38.5t40.5 44t16.5 59.5q0 47 -26 75t-68 28q-48 0 -75 -31t-27 -85z" />
    <glyph glyph-name="three.inferior" unicode="&#x2083;" horiz-adv-x="333" 
d="M141 47v17h24q39 0 66.5 23.5t27.5 64.5q0 43 -23.5 68.5t-65.5 25.5q-95 0 -102 -105h-18q2 55 33 88.5t87 33.5q49 0 78 -30t29 -81q0 -34 -18.5 -59t-51.5 -36q40 -8 62.5 -37.5t22.5 -71.5q0 -59 -35.5 -92.5t-91.5 -33.5q-58 0 -91 33.5t-33 97.5h18q0 -57 28 -85.5
t78 -28.5q48 0 78.5 28.5t30.5 80.5q0 44 -28.5 71.5t-80.5 27.5h-24z" />
    <glyph glyph-name="four.inferior" unicode="&#x2084;" horiz-adv-x="333" 
d="M222 -169v103h-198v17l199 303h17v-303h63v-17h-63v-103h-18zM222 222l-179 -271h179v271z" />
    <glyph glyph-name="five.inferior" unicode="&#x2085;" horiz-adv-x="333" 
d="M271 237h-169l-31 -173q34 46 96 46q59 0 90.5 -38t31.5 -104q0 -67 -36 -106.5t-91 -39.5q-54 0 -88.5 33t-35.5 93h18q1 -52 30.5 -80.5t75.5 -28.5q47 0 78 35.5t31 93.5q0 57 -27.5 91t-78.5 34q-57 0 -98 -54h-17l36 215h185v-17z" />
    <glyph glyph-name="six.inferior" unicode="&#x2086;" horiz-adv-x="333" 
d="M288 174h-18q-11 72 -91 72q-64 0 -93 -57.5t-29 -181.5q16 45 48.5 68.5t71.5 23.5q56 0 88.5 -35.5t32.5 -98.5q0 -67 -33 -105t-92 -38q-134 0 -134 206q0 235 140 235q48 0 75.5 -23.5t33.5 -65.5zM65 -33q0 -58 29 -93t79 -35t78.5 32t28.5 92q0 58 -27.5 88.5
t-78.5 30.5q-46 0 -77.5 -35.5t-31.5 -79.5z" />
    <glyph glyph-name="seven.inferior" unicode="&#x2087;" horiz-adv-x="333" 
d="M44 235v19h248v-17q-70 -74 -117.5 -179.5t-53.5 -226.5h-19q5 119 51.5 224t112.5 180h-222z" />
    <glyph glyph-name="eight.inferior" unicode="&#x2088;" horiz-adv-x="333" 
d="M213 63q81 -23 81 -114q0 -59 -34.5 -93t-92.5 -34q-60 0 -94 33.5t-34 93.5q0 44 21.5 73.5t58.5 39.5q-62 24 -62 95q0 45 29.5 75.5t79.5 30.5q54 0 82 -30t28 -76q0 -71 -63 -94zM167 69q42 0 66.5 23.5t24.5 64.5q0 39 -23.5 64t-67.5 25t-68 -26t-24 -63
q0 -42 25 -65t67 -23zM167 -161q51 0 80 28.5t29 81.5q0 47 -28 75.5t-81 28.5q-55 0 -82.5 -28t-27.5 -76q0 -52 29.5 -81t80.5 -29z" />
    <glyph glyph-name="nine.inferior" unicode="&#x2089;" horiz-adv-x="333" 
d="M45 -89h18q15 -72 91 -72q64 0 93 57t29 183q-16 -45 -48.5 -68t-71.5 -23q-55 0 -88 36t-33 98q0 66 34 103.5t93 37.5q132 0 132 -205q0 -236 -140 -236q-93 0 -109 89zM268 119q0 58 -28 92.5t-78 34.5t-79.5 -31.5t-29.5 -90.5q0 -57 27.5 -88t78.5 -31q46 0 77.5 35
t31.5 79z" />
    <glyph glyph-name="plus.inferior" unicode="&#x208a;" horiz-adv-x="360" 
d="M171 -7v143h18v-143h134v-18h-134v-144h-18v144h-134v18h134z" />
    <glyph glyph-name="minus.inferior" unicode="&#x208b;" horiz-adv-x="225" 
d="M37 7h151v-18h-151v18z" />
    <glyph glyph-name="equal.inferior" unicode="&#x208c;" horiz-adv-x="360" 
d="M37 54h286v-18h-286v18zM37 -67h286v-18h-286v18z" />
    <glyph glyph-name="parenleft.inferior" unicode="&#x208d;" horiz-adv-x="171" 
d="M55 31q0 146 81 279h16q-79 -138 -79 -279t79 -279h-16q-81 133 -81 279z" />
    <glyph glyph-name="parenright.inferior" unicode="&#x208e;" horiz-adv-x="171" 
d="M116 31q0 -146 -81 -279h-16q79 138 79 279t-79 279h16q81 -133 81 -279z" />
    <glyph glyph-name="Euro" unicode="&#x20ac;" horiz-adv-x="480" 
d="M440 82v-28q-57 -63 -140 -63q-58 0 -101 26.5t-66.5 72.5t-35 94t-14.5 104h-48l7 17h41q-2 34 -2 52v21q0 8 2 22h-49l8 17h42q24 292 221 292q70 0 131 -47l-10 -17q-53 46 -122 46q-53 0 -92 -24.5t-60.5 -67t-32.5 -87t-14 -95.5h266l-7 -17h-260q-2 -24 -2 -35
q0 -10 0.5 -30t0.5 -30h238l-8 -17h-229q18 -279 196 -279q79 0 140 73z" />
    <glyph glyph-name="afii61248" unicode="&#x2105;" horiz-adv-x="750" 
d="M148 -34l429 748h20l-428 -748h-21zM281 376h18q-8 -52 -37 -81.5t-78 -29.5q-131 0 -131 221q0 220 131 220q100 0 114 -116h-18q-12 99 -96 99q-113 0 -113 -203q0 -204 113 -204q81 0 97 94zM566 432q71 0 101 -56t30 -164q0 -221 -131 -221q-71 0 -101 56t-30 164
q0 221 131 221zM566 415q-113 0 -113 -204q0 -203 113 -203t113 204q0 203 -113 203z" />
    <glyph glyph-name="afii61289" unicode="&#x2113;" horiz-adv-x="500" 
d="M286 -14q-44 0 -72.5 27t-28.5 88v164l-61 -71h-2l-10 10l73 83v274q0 79 27 119.5t67 40.5q36 0 58.5 -30t22.5 -83q0 -140 -157 -327v-177q0 -55 25.5 -78t59.5 -23q49 0 88 40h2l9 -11q-45 -46 -101 -46zM343 605q0 44 -19 71.5t-45 27.5q-32 0 -54 -35.5t-22 -107.5
v-258q65 79 102.5 158.5t37.5 143.5z" />
    <glyph glyph-name="afii61352" unicode="&#x2116;" horiz-adv-x="770" 
d="M57 0v696h33l319 -664h2v664h20v-696h-29l-323 678h-2v-678h-20zM492 286q0 76 30 120.5t88 44.5q59 0 88.5 -44t29.5 -121q0 -76 -30 -120.5t-88 -44.5q-59 0 -88.5 44t-29.5 121zM710 286q0 68 -25.5 108.5t-74.5 40.5t-74.5 -40t-25.5 -109q0 -68 25.5 -108.5
t74.5 -40.5t74.5 40t25.5 109zM724 18v-18h-230v18h230z" />
    <glyph glyph-name="published" unicode="&#x2117;" horiz-adv-x="800" 
d="M769 357q0 -153 -108 -261t-261 -108t-261 108t-108 261t108 261t261 108t261 -108t108 -261zM51 357q0 -146 102 -248.5t247 -102.5t247 102.5t102 248.5t-102 248.5t-247 102.5t-247 -102.5t-102 -248.5zM582 449q0 -60 -38.5 -94.5t-99.5 -34.5h-152v-184h-20v442h172
q62 0 100 -33.5t38 -95.5zM562 449q0 53 -33 82t-87 29h-150v-222h150q54 0 87 29t33 82z" />
    <glyph glyph-name="trademark" unicode="&#x2122;" horiz-adv-x="1000" 
d="M855 302v394h-2l-167 -394h-19l-166 394h-2v-394h-20v412h35l163 -386l164 386h34v-412h-20zM236 302v394h-149v18h318v-18h-149v-394h-20z" />
    <glyph glyph-name="Omega" unicode="&#x2126;" horiz-adv-x="537" 
d="M268 708q-210 0 -210 -351q0 -121 35.5 -212t107.5 -127v-18h-154v18h121q-67 43 -98.5 135t-31.5 204q0 78 11.5 141.5t37.5 116t72 82t109 29.5q64 0 110.5 -29t72 -81.5t37 -116t11.5 -142.5q0 -112 -32 -204t-99 -135h122v-18h-154v18q72 35 107.5 126t35.5 213
q0 351 -211 351z" />
    <glyph glyph-name="estimated" unicode="&#x212e;" horiz-adv-x="760" 
d="M719 345h-527v-236q77 -77 189 -77q82 0 143 37.5t109 119.5l46 -28q-61 -94 -129 -135t-169 -41q-151 0 -244 103t-93 257q0 155 93 258t244 103q150 0 243.5 -100.5t94.5 -260.5zM192 393h380v189q-82 78 -192 78t-188 -78v-189z" />
    <glyph glyph-name="onethird" unicode="&#x2153;" horiz-adv-x="721" 
d="M60 -30l479 756h20l-479 -756h-20zM152 274v402h-2q-15 -27 -46.5 -48t-63.5 -26v18q66 11 106 77h25v-423h-19zM519 216v17h24q39 0 66.5 23.5t27.5 64.5q0 43 -23.5 68.5t-65.5 25.5q-95 0 -102 -105h-18q2 55 33 88.5t87 33.5q49 0 78 -30t29 -81q0 -34 -18.5 -59
t-51.5 -36q40 -8 62.5 -37.5t22.5 -71.5q0 -59 -35.5 -92.5t-91.5 -33.5q-58 0 -91 33.5t-33 97.5h18q0 -57 28 -85.5t78 -28.5q48 0 78.5 28.5t30.5 80.5q0 44 -28.5 71.5t-80.5 27.5h-24z" />
    <glyph glyph-name="twothirds" unicode="&#x2154;" horiz-adv-x="721" 
d="M110 -30l479 756h20l-479 -756h-20zM70 573h-18q0 62 32.5 97.5t87.5 35.5q50 0 81 -33t31 -86q0 -34 -15 -62.5t-38 -46.5l-50.5 -38l-52 -38t-42.5 -47t-21 -64h213v-17h-232q0 42 16.5 75.5t40.5 53.5t53 41l53 38.5t40.5 44t16.5 59.5q0 47 -26 75t-68 28
q-48 0 -75 -31t-27 -85zM529 216v17h24q39 0 66.5 23.5t27.5 64.5q0 43 -23.5 68.5t-65.5 25.5q-95 0 -102 -105h-18q2 55 33 88.5t87 33.5q49 0 78 -30t29 -81q0 -34 -18.5 -59t-51.5 -36q40 -8 62.5 -37.5t22.5 -71.5q0 -59 -35.5 -92.5t-91.5 -33.5q-58 0 -91 33.5
t-33 97.5h18q0 -57 28 -85.5t78 -28.5q48 0 78.5 28.5t30.5 80.5q0 44 -28.5 71.5t-80.5 27.5h-24z" />
    <glyph glyph-name="oneeighth" unicode="&#x215b;" horiz-adv-x="721" 
d="M50 -30l479 756h20l-479 -756h-20zM152 274v402h-2q-15 -27 -46.5 -48t-63.5 -26v18q66 11 106 77h25v-423h-19zM569 232q81 -23 81 -114q0 -59 -34.5 -93t-92.5 -34q-60 0 -94 33.5t-34 93.5q0 44 21.5 73.5t58.5 39.5q-62 24 -62 95q0 45 29.5 75.5t79.5 30.5
q54 0 82 -30t28 -76q0 -71 -63 -94zM523 238q42 0 66.5 23.5t24.5 64.5q0 39 -23.5 64t-67.5 25t-68 -26t-24 -63q0 -42 25 -65t67 -23zM523 8q51 0 80 28.5t29 81.5q0 47 -28 75.5t-81 28.5q-55 0 -82.5 -28t-27.5 -76q0 -52 29.5 -81t80.5 -29z" />
    <glyph glyph-name="threeeighths" unicode="&#x215c;" horiz-adv-x="721" 
d="M105 -30l479 756h20l-479 -756h-20zM141 490v17h24q39 0 66.5 23.5t27.5 64.5q0 43 -23.5 68.5t-65.5 25.5q-95 0 -102 -105h-18q2 55 33 88.5t87 33.5q49 0 78 -30t29 -81q0 -34 -18.5 -59t-51.5 -36q40 -8 62.5 -37.5t22.5 -71.5q0 -59 -35.5 -92.5t-91.5 -33.5
q-58 0 -91 33.5t-33 97.5h18q0 -57 28 -85.5t78 -28.5q48 0 78.5 28.5t30.5 80.5q0 44 -28.5 71.5t-80.5 27.5h-24zM578 232q81 -23 81 -114q0 -59 -34.5 -93t-92.5 -34q-60 0 -94 33.5t-34 93.5q0 44 21.5 73.5t58.5 39.5q-62 24 -62 95q0 45 29.5 75.5t79.5 30.5
q54 0 82 -30t28 -76q0 -71 -63 -94zM532 238q42 0 66.5 23.5t24.5 64.5q0 39 -23.5 64t-67.5 25t-68 -26t-24 -63q0 -42 25 -65t67 -23zM532 8q51 0 80 28.5t29 81.5q0 47 -28 75.5t-81 28.5q-55 0 -82.5 -28t-27.5 -76q0 -52 29.5 -81t80.5 -29z" />
    <glyph glyph-name="fiveeighths" unicode="&#x215d;" horiz-adv-x="721" 
d="M111 -30l479 756h20l-479 -756h-20zM278 680h-169l-31 -173q34 46 96 46q59 0 90.5 -38t31.5 -104q0 -67 -36 -106.5t-91 -39.5q-54 0 -88.5 33t-35.5 93h18q1 -52 30.5 -80.5t75.5 -28.5q47 0 78 35.5t31 93.5q0 57 -27.5 91t-78.5 34q-57 0 -98 -54h-17l36 215h185v-17
zM594 232q81 -23 81 -114q0 -59 -34.5 -93t-92.5 -34q-60 0 -94 33.5t-34 93.5q0 44 21.5 73.5t58.5 39.5q-62 24 -62 95q0 45 29.5 75.5t79.5 30.5q54 0 82 -30t28 -76q0 -71 -63 -94zM548 238q42 0 66.5 23.5t24.5 64.5q0 39 -23.5 64t-67.5 25t-68 -26t-24 -63
q0 -42 25 -65t67 -23zM548 8q51 0 80 28.5t29 81.5q0 47 -28 75.5t-81 28.5q-55 0 -82.5 -28t-27.5 -76q0 -52 29.5 -81t80.5 -29z" />
    <glyph glyph-name="seveneighths" unicode="&#x215e;" horiz-adv-x="721" 
d="M35 -30l479 756h20l-479 -756h-20zM40 678v19h248v-17q-70 -74 -117.5 -179.5t-53.5 -226.5h-19q5 119 51.5 224t112.5 180h-222zM567 232q81 -23 81 -114q0 -59 -34.5 -93t-92.5 -34q-60 0 -94 33.5t-34 93.5q0 44 21.5 73.5t58.5 39.5q-62 24 -62 95q0 45 29.5 75.5
t79.5 30.5q54 0 82 -30t28 -76q0 -71 -63 -94zM521 238q42 0 66.5 23.5t24.5 64.5q0 39 -23.5 64t-67.5 25t-68 -26t-24 -63q0 -42 25 -65t67 -23zM521 8q51 0 80 28.5t29 81.5q0 47 -28 75.5t-81 28.5q-55 0 -82.5 -28t-27.5 -76q0 -52 29.5 -81t80.5 -29z" />
    <glyph glyph-name="partialdiff" unicode="&#x2202;" horiz-adv-x="444" 
d="M408 374q0 -46 -4.5 -91.5t-18 -101t-35.5 -97t-61 -69.5t-90 -28q-78 0 -125.5 70t-47.5 152q0 87 48 149.5t133 62.5q53 0 101 -28.5t79 -75.5q2 46 2 70q0 50 -9.5 100.5t-29.5 101t-60 82.5t-94 32q-56 0 -120 -46l-11 16q69 47 131 47q61 0 105 -34t66 -89.5
t31.5 -110.5t9.5 -112zM385 293q-79 111 -181 111q-76 0 -117 -59t-41 -138q0 -75 41.5 -139.5t112.5 -64.5q46 0 83.5 30t58.5 76.5t32 94t11 89.5z" />
    <glyph glyph-name="Delta" unicode="&#x2206;" horiz-adv-x="481" 
d="M479 0h-477l227 714h24zM240 696l-213 -678h426l-211 678h-2z" />
    <glyph glyph-name="product" unicode="&#x220f;" horiz-adv-x="704" 
d="M611 -214h-18v982h-482v-982h-18v1000h518v-1000z" />
    <glyph glyph-name="summation" unicode="&#x2211;" horiz-adv-x="593" 
d="M548 -214h-504v18l341 486l-326 478v18h479v-18h-456l326 -478l-341 -486h481v-18z" />
    <glyph glyph-name="minus" unicode="&#x2212;" horiz-adv-x="600" 
d="M553 244h-506v18h506v-18z" />
    <glyph glyph-name="uni2215" unicode="&#x2215;" horiz-adv-x="167" 
d="M-166 -30l479 756h20l-479 -756h-20z" />
    <glyph glyph-name="uni2219" unicode="&#x2219;" horiz-adv-x="240" 
d="M83 344q0 15 11 26t26 11t26 -11t11 -26t-11 -26t-26 -11t-26 11t-11 26z" />
    <glyph glyph-name="radical" unicode="&#x221a;" horiz-adv-x="444" 
d="M444 777l-219 -996h-10l-188 386l-44 -21l-6 15l58 28l180 -373l211 962z" />
    <glyph glyph-name="infinity" unicode="&#x221e;" horiz-adv-x="722" 
d="M668 242q0 -56 -32.5 -90.5t-87.5 -34.5q-23 0 -43.5 6t-41.5 20t-34 24t-35.5 31.5t-32.5 29.5l-40.5 -35.5t-44.5 -38t-44 -24.5t-57 -12q-56 0 -88.5 33.5t-32.5 90.5q0 52 33 87.5t84 35.5q17 0 36 -6t33 -12.5t34.5 -21.5t29.5 -22.5l30.5 -26t26.5 -22.5l58 50.5
t60.5 39t70.5 21.5q52 0 85 -35t33 -88zM650 242q0 44 -26.5 74.5t-70.5 30.5q-9 0 -19.5 -2t-19 -5t-20 -9l-19 -10t-19.5 -13t-18 -13t-18.5 -14.5l-16 -13.5l-16.5 -14t-14 -12l38.5 -36.5t38 -31t50.5 -30t47 -8.5q49 0 76 29t27 78zM349 240q-115 107 -181 107
q-43 0 -69.5 -30.5t-26.5 -74.5q0 -48 27 -77t74 -29q32 0 68 19t55 35.5t53 49.5z" />
    <glyph glyph-name="integral" unicode="&#x222b;" horiz-adv-x="537" 
d="M358 758q0 -10 -6.5 -16t-16.5 -6q-7 0 -11.5 2t-10.5 9.5t-8 9.5q-1 0 -3 1l-2 1q-28 0 -42 -94q-4 -44 -4 -132v-487q0 -2 0.5 -32t0 -46.5t-2.5 -48t-8 -51t-15 -40.5t-24.5 -31.5t-36.5 -10.5q-13 0 -22.5 7.5t-9.5 19.5q0 10 6 16.5t16 6.5q11 0 21.5 -11.5
t13.5 -11.5q42 0 42 180v25v507l-1 31q0 32 0.5 47t2.5 47.5t8 51.5t15.5 41t25 32.5t36.5 10.5q14 0 25 -7t11 -21z" />
    <glyph glyph-name="approxequal" unicode="&#x2248;" horiz-adv-x="600" 
d="M158 401q44 0 143.5 -40t140.5 -40q78 0 94 87h20q-19 -105 -114 -105q-47 0 -147 40t-137 40q-78 0 -94 -87h-20q19 105 114 105zM158 207q44 0 143.5 -40t140.5 -40q78 0 94 87h20q-19 -105 -114 -105q-47 0 -147 40t-137 40q-78 0 -94 -87h-20q19 105 114 105z" />
    <glyph glyph-name="notequal" unicode="&#x2260;" horiz-adv-x="600" 
d="M553 147h-307l-91 -147l-16 10l85 137h-177v18h188l108 176h-296v18h307l91 147l16 -10l-85 -137h177v-18h-188l-108 -176h296v-18z" />
    <glyph glyph-name="lessequal" unicode="&#x2264;" horiz-adv-x="600" 
d="M47 265v16l506 213v-18l-484 -203l484 -203v-18zM553 0h-506v18h506v-18z" />
    <glyph glyph-name="greaterequal" unicode="&#x2265;" horiz-adv-x="600" 
d="M553 281v-16l-506 -213v18l484 203l-484 203v18zM553 0h-506v18h506v-18z" />
    <glyph glyph-name="lozenge" unicode="&#x25ca;" horiz-adv-x="593" 
d="M471 356l-171 -391h-8l-170 391l170 391h8zM451 356l-155 357l-154 -357l154 -357z" />
    <glyph glyph-name="grave.cap" unicode="&#xe000;" horiz-adv-x="130" 
d="M82 765l-83 139h20l83 -139h-20z" />
    <glyph glyph-name="acute.cap" unicode="&#xe002;" horiz-adv-x="130" 
d="M28 765l83 139h20l-83 -139h-20z" />
    <glyph glyph-name="circumflex.cap" unicode="&#xe004;" horiz-adv-x="130" 
d="M-37 765l88 139h28l88 -139h-20l-82 125l-82 -125h-20z" />
    <glyph glyph-name="caron.cap" unicode="&#xe006;" horiz-adv-x="130" 
d="M51 765l-88 139h20l82 -125l82 125h20l-88 -139h-28z" />
    <glyph glyph-name="caron.alt" unicode="&#xe008;" horiz-adv-x="130" 
d="M58 575l28 139h22l-34 -139h-16z" />
    <glyph glyph-name="tilde.cap" unicode="&#xe009;" horiz-adv-x="130" 
d="M-26 796h-20q3 28 17.5 51.5t41.5 23.5q24 0 54.5 -28.5t47.5 -28.5q34 0 41 59h20q-13 -77 -61 -77q-22 0 -57 28.5t-46 28.5q-26 0 -38 -57z" />
    <glyph glyph-name="dieresis.cap" unicode="&#xe00b;" horiz-adv-x="130" 
d="M118 783v103h20v-103h-20zM-8 783v103h20v-103h-20z" />
    <glyph glyph-name="macron.cap" unicode="&#xe00d;" horiz-adv-x="130" 
d="M-31 843h192v-18h-192v18z" />
    <glyph glyph-name="breve.cap" unicode="&#xe00f;" horiz-adv-x="130" 
d="M-42 890h20q12 -93 86 -93q41 0 63 29.5t25 63.5h20q-6 -50 -33 -80.5t-76 -30.5q-45 0 -74 30t-31 81z" />
    <glyph glyph-name="ring.cap" unicode="&#xe011;" horiz-adv-x="130" 
d="M-20 826q0 35 25 60t60 25t60 -25t25 -60q0 -36 -25 -60.5t-60 -24.5q-36 0 -60.5 24.5t-24.5 60.5zM130 826q0 29 -19 48t-46 19t-46 -19t-19 -48t19 -48t46 -19t46 19t19 48z" />
    <glyph glyph-name="hungarumlaut.cap" unicode="&#xe013;" horiz-adv-x="130" 
d="M93 765l83 139h20l-83 -139h-20zM-36 765l83 139h20l-83 -139h-20z" />
    <glyph glyph-name="dotaccent.cap" unicode="&#xe015;" horiz-adv-x="130" 
d="M55 783v103h20v-103h-20z" />
    <glyph glyph-name="commaaccent" unicode="&#xe017;" horiz-adv-x="240" 
d="M110 -127v77h20v-79q0 -25 -9 -38t-33 -17v18q14 4 18 11.5t4 27.5z" />
    <glyph glyph-name="commaaccent.alt" unicode="&#xe01a;" horiz-adv-x="240" 
d="M125 714v-77h-20v79q0 25 9 38t33 17v-18q-14 -4 -18 -11.5t-4 -27.5z" />
    <glyph glyph-name="tonos.cap" unicode="&#xe01b;" horiz-adv-x="113" 
d="M28 576l40 138h28l-51 -138h-17z" />
    <glyph glyph-name="f_i" unicode="&#xf001;" horiz-adv-x="315" 
d="M240 615v99h20v-99h-20zM78 0v498h-67v18h67v92q0 60 22 82q13 13 27.5 18.5t46.5 5.5h10q8 0 11 -1v-18q-5 1 -13 1h-13q-39 0 -55 -19t-16 -67v-94h88v-18h-88v-498h-20zM240 0v516h20v-516h-20z" />
    <glyph glyph-name="f_l" unicode="&#xf002;" horiz-adv-x="315" 
d="M240 0v714h20v-714h-20zM78 0v498h-67v18h67v92q0 60 22 82q13 13 27.5 18.5t46.5 5.5h10q8 0 11 -1v-18q-5 1 -13 1h-13q-39 0 -55 -19t-16 -67v-94h88v-18h-88v-498h-20z" />
    <glyph glyph-name="uniF8FF" unicode="&#xf8ff;" horiz-adv-x="512" 
d="M0 718h512v-718h-512v718zM50 50h412v617h-412v-617zM271 234h-46l-2 17q0 56 13 81q15 28 46 59q31 29 40.5 46t9.5 37q0 36 -22.5 60.5t-53.5 24.5q-71 0 -82 -95l-50 8q7 69 43 103t92 34q54 0 89 -36t35 -95q0 -34 -13 -60t-50 -60q-37 -33 -43 -52q-6 -20 -6 -72z
M278 117h-56v67h56v-67z" />
    </font>
</defs>
</svg>
